<svg width="51" height="42" viewBox="0 0 51 42" fill="none" xmlns="http://www.w3.org/2000/svg">
<path d="M-12 20.6578C-12 14.2532 -10.8523 9.2368 -8.55703 5.60872C-6.22469 1.98064 -2.37448 0.166597 2.9936 0.166597C8.36167 0.166597 12.1934 1.98064 14.4887 5.60872C16.821 9.2368 17.9872 14.2532 17.9872 20.6578C17.9872 27.0995 16.821 32.1529 14.4887 35.818C12.1934 39.4831 8.36167 41.3157 2.9936 41.3157C-2.37448 41.3157 -6.22469 39.4831 -8.55703 35.818C-10.8523 32.1529 -12 27.0995 -12 20.6578ZM10.3238 20.6578C10.3238 17.9183 10.1387 15.623 9.76848 13.7719C9.43529 11.8838 8.73189 10.3474 7.65827 9.16275C6.62168 7.97807 5.06678 7.38573 2.9936 7.38573C0.920407 7.38573 -0.652995 7.97807 -1.72661 9.16275C-2.7632 10.3474 -3.46661 11.8838 -3.83682 13.7719C-4.17001 15.623 -4.33661 17.9183 -4.33661 20.6578C-4.33661 23.4715 -4.17001 25.8408 -3.83682 27.7659C-3.50363 29.654 -2.80023 31.1904 -1.72661 32.3751C-0.652995 33.5227 0.920407 34.0965 2.9936 34.0965C5.06678 34.0965 6.64019 33.5227 7.7138 32.3751C8.78742 31.1904 9.49082 29.654 9.82401 27.7659C10.1572 25.8408 10.3238 23.4715 10.3238 20.6578Z" fill="#98A2B3"/>
<path d="M24.0115 11.6062C24.1966 7.90403 25.4924 5.0534 27.8988 3.05425C30.3422 1.01808 33.5445 0 37.5058 0C40.2083 0 42.5221 0.481276 44.4472 1.44383C46.3723 2.36936 47.8162 3.64659 48.7787 5.27553C49.7783 6.86744 50.2781 8.68148 50.2781 10.7176C50.2781 13.05 49.6672 15.0306 48.4455 16.6596C47.2609 18.2515 45.8355 19.3251 44.1696 19.8804V20.1025C46.3168 20.7689 47.9828 21.9536 49.1674 23.6566C50.3891 25.3595 51 27.5438 51 30.2093C51 32.4306 50.4817 34.4112 49.4451 36.1512C48.4455 37.8912 46.9462 39.261 44.947 40.2606C42.9849 41.2231 40.6155 41.7044 37.839 41.7044C33.6556 41.7044 30.2496 40.6493 27.6211 38.5391C24.9926 36.4289 23.6043 33.3191 23.4562 29.2097H31.0085C31.0826 31.0238 31.6934 32.4861 32.8411 33.5968C34.0258 34.6704 35.6362 35.2072 37.6724 35.2072C39.5604 35.2072 41.0043 34.6889 42.0038 33.6523C43.0404 32.5787 43.5587 31.2089 43.5587 29.5429C43.5587 27.3217 42.8553 25.7298 41.4485 24.7672C40.0417 23.8046 37.8575 23.3234 34.8958 23.3234H33.2853V16.9372H34.8958C40.1528 16.9372 42.7813 15.1787 42.7813 11.6617C42.7813 10.0698 42.3 8.82956 41.3375 7.94105C40.4119 7.05254 39.0607 6.60829 37.2836 6.60829C35.5436 6.60829 34.1924 7.08957 33.2298 8.05212C32.3043 8.97765 31.7675 10.1623 31.6194 11.6062H24.0115Z" fill="#98A2B3"/>
</svg>
