<svg width="57" height="42" viewBox="0 0 53 42" fill="none" xmlns="http://www.w3.org/2000/svg">
<path d="M-12 20.8587C-12 14.3392 -10.8318 9.23284 -8.49529 5.5397C-6.12113 1.84657 -2.20188 0 3.26245 0C8.72678 0 12.6272 1.84657 14.9637 5.5397C17.3378 9.23284 18.5249 14.3392 18.5249 20.8587C18.5249 27.4159 17.3378 32.5599 14.9637 36.2907C12.6272 40.0215 8.72678 41.8869 3.26245 41.8869C-2.20188 41.8869 -6.12113 40.0215 -8.49529 36.2907C-10.8318 32.5599 -12 27.4159 -12 20.8587ZM10.7241 20.8587C10.7241 18.07 10.5357 15.7335 10.1588 13.8493C9.81965 11.9273 9.10363 10.3634 8.01077 9.15747C6.95559 7.95155 5.37281 7.34859 3.26245 7.34859C1.15209 7.34859 -0.449529 7.95155 -1.5424 9.15747C-2.59758 10.3634 -3.31359 11.9273 -3.69044 13.8493C-4.02961 15.7335 -4.19919 18.07 -4.19919 20.8587C-4.19919 23.7227 -4.02961 26.1346 -3.69044 28.0942C-3.35128 30.0162 -2.63526 31.5801 -1.5424 32.786C-0.449529 33.9542 1.15209 34.5384 3.26245 34.5384C5.37281 34.5384 6.97443 33.9542 8.0673 32.786C9.16016 31.5801 9.87618 30.0162 10.2153 28.0942C10.5545 26.1346 10.7241 23.7227 10.7241 20.8587Z" fill="#98A2B3"/>
<path d="M24.205 33.9731V27.755L42.6896 1.30013H51.9036V27.0767H56.878V33.9731H51.9036V42H43.9897V33.9731H24.205ZM44.4984 9.77927L32.9103 27.0767H44.4984V9.77927Z" fill="#98A2B3"/>
</svg>
