<svg width="10" height="16" viewBox="0 0 10 16" fill="none" xmlns="http://www.w3.org/2000/svg">
<path d="M0.900249 8.0002C0.900249 7.86687 0.922471 7.74464 0.966915 7.63353C1.01136 7.52242 1.08914 7.41131 1.20025 7.3002L7.80025 0.700199C7.97803 0.522421 8.21692 0.439088 8.51692 0.450199C8.81692 0.46131 9.05581 0.555755 9.23358 0.733533C9.45581 0.955755 9.55025 1.19464 9.51692 1.4502C9.48358 1.70575 9.37803 1.93353 9.20025 2.13353L3.33358 8.0002L9.20025 13.8669C9.37803 14.0446 9.47803 14.2835 9.50025 14.5835C9.52247 14.8835 9.42247 15.1224 9.20025 15.3002C9.02247 15.5224 8.78914 15.6169 8.50025 15.5835C8.21136 15.5502 7.96692 15.4446 7.76692 15.2669L1.20025 8.7002C1.08914 8.58909 1.01136 8.47798 0.966915 8.36687C0.922471 8.25575 0.900249 8.13353 0.900249 8.0002Z" fill="#667085"/>
</svg>
