<svg width="46" height="57" viewBox="0 0 46 57" fill="none" xmlns="http://www.w3.org/2000/svg">
<path d="M11.2507 6.0625C10.1252 6.06394 9.04621 6.51176 8.25043 7.30771C7.45465 8.10366 7.00706 9.18275 7.00586 10.3083V52.7533C7.00754 53.8785 7.45534 54.9571 8.25107 55.7527C9.0468 56.5482 10.1255 56.9958 11.2507 56.9973H40.9621C42.0873 56.9958 43.166 56.5482 43.9617 55.7527C44.7574 54.9571 45.2052 53.8785 45.2069 52.7533V17.7357C45.2071 17.5963 45.1798 17.4583 45.1266 17.3296C45.0733 17.2008 44.9953 17.0838 44.8968 16.9853L34.2851 6.37448C34.1866 6.2757 34.0697 6.1973 33.9409 6.14376C33.8122 6.09023 33.6741 6.06262 33.5347 6.0625H11.2507Z" fill="#CFEADA"/>
<path d="M39.7011 12.6738C39.7013 12.4687 39.6611 12.2656 39.5828 12.0761C39.5045 11.8866 39.3895 11.7144 39.2446 11.5693L39.2444 11.5692L28.6334 0.959062C28.6333 0.958985 28.6332 0.958908 28.6332 0.958831C28.4884 0.813586 28.3164 0.698305 28.127 0.619576C27.9376 0.540805 27.7344 0.500171 27.5292 0.5H27.5288L5.24487 0.5L5.24422 0.5C3.9863 0.501615 2.78037 1.00211 1.89098 1.89169C1.00158 2.78128 0.501345 3.98731 0.5 5.24524V5.24578L0.499999 47.6908L0.500001 47.6916C0.501883 48.9491 1.00236 50.1546 1.89169 51.0438C2.78103 51.9329 3.98665 52.4331 5.24423 52.4348H5.24487H34.9562H34.9568C36.2144 52.4331 37.42 51.9329 38.3094 51.0438C39.1987 50.1546 39.6992 48.9491 39.7011 47.6916V47.6908V12.6738ZM39.7011 12.6738L39.2011 12.6732M39.7011 12.6738V12.6732H39.2011M39.2011 12.6732V47.6908M39.2011 12.6732C39.2012 12.5338 39.1739 12.3958 39.1207 12.2671C39.0675 12.1383 38.9894 12.0213 38.8909 11.9228L28.2792 1.31198C28.1808 1.2132 28.0638 1.1348 27.9351 1.08126C27.8063 1.02773 27.6683 1.00012 27.5288 1L39.2011 47.6908M39.2011 47.6908C39.1994 48.816 38.7516 49.8946 37.9559 50.6902C37.1601 51.4857 36.0814 51.9333 34.9562 51.9348L39.2011 47.6908Z" fill="white" stroke="#BFC5D0"/>
<path d="M28.5879 4.62305L35.5769 11.612H30.7108C30.148 11.6113 29.6084 11.3874 29.2105 10.9894C28.8125 10.5915 28.5886 10.0519 28.5879 9.48913V4.62305Z" fill="#DFE2E8"/>
<path d="M8.42845 11.6137H21.1621C21.4382 11.6218 21.7002 11.7371 21.8925 11.9352C22.0849 12.1333 22.1925 12.3986 22.1925 12.6747C22.1925 12.9509 22.0849 13.2161 21.8925 13.4142C21.7002 13.6123 21.4382 13.7276 21.1621 13.7357H8.42845C8.2865 13.7399 8.14517 13.7155 8.01281 13.6641C7.88045 13.6126 7.75977 13.5351 7.65789 13.4362C7.55602 13.3373 7.47504 13.2189 7.41973 13.0881C7.36443 12.9573 7.33594 12.8167 7.33594 12.6747C7.33594 12.5327 7.36443 12.3922 7.41973 12.2614C7.47504 12.1306 7.55602 12.0122 7.65789 11.9133C7.75977 11.8143 7.88045 11.7368 8.01281 11.6854C8.14517 11.6339 8.2865 11.6096 8.42845 11.6137Z" fill="#DFE2E8"/>
<path d="M8.42845 17.979H31.7729C31.9149 17.9748 32.0562 17.9992 32.1886 18.0506C32.3209 18.1021 32.4416 18.1796 32.5435 18.2785C32.6454 18.3774 32.7264 18.4958 32.7817 18.6266C32.837 18.7574 32.8655 18.898 32.8655 19.04C32.8655 19.182 32.837 19.3225 32.7817 19.4533C32.7264 19.5841 32.6454 19.7025 32.5435 19.8014C32.4416 19.9004 32.3209 19.9778 32.1886 20.0293C32.0562 20.0807 31.9149 20.1051 31.7729 20.101H8.42845C8.2865 20.1051 8.14517 20.0807 8.01281 20.0293C7.88045 19.9778 7.75977 19.9004 7.65789 19.8014C7.55602 19.7025 7.47504 19.5841 7.41973 19.4533C7.36443 19.3225 7.33594 19.182 7.33594 19.04C7.33594 18.898 7.36443 18.7574 7.41973 18.6266C7.47504 18.4958 7.55602 18.3774 7.65789 18.2785C7.75977 18.1796 7.88045 18.1021 8.01281 18.0506C8.14517 17.9992 8.2865 17.9748 8.42845 17.979Z" fill="#DFE2E8"/>
<path d="M8.42845 24.3462H31.7729C31.9149 24.342 32.0562 24.3664 32.1886 24.4178C32.3209 24.4693 32.4416 24.5468 32.5435 24.6457C32.6454 24.7446 32.7264 24.863 32.7817 24.9938C32.837 25.1246 32.8655 25.2651 32.8655 25.4071C32.8655 25.5492 32.837 25.6897 32.7817 25.8205C32.7264 25.9513 32.6454 26.0697 32.5435 26.1686C32.4416 26.2675 32.3209 26.345 32.1886 26.3965C32.0562 26.4479 31.9149 26.4723 31.7729 26.4681H8.42845C8.2865 26.4723 8.14517 26.4479 8.01281 26.3965C7.88045 26.345 7.75977 26.2675 7.65789 26.1686C7.55602 26.0697 7.47504 25.9513 7.41973 25.8205C7.36443 25.6897 7.33594 25.5492 7.33594 25.4071C7.33594 25.2651 7.36443 25.1246 7.41973 24.9938C7.47504 24.863 7.55602 24.7446 7.65789 24.6457C7.75977 24.5468 7.88045 24.4693 8.01281 24.4178C8.14517 24.3664 8.2865 24.342 8.42845 24.3462Z" fill="#DFE2E8"/>
<path d="M10.5523 34.956C11.7829 34.956 13.7357 35.8201 13.7357 38.1394C13.7357 39.4901 12.7961 41.2392 11.6273 42.749C12.0603 43.1538 12.455 43.4212 12.6851 43.4457C12.9189 43.2811 13.5629 41.9686 13.8739 41.3383C14.5106 40.0513 14.9272 39.2009 15.8577 39.2009C16.9491 39.2009 17.2838 40.3296 17.715 41.7585C17.8612 42.2806 18.0348 42.7946 18.2352 43.2984C20.3608 43.3702 21.8598 43.3839 24.1582 43.4403C24.4456 43.6049 24.9768 43.7131 24.9704 44.64C24.9632 45.4058 24.3337 45.4404 24.0609 45.5777C18.9965 45.5659 21.2413 45.5959 17.9805 45.5677C16.6617 45.5677 16.1887 44.0551 15.7003 42.4343C14.9599 43.9351 14.1086 45.5677 12.6742 45.5677C11.9357 45.5677 11.0534 45.0811 10.2185 44.3425C9.85609 44.706 9.46956 45.0445 9.06151 45.3558C8.95025 45.4425 8.82283 45.5061 8.68669 45.543C8.55056 45.5799 8.40844 45.5893 8.26863 45.5706C8.12883 45.5519 7.99415 45.5056 7.87246 45.4343C7.75077 45.363 7.64451 45.2681 7.55989 45.1553C7.47527 45.0425 7.41399 44.9139 7.37963 44.7771C7.34527 44.6403 7.33852 44.498 7.35977 44.3586C7.38102 44.2191 7.42985 44.0853 7.5034 43.965C7.57695 43.8446 7.67375 43.7402 7.78814 43.6576C8.14625 43.3835 8.48481 43.0848 8.80137 42.7636C7.96368 41.6002 7.36883 40.2741 7.36883 39.1999C7.36883 36.7778 9.30072 34.9551 10.5523 34.9551V34.956Z" fill="#0E8741"/>
</svg>
