<svg width="10" height="16" viewBox="0 0 10 16" fill="none" xmlns="http://www.w3.org/2000/svg">
<path d="M9.09975 7.9998C9.09975 8.13313 9.07753 8.25536 9.03308 8.36647C8.98864 8.47758 8.91086 8.58869 8.79975 8.6998L2.19975 15.2998C2.02197 15.4776 1.78308 15.5609 1.48308 15.5498C1.18308 15.5387 0.944195 15.4442 0.766417 15.2665C0.544195 15.0442 0.449751 14.8054 0.483084 14.5498C0.516418 14.2942 0.621973 14.0665 0.799751 13.8665L6.66642 7.9998L0.799751 2.13313C0.621973 1.95536 0.521972 1.71647 0.49975 1.41647C0.477528 1.11647 0.577528 0.877577 0.799751 0.6998C0.977528 0.477577 1.21086 0.383133 1.49975 0.416467C1.78864 0.449799 2.03308 0.555354 2.23308 0.733132L8.79975 7.2998C8.91086 7.41091 8.98864 7.52202 9.03308 7.63313C9.07753 7.74425 9.09975 7.86647 9.09975 7.9998Z" fill="#667085"/>
</svg>
