<svg width="25" height="24" viewBox="0 0 25 24" fill="none" xmlns="http://www.w3.org/2000/svg">
<g clip-path="url(#clip0_924_17482)">
<path fill-rule="evenodd" clip-rule="evenodd" d="M12.5005 20.1367C17.2038 20.1367 21.0166 16.3315 21.0166 11.6377C21.0166 6.94381 17.2038 3.13867 12.5005 3.13867C7.79718 3.13867 3.98438 6.94381 3.98438 11.6377C3.98438 13.4409 4.54711 15.113 5.50687 16.4886L4.68792 19.5388L7.77933 18.7122C9.13054 19.6121 10.7541 20.1367 12.5005 20.1367Z" fill="url(#paint0_linear_924_17482)"/>
<path d="M2.38672 21.8154L3.8184 16.5983C2.93533 15.0714 2.47072 13.3393 2.4714 11.5648C2.47367 6.01346 7.00062 1.49707 12.5633 1.49707C15.2628 1.49823 17.7966 2.54679 19.702 4.44975C21.6072 6.35284 22.6561 8.8825 22.6552 11.5729C22.6527 17.1239 18.1252 21.6411 12.5633 21.6411C12.563 21.6411 12.5636 21.6411 12.5633 21.6411H12.559C10.8701 21.6405 9.21051 21.2176 7.73654 20.4155L2.38672 21.8154ZM7.98438 18.5927L8.29082 18.774C9.5784 19.5366 11.0547 19.9399 12.56 19.9407H12.5633C17.1864 19.9407 20.9491 16.1864 20.9511 11.5722C20.9518 9.33609 20.0803 7.23346 18.4966 5.65173C16.9128 4.07009 14.807 3.19851 12.5664 3.19759C7.93967 3.19759 4.17704 6.95135 4.17515 11.5654C4.17457 13.1465 4.6178 14.6864 5.45751 16.0189L5.6572 16.3354L4.80956 19.4234L7.98438 18.5927Z" fill="white"/>
<path fill-rule="evenodd" clip-rule="evenodd" d="M9.98851 7.2405C9.79965 6.82144 9.60078 6.81304 9.42107 6.8057C9.27412 6.79942 9.10578 6.79981 8.93788 6.79981C8.76973 6.79981 8.49654 6.86283 8.26549 7.11466C8.0343 7.36649 7.38281 7.97523 7.38281 9.21333C7.38281 10.4516 8.28649 11.648 8.41244 11.816C8.53854 11.9838 10.1569 14.6057 12.7199 15.6145C14.85 16.4527 15.2835 16.2859 15.7458 16.2441C16.2081 16.2021 17.2377 15.6354 17.4478 15.0478C17.658 14.4603 17.658 13.9566 17.5949 13.8514C17.5319 13.7465 17.3638 13.6836 17.1116 13.5577C16.8594 13.4319 15.6197 12.823 15.3886 12.7392C15.1574 12.6553 14.9893 12.6133 14.8211 12.8652C14.653 13.1169 14.17 13.6836 14.0229 13.8514C13.8758 14.0196 13.7287 14.0405 13.4765 13.9147C13.2243 13.7885 12.4122 13.523 11.4488 12.6658C10.6992 11.9988 10.1931 11.1751 10.0459 10.9231C9.89885 10.6714 10.0302 10.5351 10.1567 10.4097C10.2699 10.2969 10.4089 10.1159 10.5349 9.96897C10.6608 9.82202 10.7028 9.71714 10.7869 9.54933C10.8709 9.38133 10.8289 9.23434 10.7658 9.10849C10.7028 8.9826 10.2128 7.73808 9.98851 7.2405Z" fill="white"/>
</g>
<defs>
<linearGradient id="paint0_linear_924_17482" x1="12.503" y1="20.1462" x2="12.503" y2="3.14841" gradientUnits="userSpaceOnUse">
<stop stop-color="#20B038"/>
<stop offset="1" stop-color="#60D66A"/>
</linearGradient>
<clipPath id="clip0_924_17482">
<rect width="24" height="24" fill="white" transform="translate(0.5)"/>
</clipPath>
</defs>
</svg>
