<svg width="28" height="22" viewBox="0 0 28 22" fill="none" xmlns="http://www.w3.org/2000/svg">
<path d="M2.66602 21.6673C2.13268 21.6673 1.66602 21.4673 1.26602 21.0673C0.866016 20.6673 0.666016 20.2006 0.666016 19.6673V2.33398C0.666016 1.80065 0.866016 1.33398 1.26602 0.933984C1.66602 0.533984 2.13268 0.333984 2.66602 0.333984H25.3327C25.866 0.333984 26.3327 0.533984 26.7327 0.933984C27.1327 1.33398 27.3327 1.80065 27.3327 2.33398V19.6673C27.3327 20.2006 27.1327 20.6673 26.7327 21.0673C26.3327 21.4673 25.866 21.6673 25.3327 21.6673H2.66602ZM25.3327 4.16732L14.5327 11.234C14.4438 11.2784 14.3605 11.3173 14.2827 11.3506C14.2049 11.384 14.1105 11.4007 13.9993 11.4007C13.8882 11.4007 13.7938 11.384 13.716 11.3506C13.6382 11.3173 13.5549 11.2784 13.466 11.234L2.66602 4.16732V19.6673H25.3327V4.16732ZM13.9993 9.60065L25.1993 2.33398H2.83268L13.9993 9.60065ZM2.66602 4.16732V4.40065V3.08398V3.10065V2.33398V3.10065V3.06732V4.40065V4.16732V19.6673V4.16732Z" fill="#109648"/>
</svg>
