<svg width="65" height="24" viewBox="0 0 65 24" fill="none" xmlns="http://www.w3.org/2000/svg">
<path fill-rule="evenodd" clip-rule="evenodd" d="M26.2306 1.55902C26.6386 0.867672 26.1334 0 25.3228 0H22.402L13.0943 15.8424L8.02645 7.33074C7.64902 6.69684 6.95981 6.30756 6.21492 6.30756H2.66857L13.0346 23.9201L26.2306 1.55902Z" fill="#1434CB"/>
<path fill-rule="evenodd" clip-rule="evenodd" d="M11.5762 12.8729L18.7767 1.00823C19.1562 0.382792 19.8406 0 20.5792 0H22.1991L13.0954 15.4689L11.5762 12.8729Z" fill="#A1AEEA"/>
<path fill-rule="evenodd" clip-rule="evenodd" d="M12.75 23.9199L2.3863 6.33203H1.05221C0.239637 6.33203 -0.265346 7.20357 0.146666 7.8949L9.08779 22.8975C9.46533 23.5309 10.1543 23.9199 10.8989 23.9199H12.75Z" fill="#A1AEEA"/>
<path d="M48.4192 24V0H42.8906V24H48.4192Z" fill="#1434CB"/>
<path d="M63.8737 18.3861C63.2666 18.7645 62.4037 18.9853 61.5089 18.9853C60.0069 18.9853 59.3039 18.2284 59.3039 16.5885V11.0368H64.0016V6.24433H59.3039V0H53.8393V6.24433H50.6436V11.0368H53.8393V17.85C53.8393 21.729 56.1082 23.9997 59.975 23.9997C61.5089 23.9997 62.6594 23.7474 63.8737 23.0851V18.3861Z" fill="#1434CB"/>
<path d="M31.5629 23.8887C36.6441 23.8887 40.5428 19.9466 40.5428 15.0898C40.5428 10.2331 36.6441 6.29102 31.5629 6.29102C26.4818 6.29102 22.583 10.2331 22.583 15.0898C22.583 19.9466 26.4818 23.8887 31.5629 23.8887ZM31.5629 19.0635C29.8692 19.0635 28.2713 17.739 28.2713 15.0898C28.2713 12.4407 29.8692 11.1477 31.5629 11.1477C33.2566 11.1477 34.8545 12.4407 34.8545 15.0898C34.8545 17.739 33.2566 19.0635 31.5629 19.0635Z" fill="#1434CB"/>
</svg>
