<svg width="88" height="36" viewBox="0 0 88 36" fill="none" xmlns="http://www.w3.org/2000/svg">
<rect width="88" height="36" rx="4" fill="#F9FAFB"/>
<g style="mix-blend-mode:luminosity">
<path d="M23.1536 16.248V11H18.2681C18.019 11.0007 17.7804 11.0995 17.6043 11.2746C17.4281 11.4498 17.3289 11.6871 17.3281 11.9348V24.5747C17.3289 24.8224 17.4281 25.0598 17.6043 25.2349C17.7804 25.4101 18.019 25.5088 18.2681 25.5096H28.7877C29.0367 25.5088 29.2754 25.4101 29.4515 25.2349C29.6276 25.0598 29.7269 24.8224 29.7276 24.5747V16.248H23.1536Z" fill="#6334FA"/>
<path d="M32.0625 22.4425V15.6663H34.2801C34.6709 15.6611 35.0589 15.7314 35.4227 15.8734C35.7497 16.0096 36.0392 16.2217 36.267 16.492C36.5151 16.7955 36.6989 17.1459 36.8073 17.522C36.9398 17.988 37.0033 18.4708 36.9958 18.955C37.0033 19.4687 36.9398 19.981 36.8073 20.4776C36.7011 20.8724 36.5175 21.2425 36.267 21.5664C36.0429 21.8501 35.7533 22.0757 35.4227 22.2241C35.0609 22.3739 34.672 22.4483 34.2801 22.4425H32.0625ZM33.3345 16.7942V21.3201H34.1591C34.3823 21.325 34.6038 21.2791 34.8064 21.1857C34.9989 21.0961 35.1662 20.9606 35.2932 20.7911C35.4373 20.5926 35.5415 20.3683 35.6 20.1306C35.6755 19.8266 35.7114 19.5143 35.7069 19.2013V18.7087C35.7112 18.4252 35.6752 18.1425 35.6 17.869C35.539 17.6518 35.4347 17.4491 35.2932 17.2729C35.1613 17.1173 34.9945 16.9946 34.8064 16.9146C34.6045 16.8329 34.3883 16.792 34.1704 16.7942H33.3345Z" fill="#6334FA"/>
<path d="M39.0782 16.3708H37.8906V15.2988H39.0782V16.3708ZM39.0782 22.4333H37.8906V17.2469H39.0782V22.4333Z" fill="#6334FA"/>
<path d="M44.439 16.37C44.4558 16.6785 44.3783 16.9849 44.2167 17.2488C44.0676 17.4639 43.8476 17.6203 43.5947 17.6911C43.7335 17.8437 43.8398 18.0227 43.9071 18.2173C43.9804 18.4336 44.0165 18.6607 44.0141 18.889C44.0173 19.1364 43.9743 19.3821 43.8874 19.6139C43.8071 19.825 43.6812 20.0161 43.5188 20.1737C43.3452 20.3356 43.1375 20.457 42.9109 20.5292C42.6387 20.6187 42.3532 20.6613 42.0666 20.6551H41.5826C41.4875 20.6512 41.3946 20.6844 41.3237 20.7475C41.2921 20.7763 41.267 20.8113 41.2501 20.8504C41.2331 20.8895 41.2246 20.9316 41.2252 20.9742C41.2236 21.0144 41.2303 21.0545 41.2448 21.092C41.2593 21.1295 41.2814 21.1637 41.3096 21.1925C41.3377 21.2219 41.3718 21.2449 41.4097 21.2599C41.4477 21.2749 41.4884 21.2815 41.5291 21.2793H43.3387C43.4982 21.278 43.6563 21.3094 43.803 21.3716C43.9476 21.4367 44.0762 21.5322 44.1801 21.6515C44.2934 21.7758 44.3805 21.9214 44.4362 22.0798C44.5026 22.2589 44.535 22.4487 44.5319 22.6396C44.5343 22.8656 44.4893 23.0896 44.3996 23.2973C44.3143 23.4889 44.1908 23.6612 44.0366 23.8039C43.8816 23.9455 43.6999 24.0549 43.5019 24.1258C43.291 24.2028 43.068 24.2417 42.8433 24.2405H40.924C40.7729 24.2421 40.6231 24.2135 40.4833 24.1563C40.3436 24.099 40.2169 24.0144 40.1107 23.9075C40.0101 23.7969 39.9309 23.6688 39.8771 23.5296C39.8172 23.3752 39.7876 23.2109 39.7899 23.0454C39.7807 22.8161 39.8469 22.5901 39.9785 22.4016C40.0987 22.2306 40.2566 22.0889 40.44 21.9874C40.3122 21.9098 40.2066 21.8009 40.1332 21.6711C40.0559 21.5286 40.0171 21.3685 40.0207 21.2065C40.0205 21.0999 40.0416 20.9943 40.0826 20.8958C40.1221 20.8008 40.1783 20.7136 40.2486 20.6383C40.3184 20.5581 40.4012 20.49 40.4935 20.4368C40.5824 20.3819 40.6767 20.3359 40.7749 20.2997C40.5747 20.1515 40.4158 19.955 40.3134 19.7287C40.201 19.4633 40.1482 19.1768 40.1586 18.889C40.1556 18.641 40.1976 18.3945 40.2824 18.1613C40.3606 17.9491 40.4868 17.7576 40.6511 17.6015C40.824 17.441 41.0293 17.3189 41.2533 17.2432C41.5204 17.1526 41.8013 17.1091 42.0835 17.1145C42.24 17.1133 42.3963 17.1255 42.5507 17.1509C42.6896 17.1728 42.8256 17.2103 42.9559 17.2628C43.0501 17.1987 43.1337 17.1203 43.2036 17.0305C43.2647 16.9517 43.3166 16.8663 43.3584 16.7758C43.395 16.7017 43.4233 16.6238 43.4428 16.5435C43.4555 16.4855 43.4631 16.4265 43.4653 16.3672L44.439 16.37ZM41.4531 22.3821C41.3882 22.3818 41.3239 22.3951 41.2646 22.4212C41.2095 22.4475 41.1592 22.4825 41.1154 22.5248C41.0716 22.5678 41.0371 22.6192 41.0141 22.6759C40.9891 22.7323 40.9766 22.7934 40.9775 22.8551C40.9735 22.9187 40.983 22.9825 41.0054 23.0423C41.0277 23.1021 41.0624 23.1566 41.1072 23.2022C41.152 23.2478 41.206 23.2836 41.2656 23.3072C41.3251 23.3308 41.389 23.3418 41.4531 23.3393H42.7899C42.9301 23.343 43.067 23.2963 43.1754 23.2077C43.2263 23.1643 43.2666 23.1101 43.2934 23.049C43.3202 22.988 43.3328 22.9217 43.3302 22.8551C43.3333 22.7905 43.3223 22.7261 43.2981 22.6662C43.2738 22.6063 43.2367 22.5523 43.1895 22.508C43.0944 22.4238 42.9706 22.3788 42.8433 22.3821H41.4531ZM42.0779 18.0046C41.972 17.9961 41.8656 18.0131 41.7677 18.054C41.6697 18.0949 41.5831 18.1586 41.515 18.2397C41.3865 18.4311 41.3251 18.6593 41.3405 18.889C41.3274 19.1201 41.3928 19.3488 41.5263 19.5384C41.598 19.6157 41.685 19.6774 41.7819 19.7197C41.8787 19.7619 41.9834 19.7837 42.0891 19.7837C42.1949 19.7837 42.2995 19.7619 42.3964 19.7197C42.4933 19.6774 42.5803 19.6157 42.652 19.5384C42.7855 19.3488 42.8509 19.1201 42.8377 18.889C42.8517 18.6552 42.7863 18.4236 42.652 18.2313C42.5818 18.1502 42.4929 18.0873 42.3929 18.0478C42.2929 18.0083 42.1849 17.9935 42.0779 18.0046Z" fill="#6334FA"/>
<path d="M46.3126 16.3708H45.125V15.2988H46.3126V16.3708ZM46.3126 22.4333H45.125V17.2469H46.3126V22.4333Z" fill="#6334FA"/>
<path d="M47.4531 15.666H48.7252V21.2638H51.6069V22.4506H47.4531V15.666Z" fill="#6334FA"/>
<path d="M54.3197 17.128C54.6143 17.1066 54.9097 17.1551 55.1817 17.2695C55.4537 17.3838 55.6946 17.5607 55.8844 17.7857C56.2334 18.2251 56.4051 18.9053 56.4051 19.8429C56.4051 20.7805 56.2334 21.4635 55.8844 21.9029C55.6818 22.1117 55.4389 22.2778 55.1703 22.3913C54.9018 22.5047 54.6129 22.5632 54.3211 22.5632C54.0293 22.5632 53.7405 22.5047 53.4719 22.3913C53.2033 22.2778 52.9605 22.1117 52.7578 21.9029C52.4089 21.4625 52.2344 20.7759 52.2344 19.8429C52.2344 18.9099 52.4089 18.2242 52.7578 17.7857C52.9471 17.5608 53.1874 17.3838 53.459 17.2695C53.7306 17.1551 54.0256 17.1066 54.3197 17.128ZM54.3197 18.1272C54.1841 18.1189 54.0492 18.1519 53.9331 18.222C53.8169 18.292 53.725 18.3956 53.6696 18.519C53.5231 18.8793 53.4578 19.2672 53.4783 19.6554V20.0332C53.4575 20.4223 53.5229 20.8111 53.6696 21.1724C53.7317 21.2909 53.8252 21.3902 53.9401 21.4596C54.055 21.5289 54.1868 21.5655 54.3211 21.5655C54.4555 21.5655 54.5873 21.5289 54.7021 21.4596C54.817 21.3902 54.9106 21.2909 54.9726 21.1724C55.1194 20.8111 55.1847 20.4223 55.164 20.0332V19.6554C55.1845 19.2672 55.1192 18.8793 54.9726 18.519C54.9171 18.3952 54.8248 18.2912 54.708 18.2211C54.5913 18.1511 54.4558 18.1183 54.3197 18.1272Z" fill="#6334FA"/>
<path d="M59.1501 17.1264C59.4075 17.1224 59.6637 17.1632 59.9071 17.2468C60.1273 17.3231 60.3253 17.4519 60.484 17.6218C60.6525 17.8067 60.7775 18.0266 60.8499 18.2656C60.9428 18.5683 60.9865 18.8839 60.9793 19.2004H59.7579C59.776 18.9215 59.7238 18.6425 59.606 18.3887C59.5628 18.3064 59.4971 18.238 59.4164 18.1914C59.3357 18.1448 59.2433 18.122 59.1501 18.1256C59.0303 18.1227 58.9129 18.1593 58.8162 18.2297C58.7195 18.3 58.6489 18.4002 58.6154 18.5147C58.4932 18.8816 58.4398 19.2677 58.4578 19.6538V20.0317C58.4406 20.4184 58.4969 20.8049 58.6238 21.1708C58.6633 21.2876 58.7391 21.3888 58.8403 21.4597C58.9415 21.5307 59.0628 21.5677 59.1866 21.5655C59.2824 21.5696 59.3773 21.5451 59.459 21.4953C59.5408 21.4454 59.6056 21.3724 59.6454 21.2856C59.7546 21.0304 59.8028 20.7535 59.7861 20.4767H60.9849C60.9911 20.7938 60.9484 21.1101 60.8583 21.4143C60.7868 21.6533 60.6639 21.8739 60.4981 22.0609C60.3437 22.2286 60.1505 22.3564 59.9352 22.4331C59.6985 22.5163 59.4489 22.5571 59.1979 22.5535C58.8955 22.5607 58.5948 22.5064 58.3142 22.394C58.0662 22.2869 57.8522 22.1147 57.6951 21.8957C57.519 21.6431 57.3964 21.3574 57.3349 21.0561C57.2515 20.6566 57.2128 20.2492 57.2195 19.8413C57.2195 18.9084 57.3799 18.2226 57.7007 17.7841C57.8692 17.5644 58.0897 17.3893 58.3425 17.2746C58.5953 17.1599 58.8727 17.1089 59.1501 17.1264Z" fill="#6334FA"/>
<path d="M63.0626 19.3125L64.5232 17.2469H65.798L64.2446 19.3601L65.874 22.4389H64.557L63.4988 20.2893L63.0626 20.8183V22.4389H61.875V15.2988H63.0626V19.3125Z" fill="#6334FA"/>
<path d="M68.1741 17.1265C68.4453 17.1098 68.7163 17.1613 68.9622 17.2762C69.2082 17.3912 69.421 17.5659 69.5812 17.7842C69.8964 18.2236 70.0512 18.9038 70.0512 19.8414V20.1409H67.4001C67.4009 20.3481 67.4179 20.5549 67.4508 20.7595C67.4744 20.9177 67.5218 21.0715 67.5915 21.2157C67.6457 21.3296 67.7304 21.4264 67.8363 21.4956C67.9469 21.5635 68.0751 21.5976 68.205 21.5935C68.3018 21.5955 68.3975 21.5725 68.4828 21.5269C68.5681 21.4813 68.6401 21.4146 68.6919 21.3332C68.8254 21.1146 68.8892 20.8609 68.8748 20.6055H70.0512C70.0577 20.9015 70.011 21.1963 69.9133 21.476C69.8316 21.7052 69.7 21.9136 69.5277 22.0861C69.3617 22.2472 69.1617 22.3696 68.9423 22.4444C68.7049 22.5241 68.4557 22.5639 68.205 22.562C67.9162 22.5808 67.6271 22.5306 67.3618 22.4157C67.0965 22.3008 66.8626 22.1245 66.6797 21.9014C66.3307 21.4611 66.1562 20.7744 66.1562 19.8414C66.1562 18.9084 66.3298 18.2227 66.6769 17.7842C66.8553 17.5634 67.0843 17.3883 67.3449 17.2739C67.6054 17.1594 67.8898 17.1089 68.1741 17.1265ZM68.1741 18.0949C68.06 18.0863 67.9459 18.1112 67.8458 18.1664C67.7458 18.2216 67.6642 18.3047 67.6112 18.4056C67.4814 18.6797 67.4132 18.9786 67.4114 19.2816H68.7988C68.8143 18.9817 68.7614 18.6822 68.644 18.4056C68.6058 18.313 68.5407 18.234 68.4569 18.1786C68.3731 18.1233 68.2746 18.0941 68.1741 18.0949Z" fill="#6334FA"/>
<path d="M73.0341 17.1253C73.1019 17.1254 73.1696 17.13 73.2367 17.1393L73.3971 17.17C73.4409 17.1799 73.4841 17.1921 73.5266 17.2064V18.3512H73.1016C72.9757 18.3511 72.8504 18.37 72.7302 18.4072C72.6126 18.4466 72.5064 18.5139 72.4206 18.6031C72.3235 18.7085 72.2506 18.8336 72.2067 18.9697C72.1478 19.1562 72.1202 19.351 72.1251 19.5463V22.4404H70.9375V17.2456H71.9281L72.0688 18.0041H72.1251C72.1615 17.8946 72.2037 17.7872 72.2517 17.6822C72.2983 17.5804 72.36 17.486 72.4347 17.4024C72.5066 17.3217 72.5924 17.2544 72.688 17.2036C72.7949 17.149 72.9139 17.122 73.0341 17.1253Z" fill="#6334FA"/>
<path d="M16.518 23.5629C15.9513 23.5596 15.4022 23.3674 14.9583 23.0171C14.5145 22.6667 14.2015 22.1785 14.0696 21.6304C13.9377 21.0824 13.9943 20.5061 14.2306 19.9939C14.4668 19.4816 14.8689 19.0629 15.3726 18.8047C15.3919 18.0974 15.6391 17.415 16.0778 16.8579C16.5166 16.3009 17.1235 15.8987 17.8094 15.7106C18.4953 15.5225 19.2237 15.5585 19.8875 15.8132C20.5513 16.0679 21.1152 16.5279 21.4963 17.1254C21.7934 17.0098 22.1089 16.9482 22.4278 16.9435C22.9887 16.942 23.5352 17.1193 23.9875 17.4492C24.4397 17.7791 24.7738 18.2443 24.9409 18.7768C25.3647 18.9858 25.7211 19.3088 25.9698 19.709C26.2185 20.1092 26.3495 20.5706 26.3481 21.0411C26.3491 21.6464 26.131 22.2319 25.7336 22.6903C25.3362 23.1488 24.7861 23.4496 24.1839 23.5377V23.5629H16.518Z" fill="#6334FF"/>
<path d="M24.617 19.038C24.5366 18.7023 24.3798 18.3894 24.1587 18.1234C23.9375 17.8575 23.658 17.6455 23.3416 17.5038C23.0252 17.3622 22.6803 17.2946 22.3335 17.3063C21.9867 17.318 21.6473 17.4087 21.3412 17.5714C21.0433 16.9785 20.553 16.503 19.9496 16.2217C19.3462 15.9404 18.665 15.8698 18.0162 16.0213C17.3675 16.1728 16.7891 16.5376 16.3747 17.0566C15.9602 17.5756 15.7339 18.2185 15.7325 18.8813C15.7325 18.9289 15.7325 18.9792 15.7325 19.0268C15.2597 19.2087 14.8658 19.5493 14.6189 19.9896C14.372 20.4299 14.2877 20.9422 14.3805 21.4378C14.4734 21.9335 14.7375 22.3812 15.1273 22.7035C15.5171 23.0258 16.0079 23.2024 16.5148 23.2028H23.8149C24.3185 23.2004 24.8055 23.0242 25.1929 22.7042C25.5802 22.3842 25.8438 21.9404 25.9385 21.4485C26.0332 20.9567 25.9532 20.4474 25.7122 20.0077C25.4711 19.568 25.084 19.2253 24.617 19.038Z" fill="white"/>
<path opacity="0.6" d="M23.875 15.6434H29.723L23.875 11V15.6434Z" fill="black"/>
<path d="M23.875 15.6434H29.723L23.875 11V15.6434Z" fill="#6334FF"/>
<path d="M19.5844 20.1844C19.8813 20.1844 20.1219 19.9451 20.1219 19.6498C20.1219 19.3546 19.8813 19.1152 19.5844 19.1152C19.2875 19.1152 19.0469 19.3546 19.0469 19.6498C19.0469 19.9451 19.2875 20.1844 19.5844 20.1844Z" fill="#6334FA"/>
<path d="M19.7379 19.8457H19.4255L19.0625 21.3375H20.1038L19.7379 19.8457Z" fill="#6334FA"/>
</g>
</svg>
