<svg width="20" height="20" viewBox="0 0 20 20" fill="none" xmlns="http://www.w3.org/2000/svg">
<path fill-rule="evenodd" clip-rule="evenodd" d="M9.02348 18.5952C7.95643 18.0558 6.99441 17.371 6.15151 16.5211C6.13364 16.5032 6.11011 16.4907 6.08921 16.4755C6.069 16.4501 6.05059 16.4231 6.02838 16.3997C5.41276 15.7511 4.86461 15.0498 4.4146 14.2768C4.15994 13.8394 3.93301 13.3858 3.69357 12.9394C3.42329 12.1955 3.13132 11.4585 2.88808 10.7059C2.57385 9.73364 2.40018 8.72787 2.26928 7.71556C2.13658 6.68933 2.06769 5.65861 2.07941 4.62388C2.08405 4.21479 2.11368 3.80569 2.142 3.39733C2.15919 3.1497 2.24331 3.07734 2.49783 3.04849C3.5204 2.93253 4.52163 2.71795 5.49927 2.39556C7.05417 1.88287 8.50218 1.16169 9.81428 0.177156C9.97437 0.0570489 10.1176 0.0673508 10.2748 0.185065C12.0032 1.47904 13.94 2.3154 16.0369 2.79626C16.3405 2.86588 16.6484 2.91642 16.9543 2.97579C16.9669 3.11723 16.9935 3.25906 16.9898 3.40011C16.9688 4.18432 16.9494 4.96873 16.9113 5.75225C16.8887 6.21657 16.8654 6.68508 16.7843 7.14149C16.6275 8.02451 16.4517 8.90564 16.2432 9.77783C15.9936 10.8217 15.6062 11.8222 15.127 12.781C14.639 13.7573 14.0576 14.6755 13.3235 15.4936C12.7015 16.187 12.0308 16.8216 11.2679 17.3576C10.5644 17.8516 9.80476 18.2429 9.02348 18.5952ZM3.89092 5.96073C3.92129 6.51234 3.91084 7.1076 3.99609 7.68885C4.12811 8.58911 4.28742 9.48918 4.50473 10.3722C4.77131 11.4554 5.22689 12.4702 5.82898 13.413C6.3034 14.1559 6.87865 14.8113 7.5489 15.387C8.2609 15.9986 9.06371 16.4526 9.92408 16.8122C9.99317 16.8411 10.0959 16.8356 10.1669 16.8067C11.0934 16.4293 11.9458 15.9256 12.6902 15.2555C13.4985 14.5278 14.1548 13.6765 14.6581 12.7116C15.1649 11.7401 15.5282 10.7159 15.7653 9.64551C15.9924 8.61973 16.123 7.5809 16.1652 6.53334C16.1873 5.98299 16.1483 5.42992 16.1314 4.87826C16.1245 4.65171 16.0348 4.57404 15.8151 4.53161C15.1746 4.40794 14.5267 4.30961 13.8984 4.13931C12.5964 3.78626 11.3992 3.19955 10.31 2.39986C10.0872 2.2364 9.99102 2.23435 9.77258 2.39635C8.89556 3.04712 7.93602 3.54302 6.91028 3.91389C6.05406 4.22343 5.17406 4.43035 4.26945 4.5339C4.04354 4.55978 3.95932 4.64825 3.94643 4.87264C3.92632 5.22212 3.9105 5.5719 3.89092 5.96073Z" fill="#F4B93D"/>
<path fill-rule="evenodd" clip-rule="evenodd" d="M9.02344 18.594C9.80472 18.2417 10.5643 17.8505 11.2677 17.3564C12.0307 16.8205 12.7013 16.1858 13.3234 15.4925C14.0574 14.6743 14.6389 13.7561 15.1269 12.7798C15.6061 11.821 15.9935 10.8205 16.2431 9.77665C16.4516 8.90446 16.6274 8.02338 16.7842 7.14031C16.8652 6.68395 16.8885 6.21544 16.9111 5.75107C16.9493 4.9676 16.9687 4.18315 16.9896 3.39894C16.9934 3.25789 16.9668 3.1161 16.9542 2.97461C17.2048 3.00307 17.4603 3.01128 17.7036 3.07026C17.7961 3.09271 17.9116 3.22346 17.9276 3.31965C17.9754 3.60644 17.991 3.90031 17.998 4.19193C18.0305 5.53796 17.9431 6.87568 17.7431 8.20843C17.5017 9.81859 17.0809 11.3743 16.4138 12.8612C16.4033 12.8846 16.3991 12.9109 16.392 12.9359C16.1001 13.4704 15.8255 14.0154 15.5119 14.5369C15.0861 15.2449 14.556 15.876 13.9902 16.4768C13.4787 16.9064 12.9838 17.3581 12.4513 17.7599C11.7598 18.2818 10.9856 18.6672 10.1815 18.9879C10.1 19.0205 9.98346 19.0226 9.90305 18.99C9.60537 18.8693 9.31599 18.7278 9.02344 18.594Z" fill="#F4B93D"/>
<path fill-rule="evenodd" clip-rule="evenodd" d="M3.89062 5.96017C3.9102 5.57139 3.92602 5.22156 3.94609 4.87199C3.95898 4.64759 4.04315 4.55912 4.26911 4.53325C5.17372 4.42969 6.05372 4.22282 6.90994 3.91323C7.93573 3.54241 8.89521 3.04651 9.77224 2.39569C9.99067 2.23369 10.0869 2.23574 10.3096 2.3992C11.3989 3.19889 12.5961 3.78561 13.8981 4.13865C14.5263 4.30895 15.1743 4.40728 15.8147 4.53095C16.0345 4.57338 16.1242 4.65101 16.1311 4.8776C16.148 5.42926 16.1871 5.98229 16.1648 6.53268C16.1227 7.58024 15.9921 8.61907 15.7649 9.64486C15.5279 10.7153 15.1646 11.7394 14.6578 12.7109C14.1545 13.6758 13.4982 14.5272 12.6899 15.2549C11.9455 15.925 11.093 16.4287 10.1666 16.806C10.0955 16.8349 9.99282 16.8404 9.92374 16.8115C9.06336 16.452 8.2605 15.998 7.54856 15.3864C6.87825 14.8106 6.30306 14.1552 5.82864 13.4123C5.22654 12.4695 4.77097 11.4547 4.50439 10.3716C4.28707 9.48852 4.12776 8.58846 3.99574 7.68819C3.91055 7.10704 3.92099 6.51178 3.89062 5.96017ZM9.174 10.1841C9.12024 10.114 9.08563 10.0573 9.04012 10.0113C8.6966 9.66492 8.3499 9.32169 8.00628 8.97529C7.77773 8.74484 7.50769 8.64436 7.19043 8.73078C6.60181 8.89116 6.41946 9.60106 6.85789 10.0523C7.40633 10.6167 7.96868 11.1677 8.52537 11.7241C8.98354 12.182 9.39996 12.1835 9.85509 11.7285C10.9822 10.6018 12.109 9.4748 13.2356 8.34756C13.2907 8.29239 13.3468 8.23727 13.3946 8.17599C13.7345 7.74053 13.535 7.10514 13.0061 6.94592C12.6725 6.84549 12.3983 6.95359 12.1585 7.19478C11.1769 8.18156 10.192 9.16506 9.174 10.1841Z" fill="#FEDA57"/>
<path fill-rule="evenodd" clip-rule="evenodd" d="M9.17596 10.1837C10.1939 9.16474 11.1789 8.18124 12.1605 7.19446C12.4003 6.95332 12.6744 6.84517 13.0081 6.9456C13.537 7.10482 13.7365 7.74021 13.3966 8.17567C13.3488 8.23694 13.2927 8.29207 13.2376 8.34724C12.111 9.47448 10.9842 10.6014 9.85706 11.7281C9.40192 12.1831 8.9855 12.1817 8.52734 11.7237C7.97065 11.1674 7.4083 10.6164 6.85986 10.052C6.42142 9.60069 6.60378 8.89084 7.1924 8.73045C7.50965 8.64399 7.7797 8.74452 8.00824 8.97496C8.35187 9.32137 8.69856 9.6646 9.04209 10.011C9.08759 10.057 9.12221 10.1137 9.17596 10.1837Z" fill="#01B66B"/>
</svg>
