<svg width="64" height="64" viewBox="0 0 64 64" fill="none" xmlns="http://www.w3.org/2000/svg">
<circle cx="32" cy="32" r="32" fill="#F3FAF6"/>
<path d="M31.6641 44C31.3807 44 31.1432 43.9036 30.9516 43.7108C30.7599 43.518 30.6641 43.2791 30.6641 42.9942C30.6641 42.7092 30.7599 42.4722 30.9516 42.2833C31.1432 42.0944 31.3807 42 31.6641 42H41.9974V31.8667C41.9974 30.5778 41.7196 29.3389 41.1641 28.15C40.6085 26.9611 39.8641 25.9111 38.9307 25C37.9974 24.0889 36.9307 23.3611 35.7307 22.8167C34.5307 22.2722 33.2863 22 31.9974 22C30.7085 22 29.4641 22.2722 28.2641 22.8167C27.0641 23.3611 25.9974 24.0889 25.0641 25C24.1307 25.9111 23.3863 26.9611 22.8307 28.15C22.2752 29.3389 21.9974 30.5778 21.9974 31.8667V39.3333C21.9974 39.5222 21.9335 39.6806 21.8057 39.8083C21.678 39.9361 21.5196 40 21.3307 40C20.5974 40 19.9696 39.7389 19.4474 39.2167C18.9252 38.6944 18.6641 38.0667 18.6641 37.3333V34.6667C18.6641 34.1556 18.7863 33.7056 19.0307 33.3167C19.2752 32.9278 19.5974 32.6111 19.9974 32.3667L20.0974 30.6C20.2974 28.9778 20.7585 27.5111 21.4807 26.2C22.203 24.8889 23.103 23.7778 24.1807 22.8667C25.2585 21.9556 26.4696 21.25 27.8141 20.75C29.1585 20.25 30.553 20 31.9974 20C33.4641 20 34.8696 20.25 36.2141 20.75C37.5585 21.25 38.7641 21.9611 39.8307 22.8833C40.8974 23.8056 41.7918 24.9167 42.5141 26.2167C43.2363 27.5167 43.6974 28.9667 43.8974 30.5667L43.9974 32.3C44.3974 32.5 44.7196 32.7944 44.9641 33.1833C45.2085 33.5722 45.3307 34 45.3307 34.4667V37.5333C45.3307 38.0222 45.2085 38.4556 44.9641 38.8333C44.7196 39.2111 44.3974 39.5 43.9974 39.7V42C43.9974 42.55 43.8016 43.0208 43.4099 43.4125C43.0182 43.8042 42.5474 44 41.9974 44H31.6641Z" fill="#109648"/>
</svg>
