<svg width="14" height="14" viewBox="0 0 14 14" fill="none" xmlns="http://www.w3.org/2000/svg">
<path d="M6.52969 11.271L2.55826 7.29961C2.51064 7.25199 2.47731 7.20437 2.45826 7.15675C2.43921 7.10913 2.42969 7.05675 2.42969 6.99961C2.42969 6.94247 2.43921 6.89009 2.45826 6.84247C2.47731 6.79485 2.51064 6.74723 2.55826 6.69961L6.54397 2.71389C6.62016 2.6377 6.7154 2.59961 6.82969 2.59961C6.94397 2.59961 7.04397 2.64247 7.12969 2.72818C7.2154 2.8139 7.25826 2.9139 7.25826 3.02818C7.25826 3.14247 7.2154 3.24247 7.12969 3.32818L3.88683 6.57104H10.9725C11.0964 6.57104 11.1987 6.61151 11.2797 6.69247C11.3606 6.77342 11.4011 6.8758 11.4011 6.99961C11.4011 7.12342 11.3606 7.2258 11.2797 7.30675C11.1987 7.3877 11.0964 7.42818 10.9725 7.42818H3.88683L7.14397 10.6853C7.22016 10.7615 7.25826 10.8568 7.25826 10.971C7.25826 11.0853 7.2154 11.1853 7.12969 11.271C7.04397 11.3568 6.94397 11.3996 6.82969 11.3996C6.7154 11.3996 6.6154 11.3568 6.52969 11.271Z"
      fill="#1D2939"/>
</svg>
