<svg width="16" height="16" viewBox="0 0 16 16" fill="none" xmlns="http://www.w3.org/2000/svg">
<path fill-rule="evenodd" clip-rule="evenodd" d="M14.6386 3.33994C15.2425 2.30197 14.4937 1 13.2929 1V1L8.01865 10.1107L6.05391 6.77759C5.20206 5.33245 3.64958 4.44546 1.97207 4.44546V4.44546L7.98461 14.777L14.6386 3.33994Z" fill="#1434CB"/>
<path fill-rule="evenodd" clip-rule="evenodd" d="M7.1521 8.39541L10.7268 2.37754C11.2341 1.52349 12.1539 1 13.1473 1V1L8.01818 9.86463L7.1521 8.39541Z" fill="#A1AEEA"/>
<path fill-rule="evenodd" clip-rule="evenodd" d="M7.82104 14.7768L1.80776 4.44629V4.44629C1.00822 4.44629 0.511427 5.31517 0.917001 6.00421L5.19783 13.277C5.74483 14.2063 6.7427 14.7768 7.82104 14.7768V14.7768Z" fill="#A1AEEA"/>
</svg>
