<svg width="121" height="115" viewBox="0 0 121 115" fill="none" xmlns="http://www.w3.org/2000/svg">
<g opacity="0.05">
<path fill-rule="evenodd" clip-rule="evenodd" d="M134.564 7.9981C136.657 4.45132 134.065 0 129.907 0H114.922L67.1723 81.2743L41.1731 37.6081C39.2368 34.3561 35.701 32.359 31.8796 32.359H13.6862L66.866 122.715L134.564 7.9981Z" fill="#1434CB"/>
<path fill-rule="evenodd" clip-rule="evenodd" d="M59.3828 66.0404L96.3228 5.17239C98.27 1.9638 101.781 0 105.57 0H113.88L67.1767 79.3586L59.3828 66.0404Z" fill="#A1AEEA"/>
<path fill-rule="evenodd" clip-rule="evenodd" d="M65.4062 122.714L12.2385 32.4844H5.39435C1.22569 32.4844 -1.36497 36.9555 0.748726 40.5022L46.6184 117.468C48.5553 120.718 52.0898 122.714 55.9097 122.714H65.4062Z" fill="#A1AEEA"/>
</g>
</svg>
