<svg width="167" height="48" viewBox="0 0 167 48" fill="none" xmlns="http://www.w3.org/2000/svg">
<path d="M160 48H6.15385C2.77077 48 0 45.2985 0 42V6C0 2.7015 2.77077 -1.90735e-06 6.15385 -1.90735e-06H160C163.383 -1.90735e-06 166.154 2.7015 166.154 6V42C166.154 45.2985 163.383 48 160 48Z" fill="black"/>
<path d="M160 0.961497C162.849 0.961497 165.168 3.222 165.168 6V42C165.168 44.778 162.849 47.0385 160 47.0385H6.15385C3.30462 47.0385 0.986154 44.778 0.986154 42V6C0.986154 3.222 3.30462 0.961497 6.15385 0.961497H160ZM160 -1.90735e-06H6.15385C2.77077 -1.90735e-06 0 2.7015 0 6V42C0 45.2985 2.77077 48 6.15385 48H160C163.383 48 166.154 45.2985 166.154 42V6C166.154 2.7015 163.383 -1.90735e-06 160 -1.90735e-06Z" fill="#A6A6A6"/>
<path d="M12.8442 9.04701C12.4827 9.41601 12.2734 9.99051 12.2734 10.7345V37.2725C12.2734 38.0165 12.4827 38.591 12.8442 38.96L12.9334 39.041L28.1857 24.176V23.825L12.9334 8.96001L12.8442 9.04701Z" fill="url(#paint0_linear_5676_25830)"/>
<path d="M33.266 29.1328L28.1875 24.1753V23.8243L33.2721 18.8668L33.386 18.9313L39.4075 22.2718C41.126 23.2198 41.126 24.7798 39.4075 25.7338L33.386 29.0683L33.266 29.1328Z" fill="url(#paint1_linear_5676_25830)"/>
<path d="M33.3837 29.069L28.1853 24.0005L12.8438 38.96C13.4145 39.545 14.3453 39.6155 15.4037 39.0305L33.3837 29.069Z" fill="url(#paint2_linear_5676_25830)"/>
<path d="M33.3837 18.9315L15.4037 8.97C14.3453 8.391 13.4145 8.4615 12.8438 9.0465L28.1853 24L33.3837 18.9315Z" fill="url(#paint3_linear_5676_25830)"/>
<path d="M58.363 12.2928C58.363 13.2948 58.0554 14.0973 57.4492 14.6958C56.7523 15.4053 55.8446 15.7623 54.7323 15.7623C53.6692 15.7623 52.7615 15.3993 52.0169 14.6838C51.2707 13.9578 50.8984 13.0668 50.8984 12.0003C50.8984 10.9338 51.2707 10.0428 52.0169 9.32278C52.7615 8.60128 53.6692 8.23828 54.7323 8.23828C55.2615 8.23828 55.7661 8.34478 56.2477 8.54278C56.7277 8.74228 57.1184 9.01228 57.4015 9.34528L56.7584 9.97828C56.2646 9.40978 55.5923 9.12928 54.7323 9.12928C53.9569 9.12928 53.2846 9.39328 52.7138 9.92578C52.1492 10.4598 51.8661 11.1513 51.8661 12.0003C51.8661 12.8493 52.1492 13.5468 52.7138 14.0808C53.2846 14.6073 53.9569 14.8773 54.7323 14.8773C55.5554 14.8773 56.2477 14.6073 56.7938 14.0748C57.1538 13.7223 57.3584 13.2363 57.4123 12.6153H54.7323V11.7483H58.3077C58.3507 11.9358 58.363 12.1173 58.363 12.2928Z" fill="white" stroke="white" stroke-width="0.16" stroke-miterlimit="10"/>
<path d="M64.0358 9.28584H60.6773V11.5658H63.705V12.4328H60.6773V14.7128H64.0358V15.5963H59.7266V8.40234H64.0358V9.28584Z" fill="white" stroke="white" stroke-width="0.16" stroke-miterlimit="10"/>
<path d="M68.042 15.5963H67.0912V9.28584H65.0312V8.40234H70.1036V9.28584H68.042V15.5963Z" fill="white" stroke="white" stroke-width="0.16" stroke-miterlimit="10"/>
<path d="M73.7734 15.5963V8.40234H74.7227V15.5963H73.7734Z" fill="white" stroke="white" stroke-width="0.16" stroke-miterlimit="10"/>
<path d="M78.9248 15.5963H77.9817V9.28584H75.9141V8.40234H80.9925V9.28584H78.9248V15.5963Z" fill="white" stroke="white" stroke-width="0.16" stroke-miterlimit="10"/>
<path d="M90.5968 14.6718C89.8691 15.3993 88.9676 15.7623 87.8922 15.7623C86.8107 15.7623 85.9091 15.3993 85.1814 14.6718C84.4553 13.9458 84.0938 13.0548 84.0938 12.0003C84.0938 10.9458 84.4553 10.0548 85.1814 9.32878C85.9091 8.60128 86.8107 8.23828 87.8922 8.23828C88.9614 8.23828 89.863 8.60128 90.5907 9.33478C91.323 10.0668 91.6845 10.9518 91.6845 12.0003C91.6845 13.0548 91.323 13.9458 90.5968 14.6718ZM85.8845 14.0688C86.4322 14.6073 87.0984 14.8773 87.8922 14.8773C88.6799 14.8773 89.3522 14.6073 89.8938 14.0688C90.4399 13.5303 90.7168 12.8388 90.7168 12.0003C90.7168 11.1618 90.4399 10.4703 89.8938 9.93178C89.3522 9.39328 88.6799 9.12328 87.8922 9.12328C87.0984 9.12328 86.4322 9.39328 85.8845 9.93178C85.3384 10.4703 85.0614 11.1618 85.0614 12.0003C85.0614 12.8388 85.3384 13.5303 85.8845 14.0688Z" fill="white" stroke="white" stroke-width="0.16" stroke-miterlimit="10"/>
<path d="M93.0234 15.5963V8.40234H94.1773L97.765 13.9973H97.8065L97.765 12.6143V8.40234H98.7142V15.5963H97.7234L93.9665 9.72534H93.925L93.9665 11.1143V15.5963H93.0234Z" fill="white" stroke="white" stroke-width="0.16" stroke-miterlimit="10"/>
<path d="M83.8555 26.1026C80.9647 26.1026 78.6032 28.2476 78.6032 31.2071C78.6032 34.1426 80.9647 36.3101 83.8555 36.3101C86.7524 36.3101 89.114 34.1426 89.114 31.2071C89.114 28.2476 86.7524 26.1026 83.8555 26.1026ZM83.8555 34.3001C82.2693 34.3001 80.9047 33.0236 80.9047 31.2071C80.9047 29.3666 82.2693 28.1126 83.8555 28.1126C85.4416 28.1126 86.8124 29.3666 86.8124 31.2071C86.8124 33.0236 85.4416 34.3001 83.8555 34.3001ZM72.3955 26.1026C69.4986 26.1026 67.1432 28.2476 67.1432 31.2071C67.1432 34.1426 69.4986 36.3101 72.3955 36.3101C75.2909 36.3101 77.6478 34.1426 77.6478 31.2071C77.6478 28.2476 75.2909 26.1026 72.3955 26.1026ZM72.3955 34.3001C70.8078 34.3001 69.4386 33.0236 69.4386 31.2071C69.4386 29.3666 70.8078 28.1126 72.3955 28.1126C73.9816 28.1126 75.3463 29.3666 75.3463 31.2071C75.3463 33.0236 73.9816 34.3001 72.3955 34.3001ZM58.7586 27.6671V29.8361H64.0709C63.9155 31.0481 63.5001 31.9391 62.8632 32.5601C62.0878 33.3101 60.8801 34.1426 58.7586 34.1426C55.4893 34.1426 52.9293 31.5701 52.9293 28.3826C52.9293 25.1951 55.4893 22.6226 58.7586 22.6226C60.5263 22.6226 61.8124 23.2961 62.7617 24.1691L64.3293 22.6406C63.0017 21.4046 61.2355 20.4551 58.7586 20.4551C54.2755 20.4551 50.5078 24.0116 50.5078 28.3826C50.5078 32.7536 54.2755 36.3101 58.7586 36.3101C61.1817 36.3101 63.0017 35.5361 64.4324 34.0841C65.8986 32.6546 66.3555 30.6446 66.3555 29.0216C66.3555 28.5176 66.3124 28.0541 66.2355 27.6671H58.7586ZM114.522 29.3486C114.089 28.2071 112.755 26.1026 110.039 26.1026C107.346 26.1026 105.105 28.1711 105.105 31.2071C105.105 34.0661 107.323 36.3101 110.297 36.3101C112.702 36.3101 114.089 34.8806 114.66 34.0481L112.875 32.8886C112.28 33.7376 111.469 34.3001 110.297 34.3001C109.132 34.3001 108.297 33.7796 107.762 32.7536L114.763 29.9291L114.522 29.3486ZM107.383 31.0481C107.323 29.0801 108.951 28.0721 110.117 28.0721C111.031 28.0721 111.806 28.5176 112.065 29.1551L107.383 31.0481ZM101.692 35.9996H103.994V20.9996H101.692V35.9996ZM97.9232 27.2396H97.8463C97.3293 26.6426 96.3432 26.1026 95.094 26.1026C92.4724 26.1026 90.0755 28.3466 90.0755 31.2236C90.0755 34.0841 92.4724 36.3101 95.094 36.3101C96.3432 36.3101 97.3293 35.7656 97.8463 35.1506H97.9232V35.8826C97.9232 37.8341 96.854 38.8826 95.1293 38.8826C93.7232 38.8826 92.8509 37.8926 92.4909 37.0601L90.4893 37.8746C91.0663 39.2276 92.594 40.8926 95.1293 40.8926C97.8278 40.8926 100.105 39.3446 100.105 35.5781V26.4131H97.9232V27.2396ZM95.2909 34.3001C93.7047 34.3001 92.377 33.0056 92.377 31.2236C92.377 29.4251 93.7047 28.1126 95.2909 28.1126C96.854 28.1126 98.0863 29.4251 98.0863 31.2236C98.0863 33.0056 96.854 34.3001 95.2909 34.3001ZM125.297 20.9996H119.792V35.9996H122.088V30.3161H125.297C127.846 30.3161 130.346 28.5176 130.346 25.6571C130.346 22.7981 127.84 20.9996 125.297 20.9996ZM125.357 28.2296H122.088V23.0861H125.357C127.071 23.0861 128.049 24.4736 128.049 25.6571C128.049 26.8181 127.071 28.2296 125.357 28.2296ZM139.546 26.0741C137.888 26.0741 136.163 26.7881 135.454 28.3706L137.491 29.2031C137.929 28.3706 138.735 28.1006 139.588 28.1006C140.779 28.1006 141.986 28.7981 142.005 30.0296V30.1871C141.589 29.9531 140.7 29.6066 139.606 29.6066C137.412 29.6066 135.177 30.7841 135.177 32.9816C135.177 34.9916 136.974 36.2861 138.994 36.2861C140.539 36.2861 141.391 35.6066 141.926 34.8161H142.005V35.9756H144.222V30.2216C144.222 27.5621 142.185 26.0741 139.546 26.0741ZM139.269 34.2941C138.519 34.2941 137.472 33.9311 137.472 33.0236C137.472 31.8626 138.777 31.4171 139.906 31.4171C140.917 31.4171 141.391 31.6346 142.005 31.9211C141.825 33.3101 140.599 34.2941 139.269 34.2941ZM152.299 26.4026L149.66 32.9051H149.582L146.854 26.4026H144.379L148.477 35.4896L146.139 40.5461H148.537L154.852 26.4026H152.299ZM131.608 35.9996H133.909V20.9996H131.608V35.9996Z" fill="white"/>
<defs>
<linearGradient id="paint0_linear_5676_25830" x1="26.8315" y1="37.5489" x2="6.69909" y2="16.9002" gradientUnits="userSpaceOnUse">
<stop stop-color="#00A0FF"/>
<stop offset="0.0066" stop-color="#00A1FF"/>
<stop offset="0.2601" stop-color="#00BEFF"/>
<stop offset="0.5122" stop-color="#00D2FF"/>
<stop offset="0.7604" stop-color="#00DFFF"/>
<stop offset="1" stop-color="#00E3FF"/>
</linearGradient>
<linearGradient id="paint1_linear_5676_25830" x1="41.6452" y1="23.9981" x2="11.8644" y2="23.9981" gradientUnits="userSpaceOnUse">
<stop stop-color="#FFE000"/>
<stop offset="0.4087" stop-color="#FFBD00"/>
<stop offset="0.7754" stop-color="#FFA500"/>
<stop offset="1" stop-color="#FF9C00"/>
</linearGradient>
<linearGradient id="paint2_linear_5676_25830" x1="30.557" y1="21.2451" x2="3.25577" y2="-6.7561" gradientUnits="userSpaceOnUse">
<stop stop-color="#FF3A44"/>
<stop offset="1" stop-color="#C31162"/>
</linearGradient>
<linearGradient id="paint3_linear_5676_25830" x1="8.98197" y1="47.7886" x2="21.1732" y2="35.2849" gradientUnits="userSpaceOnUse">
<stop stop-color="#32A071"/>
<stop offset="0.0685" stop-color="#2DA771"/>
<stop offset="0.4762" stop-color="#15CF74"/>
<stop offset="0.8009" stop-color="#06E775"/>
<stop offset="1" stop-color="#00F076"/>
</linearGradient>
</defs>
</svg>
