<svg width="644" height="535" viewBox="0 0 644 535" fill="none" xmlns="http://www.w3.org/2000/svg">
<g filter="url(#filter0_d_6237_23028)">
<rect x="50" y="20" width="544" height="440" rx="24" fill="#F9FAFB"/>
</g>
<mask id="mask0_6237_23028" style="mask-type:alpha" maskUnits="userSpaceOnUse" x="50" y="20" width="544" height="440">
<rect x="50" y="20" width="544" height="440" rx="24" fill="#F9FAFB"/>
</mask>
<g mask="url(#mask0_6237_23028)">
<path d="M594 -47H50V497H594V-47Z" fill="#F9FAFB"/>
<path opacity="0.3" d="M594 407.344L332.227 425.731C332.227 425.514 332.118 425.296 332.01 424.97L594 388.195V368.611L331.792 424.317C331.792 424.208 331.683 424.099 331.683 423.99L594 348.592V327.594L331.466 423.446C331.357 423.229 331.248 423.011 331.139 422.794L594 305.29V281.789L330.922 422.358C330.813 422.141 330.704 421.923 330.486 421.814L594 256.547V228.912L330.051 421.27C329.834 421.053 329.725 420.835 329.507 420.726L593.891 198.339V163.85L328.963 420.074C328.746 419.965 328.637 419.747 328.419 419.638L594 124.355V78.3328L327.658 419.094C327.44 418.986 327.331 418.877 327.114 418.768L594 23.1712V-42H592.477L326.461 418.442C326.243 418.333 326.134 418.333 325.917 418.224L550.371 -42H511.094L325.373 418.006C325.264 418.006 325.046 417.898 324.938 417.898L473.885 -42H438.416L324.502 417.789C324.394 417.789 324.176 417.68 323.958 417.68L404.144 -42H370.742L323.306 417.571C322.979 417.571 322.762 417.571 322.435 417.462L337.994 -42H305.462L321.456 417.571C321.238 417.571 320.912 417.571 320.694 417.68L272.605 -42H239.312L320.042 417.68C319.933 417.68 319.715 417.789 319.606 417.789L205.04 -42H169.571L319.171 418.006C319.062 418.006 318.954 418.115 318.736 418.115L132.253 -42H93.0848L318.192 418.333C317.974 418.442 317.866 418.55 317.648 418.55L50.9792 -42H50V23.9328L316.995 418.877C316.778 418.986 316.56 419.094 316.342 419.203L50 78.8768V124.79L315.798 419.747C315.581 419.856 315.363 420.074 315.254 420.291L50 164.176V198.557L314.602 420.835C314.384 421.053 314.275 421.162 314.058 421.379L50 229.13V256.765L313.622 421.814C313.514 422.032 313.405 422.141 313.296 422.358L50 282.224V305.725L312.97 423.011C312.861 423.12 312.861 423.338 312.752 423.446L50 327.811V348.81L312.534 423.882C312.426 423.99 312.426 424.208 312.317 424.426L50 368.938V388.522L312.208 424.97C312.099 425.187 312.099 425.514 311.99 425.731L50 407.67V427.254L311.882 426.384C311.773 426.819 311.773 427.254 311.773 427.798L50 446.512V465.77L311.882 428.669C311.882 428.886 311.882 429.104 311.99 429.322L50 485.245V502H61.968L312.099 429.757C312.099 429.974 312.208 430.083 312.208 430.301L116.694 502H153.795L312.317 430.954C312.426 431.171 312.426 431.389 312.534 431.498L180.886 502H201.776L312.861 432.15C312.97 432.368 313.078 432.586 313.187 432.912L218.531 502H232.458L313.622 433.674C313.84 433.891 313.949 434.109 314.166 434.326L244.317 502H254.653L314.819 435.088C315.037 435.306 315.254 435.523 315.472 435.632L263.683 502H271.734L316.125 436.176C316.342 436.285 316.56 436.502 316.778 436.611L279.024 502H285.661L317.322 436.938C317.539 437.046 317.648 437.155 317.866 437.264L291.862 502H297.629L318.41 437.482C318.627 437.59 318.845 437.59 318.954 437.699L303.178 502H308.509L319.606 437.808C319.824 437.917 320.15 437.917 320.477 438.026L313.949 502H319.28L321.347 438.134C321.565 438.134 321.782 438.134 322.109 438.134C322.218 438.134 322.435 438.134 322.544 438.134L324.829 502H330.378L323.632 438.026C323.85 438.026 324.176 437.917 324.394 437.917L335.709 502H341.149L325.046 437.699C325.264 437.59 325.482 437.59 325.699 437.482L346.698 502H352.355L326.026 437.373C326.243 437.264 326.461 437.155 326.678 437.046L358.557 502H365.302L327.44 436.72C327.658 436.611 327.875 436.502 328.093 436.285L372.701 502H380.861L328.854 435.741C329.072 435.523 329.29 435.306 329.507 435.088L389.891 502H400.227L330.16 434.435C330.378 434.218 330.486 434 330.704 433.782L412.195 502H426.339L331.248 433.021C331.357 432.803 331.466 432.586 331.574 432.368L443.203 502H464.419L331.901 431.606C332.01 431.389 332.01 431.28 332.118 431.062L491.728 502H529.59L332.118 430.41C332.118 430.192 332.227 430.083 332.227 429.866L585.514 502H594V484.266L332.336 429.322C332.336 429.104 332.445 428.886 332.445 428.669L594 464.79V445.533L332.445 427.798C332.445 427.472 332.445 427.146 332.445 426.71L594 426.384V407.344Z" fill="url(#paint0_radial_6237_23028)"/>
</g>
<defs>
<filter id="filter0_d_6237_23028" x="0" y="0" width="644" height="540" filterUnits="userSpaceOnUse" color-interpolation-filters="sRGB">
<feFlood flood-opacity="0" result="BackgroundImageFix"/>
<feColorMatrix in="SourceAlpha" type="matrix" values="0 0 0 0 0 0 0 0 0 0 0 0 0 0 0 0 0 0 127 0" result="hardAlpha"/>
<feMorphology radius="20" operator="erode" in="SourceAlpha" result="effect1_dropShadow_6237_23028"/>
<feOffset dy="30"/>
<feGaussianBlur stdDeviation="35"/>
<feColorMatrix type="matrix" values="0 0 0 0 0 0 0 0 0 0 0 0 0 0 0 0 0 0 0.02 0"/>
<feBlend mode="normal" in2="BackgroundImageFix" result="effect1_dropShadow_6237_23028"/>
<feBlend mode="normal" in="SourceGraphic" in2="effect1_dropShadow_6237_23028" result="shape"/>
</filter>
<radialGradient id="paint0_radial_6237_23028" cx="0" cy="0" r="1" gradientUnits="userSpaceOnUse" gradientTransform="translate(322 230) scale(272)">
<stop stop-color="white" stop-opacity="0.11"/>
<stop offset="0.0001" stop-color="white" stop-opacity="0.2"/>
<stop offset="0.0233216" stop-color="white"/>
<stop offset="0.2338" stop-color="#F9FAFB"/>
<stop offset="0.4409" stop-color="#F9FAFB"/>
<stop offset="0.6409" stop-color="#F1F3F5"/>
<stop offset="0.8309" stop-color="#F1F3F5"/>
<stop offset="1" stop-color="#E4E7EC"/>
</radialGradient>
</defs>
</svg>
