<svg width="32" height="32" viewBox="0 0 32 32" fill="none" xmlns="http://www.w3.org/2000/svg">
<circle cx="16" cy="16" r="16" fill="#F9FAFB"/>
<g clip-path="url(#clip0_5676_26098)">
<path d="M8 10.1335C8 9.61867 8.18019 9.19396 8.54054 8.85935C8.9009 8.52473 9.36937 8.35742 9.94595 8.35742C10.5122 8.35742 10.9704 8.52215 11.3205 8.85163C11.6808 9.1914 11.861 9.63412 11.861 10.1798C11.861 10.674 11.686 11.0859 11.3359 11.4153C10.9756 11.7551 10.5019 11.925 9.91506 11.925H9.89961C9.33333 11.925 8.87517 11.7551 8.5251 11.4153C8.17503 11.0756 8 10.6483 8 10.1335ZM8.20077 23.647V13.3304H11.6293V23.647H8.20077ZM13.529 23.647H16.9575V17.8864C16.9575 17.526 16.9987 17.248 17.0811 17.0524C17.2252 16.7023 17.444 16.4063 17.7375 16.1644C18.0309 15.9224 18.399 15.8014 18.8417 15.8014C19.9949 15.8014 20.5714 16.5788 20.5714 18.1335V23.647H24V17.7319C24 16.2081 23.6396 15.0524 22.9189 14.2648C22.1982 13.4771 21.2458 13.0833 20.0618 13.0833C18.7336 13.0833 17.6988 13.6547 16.9575 14.7976V14.8285H16.9421L16.9575 14.7976V13.3304H13.529C13.5495 13.6599 13.5598 14.6843 13.5598 16.4038C13.5598 18.1232 13.5495 20.5376 13.529 23.647Z" fill="#0A66C2"/>
</g>
<defs>
<clipPath id="clip0_5676_26098">
<rect width="16" height="16" fill="white" transform="translate(8 8)"/>
</clipPath>
</defs>
</svg>
