<svg width="88" height="36" viewBox="0 0 88 36" fill="none" xmlns="http://www.w3.org/2000/svg">
<rect width="88" height="36" rx="4" fill="#F9FAFB"/>
<g style="mix-blend-mode:luminosity">
<path d="M67.8326 20.3008C67.7242 20.7756 67.6816 21.2631 67.706 21.7495C67.706 22.0672 67.6082 22.1472 67.2972 22.145C65.3774 22.1317 63.4555 22.145 61.5357 22.145C61.378 22.145 61.1358 22.2094 61.2069 21.9228C61.258 21.7162 60.9669 21.3451 61.4935 21.334C61.9379 21.334 62.0512 21.1918 62.1245 20.7607C62.1523 20.5911 62.1657 20.4194 62.1645 20.2475C62.1645 18.8669 62.1645 17.4879 62.1645 16.1103C62.166 15.9722 62.1586 15.8341 62.1423 15.697C62.0668 15.1637 61.9646 15.0593 61.418 15.0126C61.238 14.9971 61.1958 14.946 61.1958 14.7704C61.1958 14.1794 61.1802 14.1816 61.7624 14.1816C62.7156 14.1816 63.671 14.1816 64.6242 14.1816C64.8708 14.1816 64.9975 14.2239 64.9552 14.4972C64.9419 14.6004 64.9419 14.705 64.9552 14.8082C64.9664 14.9482 64.9219 14.9971 64.7686 15.0193C64.1354 15.1126 64.0709 15.1748 64.0087 15.8214C63.9754 16.1747 63.9843 16.5324 63.9843 16.8879C63.9843 18.0722 63.9843 19.2565 63.9843 20.443C63.9843 21.1385 64.1642 21.3184 64.8575 21.3473C65.2941 21.357 65.7304 21.3152 66.1573 21.2229C66.3631 21.1904 66.5543 21.0967 66.706 20.954C66.8578 20.8114 66.9631 20.6263 67.0083 20.423C67.0483 20.2808 67.0838 20.1342 67.115 19.9897C67.2194 19.4809 67.2172 19.4787 67.7682 19.5276C67.7882 19.6564 67.7104 19.8031 67.8371 19.9097L67.8326 20.3008Z" fill="#8C2620"/>
<path d="M55.9899 22.1366C55.1922 22.1366 54.5145 22.1366 53.8346 22.1366C53.5991 22.1366 53.4947 22.0788 53.5302 21.8322C53.5413 21.7295 53.5413 21.626 53.5302 21.5233C53.5169 21.3745 53.5747 21.3367 53.7213 21.3234C54.3568 21.2612 54.4723 21.1501 54.4879 20.4679C54.5123 19.4347 54.5056 18.3993 54.499 17.3572C54.5279 16.7719 54.5145 16.1853 54.459 15.6019C54.3901 15.1442 54.279 15.022 53.8191 14.9931C53.5769 14.9776 53.5191 14.9065 53.5258 14.6732C53.5413 14.1555 53.5258 14.1466 54.0613 14.1555C55.3366 14.1799 56.6209 14.0399 57.8874 14.2221C59.8516 14.5021 61.2581 15.6708 61.2847 17.875C61.2981 18.9859 61.087 20.0391 60.396 20.9501C59.8116 21.71 58.9873 21.9811 58.0852 22.0833C57.3453 22.1788 56.6076 22.1188 55.9899 22.1366ZM56.321 17.8838C56.321 18.7015 56.321 19.5169 56.321 20.3279C56.3292 20.4998 56.3462 20.6711 56.3721 20.8412C56.3801 20.9584 56.429 21.069 56.5102 21.1538C56.5914 21.2387 56.6998 21.2924 56.8164 21.3056C57.5875 21.4278 58.4651 21.3056 58.8962 20.3991C59.2193 19.7613 59.4011 19.0614 59.4291 18.347C59.4571 17.6327 59.3306 16.9207 59.0584 16.2596C58.7162 15.4064 58.1274 14.9109 57.1608 14.9665C56.9775 14.9831 56.7931 14.9831 56.6098 14.9665C56.3676 14.9398 56.3232 15.0487 56.3254 15.2642C56.3276 16.1352 56.321 17.0106 56.321 17.8838Z" fill="#8C2620"/>
<path d="M46.0096 19.6894C46.0096 18.3918 46.0096 17.1053 46.0096 15.8188C46.0096 15.2722 45.834 15.0322 45.3252 15.0167C44.9053 15.0011 44.9386 14.7767 44.9675 14.5145C44.9808 14.3812 44.8564 14.1634 45.1475 14.1634C45.9985 14.1634 46.8495 14.1634 47.7005 14.1634C47.8338 14.1634 47.8893 14.2079 47.8804 14.3412C47.8704 14.4328 47.8704 14.5251 47.8804 14.6167C47.916 14.8745 47.8604 14.99 47.5516 15.0078C47.0094 15.0389 46.8428 15.2744 46.8428 15.8965C46.8428 17.8385 46.8428 19.7827 46.8428 21.7246C46.8428 22.0535 46.7606 22.109 46.4362 22.1512C45.6585 22.2512 45.2341 21.9513 44.852 21.2625C43.9276 19.6249 42.9033 18.0429 41.9235 16.4387C41.819 16.2654 41.7324 16.081 41.6591 15.941C41.6591 17.4274 41.6591 18.9495 41.6591 20.4715C41.6591 20.9847 41.8812 21.2114 42.3878 21.2469C42.9389 21.2847 42.6411 21.6802 42.6878 21.9135C42.7522 22.2179 42.4878 22.1179 42.3434 22.1201C41.6057 22.1201 40.8703 22.1201 40.1348 22.1201C39.9126 22.1201 39.8082 22.0668 39.846 21.8335C39.8538 21.776 39.8538 21.7177 39.846 21.6602C39.8126 21.3913 39.846 21.2291 40.2015 21.2158C40.6459 21.198 40.8125 20.9936 40.8147 20.5492C40.8147 18.9628 40.8303 17.3763 40.8147 15.7899C40.8147 15.1522 40.6836 15.0522 40.0415 14.9744C39.9149 14.9589 39.8704 14.9322 39.8593 14.7967C39.806 14.1457 39.8015 14.1479 40.4348 14.1479C41.1258 14.1479 41.8146 14.1479 42.5056 14.1479C42.5776 14.1379 42.6509 14.1503 42.7156 14.1832C42.7804 14.2162 42.8335 14.2682 42.8678 14.3323C43.8499 15.9913 44.8357 17.6474 45.8252 19.3005C45.894 19.4316 45.9451 19.556 46.0096 19.6894Z" fill="#8C2620"/>
<path d="M52.2277 14.5084C52.2521 14.144 52.3965 13.9796 52.7543 14.0262C52.9409 14.0529 52.9765 14.1151 52.9765 14.2818C52.9765 14.8683 52.9765 15.4549 52.9765 16.0415C52.9765 16.1526 53.0342 16.337 52.8254 16.3081C52.6165 16.2793 52.381 16.4659 52.2921 16.1104C52.2295 15.8286 52.1025 15.5652 51.9209 15.3408C51.7393 15.1164 51.5081 14.9372 51.2456 14.8172C51.0598 14.7114 50.851 14.6524 50.6373 14.6455C50.4236 14.6385 50.2114 14.6837 50.0191 14.7772C49.9045 14.831 49.8044 14.9113 49.727 15.0113C49.6496 15.1114 49.5971 15.2285 49.5739 15.3529C49.5507 15.4773 49.5574 15.6054 49.5935 15.7267C49.6295 15.848 49.6939 15.9589 49.7813 16.0504C49.9922 16.263 50.2389 16.4368 50.5101 16.5637C51.207 16.8892 51.872 17.279 52.4965 17.728C52.7498 17.9172 52.96 18.1581 53.1132 18.4346C53.2664 18.7112 53.3592 19.0171 53.3853 19.3322C53.5408 20.7231 52.8365 21.9318 51.6411 22.2696C50.7834 22.5117 49.9835 22.314 49.2125 21.9296C49.0503 21.8474 48.8948 21.7518 48.7393 21.6652C48.7055 21.7003 48.6797 21.7423 48.6636 21.7884C48.6475 21.8344 48.6415 21.8833 48.6459 21.9318C48.6459 22.1807 48.5237 22.2184 48.3038 22.2318C48.0082 22.2496 47.9371 22.1473 47.946 21.8652C47.9682 21.1986 47.946 20.532 47.9571 19.8654C47.9571 19.7566 47.8883 19.5655 48.0993 19.5899C48.3104 19.6144 48.5437 19.4322 48.6526 19.7588C48.8044 20.2436 49.0783 20.6813 49.448 21.0297C49.6313 21.2129 49.8489 21.3582 50.0883 21.4574C50.3277 21.5565 50.5843 21.6075 50.8434 21.6074C51.0632 21.6075 51.2783 21.5431 51.4619 21.4223C51.6455 21.3015 51.7897 21.1294 51.8766 20.9275C51.9628 20.7131 51.98 20.4772 51.9259 20.2526C51.8717 20.028 51.7488 19.8259 51.5744 19.6744C51.1056 19.23 50.4946 19.0278 49.9524 18.7078C49.6057 18.5065 49.2717 18.2839 48.9526 18.0412C48.126 17.4058 48.1038 16.5326 48.2704 15.6327C48.4371 14.7328 49.0703 14.2462 49.9213 14.0218C50.7723 13.7974 51.4744 14.084 52.2277 14.5084Z" fill="#8C2620"/>
<path fill-rule="evenodd" clip-rule="evenodd" d="M25.6973 17.4593L28.7725 19.4346C28.4832 18.8803 28.3752 18.2493 28.4636 17.6304C28.693 16.939 29.0723 16.307 29.5746 15.7795C30.2412 15.1352 31.3055 14.7708 32.192 15.1485C33.2496 15.5929 33.3696 17.046 33.203 18.037C33.1494 18.3839 33.0407 18.7199 32.8808 19.0324L29.8057 17.0571C30.0949 17.6106 30.2029 18.2409 30.1145 18.8591C29.8872 19.5513 29.5075 20.1838 29.0036 20.7099C28.337 21.3543 27.2727 21.7209 26.3861 21.341C25.3307 20.8966 25.2107 19.4457 25.3752 18.4525C25.4284 18.1062 25.5372 17.7708 25.6973 17.4593ZM23.451 13.0043V13.0199C23.331 13.2244 23.2248 13.4367 23.1333 13.6554C21.8245 16.3439 21.1335 18.6436 21.1735 20.5078C21.1821 21.5713 21.5001 22.6093 22.0888 23.4951C22.6775 24.3809 23.5114 25.0762 24.4886 25.496C25.8729 26.0825 27.546 26.0159 29.5768 25.1493C30.9738 24.4381 32.2155 23.4562 33.2296 22.2608L35.1205 23.5007V23.4873C35.241 23.2823 35.3471 23.0693 35.4382 22.8497C36.7492 20.1611 37.4269 17.8637 37.398 15.9973C37.3892 14.934 37.0711 13.8963 36.4824 13.0109C35.8937 12.1255 35.0599 11.4307 34.0829 11.0113C32.6986 10.4225 31.0255 10.4891 28.9947 11.3579C27.5993 12.0687 26.3597 13.0507 25.3485 14.2464L23.4577 13.0043" fill="url(#paint0_linear_5121_20939)"/>
<path fill-rule="evenodd" clip-rule="evenodd" d="M35.1115 23.4856L31.0232 20.8015C32.0564 20.0927 32.9518 19.4528 33.1895 18.0286C33.354 17.042 33.234 15.5956 32.1786 15.1401C31.2898 14.7623 30.2188 15.129 29.5611 15.7711C28.5768 16.7354 28.3035 18.2152 28.0547 18.8151C28.188 16.4221 29.5767 14.829 30.741 14.3335C31.9919 13.8002 34.085 14.1691 35.0893 15.1134C35.7803 15.76 36.2002 17.2331 36.2002 18.624C36.1291 20.2638 35.8647 22.2102 35.1026 23.4811" fill="#63363C"/>
<path fill-rule="evenodd" clip-rule="evenodd" d="M23.4559 12.9941L25.3468 14.2362C24.7969 14.8743 24.2821 15.5419 23.8048 16.2359L25.7001 17.4535C25.5402 17.766 25.4314 18.1021 25.3779 18.449C25.2135 19.4355 25.3334 20.882 26.3889 21.3374C27.2776 21.7174 28.3486 21.3508 29.0063 20.7064C29.9906 19.7421 30.2639 18.2623 30.5127 17.6646C30.3794 20.0554 28.9907 21.6485 27.8264 22.1462C26.5755 22.6795 24.4825 22.3084 23.4781 21.3663C22.7871 20.7175 22.3672 19.2466 22.3672 17.8557C22.4383 16.2137 22.7027 14.2673 23.4648 12.9986" fill="#63363C"/>
<path d="M34.7687 20.3618L29.796 17.1778C30.8603 19.2508 29.2583 21.5705 27.2386 22.1349C26.7048 22.3094 26.1369 22.3535 25.5825 22.2634C25.0282 22.1733 24.5035 21.9517 24.0524 21.6172C22.7325 20.6129 22.4126 19.0664 22.497 17.5022C22.6151 16.0058 22.9388 14.5329 23.4591 13.125C21.9371 16.0935 21.1416 18.6131 21.1728 20.6262C21.1815 21.69 21.4995 22.7283 22.0882 23.6144C22.6768 24.5005 23.5106 25.1962 24.4879 25.6166C25.8699 26.201 27.5452 26.1366 29.576 25.2678C31.9091 24.1079 33.4222 22.3015 34.7709 20.3796" fill="url(#paint1_linear_5121_20939)"/>
<path d="M23.7223 16.2474L28.8039 19.3558C27.6942 17.297 29.278 14.9485 31.3125 14.3508C31.8498 14.1675 32.4236 14.1142 32.9859 14.1955C33.5482 14.2768 34.0826 14.4903 34.5443 14.818C35.8956 15.8025 36.2439 17.3459 36.1834 18.9136C36.0878 20.4138 35.7837 21.894 35.2797 23.3122C36.7723 20.3152 37.537 17.7793 37.4735 15.764C37.4478 14.6989 37.1094 13.6644 36.4998 12.7865C35.8901 11.9086 35.0355 11.2254 34.0401 10.8202C32.6325 10.2572 30.9386 10.3487 28.8977 11.2513C26.5558 12.4502 25.0537 14.2834 23.7197 16.2296" fill="url(#paint2_linear_5121_20939)"/>
</g>
<defs>
<linearGradient id="paint0_linear_5121_20939" x1="44.3459" y1="18.36" x2="46.2941" y2="18.36" gradientUnits="userSpaceOnUse">
<stop stop-color="#A04636"/>
<stop offset="1" stop-color="#FBC707"/>
</linearGradient>
<linearGradient id="paint1_linear_5121_20939" x1="21.1661" y1="19.5508" x2="34.7687" y2="19.5508" gradientUnits="userSpaceOnUse">
<stop stop-color="#ECB20F"/>
<stop offset="1" stop-color="#A04636"/>
</linearGradient>
<linearGradient id="paint2_linear_5121_20939" x1="37.4973" y1="16.8408" x2="23.7352" y2="17.0595" gradientUnits="userSpaceOnUse">
<stop stop-color="#ECB20F"/>
<stop offset="1" stop-color="#A04636"/>
</linearGradient>
</defs>
</svg>
