<svg width="32" height="32" viewBox="0 0 32 32" fill="none" xmlns="http://www.w3.org/2000/svg">
<path d="M9.66536 14.0007C8.46536 14.0007 7.44314 13.5784 6.5987 12.734C5.75425 11.8895 5.33203 10.8673 5.33203 9.66732C5.33203 8.46732 5.75425 7.4451 6.5987 6.60065C7.44314 5.75621 8.46536 5.33398 9.66536 5.33398C10.8654 5.33398 11.8876 5.75621 12.732 6.60065C13.5765 7.4451 13.9987 8.46732 13.9987 9.66732C13.9987 10.8673 13.5765 11.8895 12.732 12.734C11.8876 13.5784 10.8654 14.0007 9.66536 14.0007V14.0007ZM9.66536 12.0007C10.3098 12.0007 10.8598 11.7729 11.3154 11.3173C11.7709 10.8618 11.9987 10.3118 11.9987 9.66732C11.9987 9.02287 11.7709 8.47287 11.3154 8.01732C10.8598 7.56176 10.3098 7.33398 9.66536 7.33398C9.02092 7.33398 8.47092 7.56176 8.01536 8.01732C7.55981 8.47287 7.33203 9.02287 7.33203 9.66732C7.33203 10.3118 7.55981 10.8618 8.01536 11.3173C8.47092 11.7729 9.02092 12.0007 9.66536 12.0007ZM22.332 26.6673C21.132 26.6673 20.1098 26.2451 19.2654 25.4006C18.4209 24.5562 17.9987 23.534 17.9987 22.334C17.9987 21.134 18.4209 20.1118 19.2654 19.2673C20.1098 18.4229 21.132 18.0007 22.332 18.0007C23.532 18.0007 24.5543 18.4229 25.3987 19.2673C26.2431 20.1118 26.6654 21.134 26.6654 22.334C26.6654 23.534 26.2431 24.5562 25.3987 25.4006C24.5543 26.2451 23.532 26.6673 22.332 26.6673ZM22.332 24.6673C22.9765 24.6673 23.5265 24.4395 23.982 23.984C24.4376 23.5284 24.6654 22.9784 24.6654 22.334C24.6654 21.6895 24.4376 21.1395 23.982 20.684C23.5265 20.2284 22.9765 20.0007 22.332 20.0007C21.6876 20.0007 21.1376 20.2284 20.682 20.684C20.2265 21.1395 19.9987 21.6895 19.9987 22.334C19.9987 22.9784 20.2265 23.5284 20.682 23.984C21.1376 24.4395 21.6876 24.6673 22.332 24.6673ZM6.03203 25.9673C5.83203 25.7673 5.73203 25.534 5.73203 25.2673C5.73203 25.0007 5.83203 24.7673 6.03203 24.5673L24.5654 6.03398C24.7654 5.83398 24.9987 5.73398 25.2654 5.73398C25.532 5.73398 25.7654 5.83398 25.9654 6.03398C26.1654 6.23398 26.2654 6.46732 26.2654 6.73398C26.2654 7.00065 26.1654 7.23398 25.9654 7.43398L7.43203 25.9673C7.23203 26.1673 6.9987 26.2673 6.73203 26.2673C6.46536 26.2673 6.23203 26.1673 6.03203 25.9673V25.9673Z" fill="#109648"/>
</svg>
