<svg width="32" height="32" viewBox="0 0 32 32" fill="none" xmlns="http://www.w3.org/2000/svg">
<path d="M14.632 17.5676L11.9987 14.9342C11.7987 14.7342 11.5543 14.6342 11.2654 14.6342C10.9765 14.6342 10.732 14.7342 10.532 14.9342C10.332 15.1342 10.232 15.3787 10.232 15.6676C10.232 15.9565 10.332 16.2009 10.532 16.4009L13.832 19.7009C14.032 19.9009 14.2709 20.0009 14.5487 20.0009C14.8265 20.0009 15.0654 19.9009 15.2654 19.7009L21.432 13.5342C21.6098 13.3565 21.6987 13.1231 21.6987 12.8342C21.6987 12.5454 21.6098 12.312 21.432 12.1342C21.2543 11.9565 21.0265 11.8676 20.7487 11.8676C20.4709 11.8676 20.2431 11.9565 20.0654 12.1342L14.632 17.5676ZM15.9987 29.2342C15.9098 29.2342 15.8265 29.2287 15.7487 29.2176C15.6709 29.2065 15.5987 29.1898 15.532 29.1676C12.5543 28.2787 10.1098 26.4509 8.1987 23.6842C6.28759 20.9176 5.33203 17.8787 5.33203 14.5676V8.03425C5.33203 7.61202 5.45425 7.22869 5.6987 6.88424C5.94314 6.5398 6.25425 6.2898 6.63203 6.13424L15.2987 2.90091C15.5431 2.81202 15.7765 2.76758 15.9987 2.76758C16.2209 2.76758 16.4543 2.81202 16.6987 2.90091L25.3654 6.13424C25.7431 6.2898 26.0543 6.5398 26.2987 6.88424C26.5431 7.22869 26.6654 7.61202 26.6654 8.03425V14.5676C26.6654 17.8787 25.7098 20.9176 23.7987 23.6842C21.8876 26.4509 19.4431 28.2787 16.4654 29.1676L15.9987 29.2342ZM15.9987 27.2342C18.5543 26.3898 20.6376 24.7954 22.2487 22.4509C23.8598 20.1065 24.6654 17.4787 24.6654 14.5676V8.03425L15.9987 4.76758L7.33203 8.03425V14.5676C7.33203 17.4787 8.13759 20.1065 9.7487 22.4509C11.3598 24.7954 13.4431 26.3898 15.9987 27.2342Z" fill="#109648"/>
</svg>
