<svg width="64" height="64" viewBox="0 0 64 64" fill="none" xmlns="http://www.w3.org/2000/svg">
<path d="M7.32803 15.2222L29.8711 6.77539L52.9603 15.2127C58.7332 38.7482 38.9822 56.5825 29.8711 60.9515C7.32803 49.3008 5.44944 25.6108 7.32803 15.2222Z" fill="#CFEADA"/>
<path d="M4.55069 12.1699L27.0938 4L49.6365 12.1699C53.4689 37.412 36.2048 52.1741 27.0938 56.3999C4.55069 45.1311 2.6721 22.2179 4.55069 12.1699Z" fill="white" stroke="#BFC5D0" stroke-width="0.888134"/>
<path d="M18.9883 26.2031L18.9883 35.9726" stroke="#DFE2E8" stroke-width="2.6644" stroke-linecap="round"/>
<path d="M27 24L27 36" stroke="#DFE2E8" stroke-width="2.6644" stroke-linecap="round"/>
<path d="M35 20L35 36" stroke="#DFE2E8" stroke-width="2.6644" stroke-linecap="round"/>
<path fill-rule="evenodd" clip-rule="evenodd" d="M42.2916 48.5241C42.6857 48.1301 43.3991 48.2047 43.7185 48.5241L49.901 54.7066C50.295 55.1007 50.295 55.7395 49.901 56.1335C49.507 56.5275 48.7935 56.4529 48.4742 56.1335L42.2916 49.951C41.8976 49.5569 41.8976 48.9181 42.2916 48.5241Z" fill="#109648"/>
<circle cx="36.4202" cy="42.6331" r="7.54914" fill="#F3FAF6"/>
<path fill-rule="evenodd" clip-rule="evenodd" d="M45.9263 42.7249C45.9263 37.5247 41.7106 33.3086 36.51 33.3086C31.3098 33.3086 27.0938 37.5244 27.0938 42.7249C27.0938 47.9255 31.3096 52.1411 36.51 52.1411C41.7106 52.1411 45.9263 47.9255 45.9263 42.7249ZM43.9086 42.7249C43.9086 38.6389 40.5963 35.3265 36.5103 35.3265C32.4243 35.3265 29.1119 38.6389 29.1119 42.7249C29.1119 46.811 32.4243 50.1232 36.5103 50.1232C40.5964 50.1232 43.9086 46.8108 43.9086 42.7249Z" fill="#109648"/>
<path d="M19 8L26.1052 5.77963C26.6878 5.59755 27.3122 5.59755 27.8948 5.77963L35 8C35 8 30.9052 7.5 27 7.5C23.4853 7.5 19 8 19 8Z" fill="#DFE2E8"/>
</svg>
