<svg width="48" height="48" viewBox="0 0 48 48" fill="none" xmlns="http://www.w3.org/2000/svg">
<path d="M24 23.9492C21.8 23.9492 20 23.2492 18.6 21.8492C17.2 20.4492 16.5 18.6492 16.5 16.4492C16.5 14.2492 17.2 12.4492 18.6 11.0492C20 9.64922 21.8 8.94922 24 8.94922C26.2 8.94922 28 9.64922 29.4 11.0492C30.8 12.4492 31.5 14.2492 31.5 16.4492C31.5 18.6492 30.8 20.4492 29.4 21.8492C28 23.2492 26.2 23.9492 24 23.9492ZM37 39.9992H11C10.1667 39.9992 9.45833 39.7076 8.875 39.1242C8.29167 38.5409 8 37.8326 8 36.9992V35.2992C8 34.0326 8.31667 32.9492 8.95 32.0492C9.58333 31.1492 10.4 30.4659 11.4 29.9992C13.6333 28.9992 15.775 28.2492 17.825 27.7492C19.875 27.2492 21.9333 26.9992 24 26.9992C26.0667 26.9992 28.1167 27.2576 30.15 27.7742C32.1833 28.2909 34.3167 29.0326 36.55 29.9992C37.5833 30.4659 38.4167 31.1492 39.05 32.0492C39.6833 32.9492 40 34.0326 40 35.2992V36.9992C40 37.8326 39.7083 38.5409 39.125 39.1242C38.5417 39.7076 37.8333 39.9992 37 39.9992ZM11 36.9992H37V35.2992C37 34.7659 36.8417 34.2576 36.525 33.7742C36.2083 33.2909 35.8167 32.9326 35.35 32.6992C33.2167 31.6659 31.2667 30.9576 29.5 30.5742C27.7333 30.1909 25.9 29.9992 24 29.9992C22.1 29.9992 20.25 30.1909 18.45 30.5742C16.65 30.9576 14.7 31.6659 12.6 32.6992C12.1333 32.9326 11.75 33.2909 11.45 33.7742C11.15 34.2576 11 34.7659 11 35.2992V36.9992ZM24 20.9492C25.3 20.9492 26.375 20.5242 27.225 19.6742C28.075 18.8242 28.5 17.7492 28.5 16.4492C28.5 15.1492 28.075 14.0742 27.225 13.2242C26.375 12.3742 25.3 11.9492 24 11.9492C22.7 11.9492 21.625 12.3742 20.775 13.2242C19.925 14.0742 19.5 15.1492 19.5 16.4492C19.5 17.7492 19.925 18.8242 20.775 19.6742C21.625 20.5242 22.7 20.9492 24 20.9492Z" fill="#98A2B3"/>
<circle cx="24" cy="16" r="5" fill="#98A2B3"/>
<path d="M11 32L24 28.5L37 32V38H11V32Z" fill="#98A2B3"/>
</svg>
