<svg width="83" height="31" viewBox="0 0 83 31" fill="none" xmlns="http://www.w3.org/2000/svg">
<path fill-rule="evenodd" clip-rule="evenodd" d="M33.8819 2.01369C34.4089 1.12071 33.7563 0 32.7093 0H28.9367L16.9146 20.4625L10.3687 9.46863C9.88125 8.64987 8.99103 8.14706 8.02891 8.14706H3.44833L16.8375 30.896L33.8819 2.01369Z" fill="white"/>
<path opacity="0.5" fill-rule="evenodd" clip-rule="evenodd" d="M14.9512 16.6271L24.2516 1.30226C24.7418 0.494427 25.6258 0 26.5798 0H28.6721L16.9135 19.9802L14.9512 16.6271Z" fill="white"/>
<path opacity="0.5" fill-rule="evenodd" clip-rule="evenodd" d="M16.4688 30.8958L3.08264 8.17871H1.35949C0.309938 8.17871 -0.342314 9.30442 0.189854 10.1974L11.7385 29.5752C12.2262 30.3934 13.1161 30.8958 14.0778 30.8958H16.4688Z" fill="white"/>
<path d="M62.5393 31.0002V0.000976562H55.3984V31.0002H62.5393Z" fill="white"/>
<path d="M82.5007 23.7491C81.7164 24.2379 80.6019 24.523 79.4462 24.523C77.5062 24.523 76.5981 23.5454 76.5981 21.4272V14.2564H82.6658V8.06637H76.5981V0.000976562H69.5398V8.06637H65.4121V14.2564H69.5398V23.0566C69.5398 28.0669 72.4704 30.9998 77.4649 30.9998C79.4462 30.9998 80.9321 30.6739 82.5007 29.8185V23.7491Z" fill="white"/>
<path d="M40.7667 30.8567C47.3297 30.8567 52.3655 25.7649 52.3655 19.4918C52.3655 13.2187 47.3297 8.12695 40.7667 8.12695C34.2037 8.12695 29.168 13.2187 29.168 19.4918C29.168 25.7649 34.2037 30.8567 40.7667 30.8567ZM40.7667 24.6244C38.5791 24.6244 36.5152 22.9135 36.5152 19.4918C36.5152 16.0701 38.5791 14.4 40.7667 14.4C42.9544 14.4 45.0182 16.0701 45.0182 19.4918C45.0182 22.9135 42.9544 24.6244 40.7667 24.6244Z" fill="white"/>
</svg>
