<svg width="14" height="14" viewBox="0 0 14 14" fill="none" xmlns="http://www.w3.org/2000/svg">
<path d="M7.47031 11.271L11.4417 7.29961C11.4894 7.25199 11.5227 7.20437 11.5417 7.15675C11.5608 7.10913 11.5703 7.05675 11.5703 6.99961C11.5703 6.94247 11.5608 6.89009 11.5417 6.84247C11.5227 6.79485 11.4894 6.74723 11.4417 6.69961L7.45603 2.71389C7.37984 2.6377 7.2846 2.59961 7.17031 2.59961C7.05603 2.59961 6.95603 2.64247 6.87031 2.72818C6.7846 2.8139 6.74174 2.9139 6.74174 3.02818C6.74174 3.14247 6.7846 3.24247 6.87031 3.32818L10.1132 6.57104H3.02746C2.90365 6.57104 2.80127 6.61151 2.72031 6.69247C2.63936 6.77342 2.59888 6.8758 2.59888 6.99961C2.59888 7.12342 2.63936 7.2258 2.72031 7.30675C2.80127 7.3877 2.90365 7.42818 3.02746 7.42818H10.1132L6.85603 10.6853C6.77984 10.7615 6.74174 10.8568 6.74174 10.971C6.74174 11.0853 6.7846 11.1853 6.87031 11.271C6.95603 11.3568 7.05603 11.3996 7.17031 11.3996C7.2846 11.3996 7.3846 11.3568 7.47031 11.271Z" fill="#1D2939"/>
</svg>
