<svg width="32" height="32" viewBox="0 0 32 32" fill="none" xmlns="http://www.w3.org/2000/svg">
<path d="M15.9998 11.9002C16.1331 11.9002 16.2554 11.9225 16.3665 11.9669C16.4776 12.0114 16.5887 12.0891 16.6998 12.2002L23.2998 18.8002C23.4776 18.978 23.5609 19.2169 23.5498 19.5169C23.5387 19.8169 23.4442 20.0558 23.2665 20.2336C23.0442 20.4558 22.8054 20.5502 22.5498 20.5169C22.2942 20.4836 22.0665 20.378 21.8665 20.2002L15.9998 14.3336L10.1331 20.2002C9.95536 20.378 9.71647 20.478 9.41647 20.5003C9.11647 20.5225 8.87758 20.4225 8.6998 20.2003C8.47758 20.0225 8.38313 19.7891 8.41647 19.5003C8.4498 19.2114 8.55535 18.9669 8.73313 18.7669L15.2998 12.2002C15.4109 12.0891 15.522 12.0114 15.6331 11.9669C15.7442 11.9225 15.8665 11.9002 15.9998 11.9002Z" fill="#1D2939"/>
</svg>
