<svg width="32" height="32" viewBox="0 0 32 32" fill="none" xmlns="http://www.w3.org/2000/svg">
<path d="M14.9026 25.9658L5.63594 16.6991C5.52483 16.588 5.44705 16.4769 5.4026 16.3658C5.35816 16.2546 5.33594 16.1324 5.33594 15.9991C5.33594 15.8658 5.35816 15.7435 5.4026 15.6324C5.44705 15.5213 5.52483 15.4102 5.63594 15.2991L14.9359 5.99909C15.1137 5.82131 15.3359 5.73242 15.6026 5.73242C15.8693 5.73242 16.1026 5.83242 16.3026 6.03242C16.5026 6.23242 16.6026 6.46576 16.6026 6.73242C16.6026 6.99909 16.5026 7.23242 16.3026 7.43242L8.73594 14.9991H25.2693C25.5582 14.9991 25.797 15.0935 25.9859 15.2824C26.1748 15.4713 26.2693 15.7102 26.2693 15.9991C26.2693 16.288 26.1748 16.5269 25.9859 16.7158C25.797 16.9046 25.5582 16.9991 25.2693 16.9991H8.73594L16.3359 24.5991C16.5137 24.7769 16.6026 24.9991 16.6026 25.2658C16.6026 25.5324 16.5026 25.7658 16.3026 25.9658C16.1026 26.1658 15.8693 26.2658 15.6026 26.2658C15.3359 26.2658 15.1026 26.1658 14.9026 25.9658Z" fill="#98A2B3"/>
</svg>
