<svg width="48" height="48" viewBox="0 0 48 48" fill="none" xmlns="http://www.w3.org/2000/svg">
<circle cx="24" cy="24" r="24" fill="#F3F5FC"/>
<g clip-path="url(#clip0_5319_26824)">
<path d="M12 15.2012C12 14.429 12.2703 13.7919 12.8108 13.29C13.3513 12.7881 14.0541 12.5371 14.9189 12.5371C15.7683 12.5371 16.4556 12.7842 16.9807 13.2784C17.5212 13.7881 17.7915 14.4522 17.7915 15.2707C17.7915 16.012 17.529 16.6298 17.0039 17.124C16.4633 17.6336 15.7529 17.8885 14.8726 17.8885H14.8494C14 17.8885 13.3127 17.6336 12.7876 17.124C12.2625 16.6143 12 15.9734 12 15.2012ZM12.3012 35.4715V19.9966H17.444V35.4715H12.3012ZM20.2934 35.4715H25.4363V26.8305C25.4363 26.29 25.4981 25.873 25.6216 25.5796C25.8378 25.0545 26.166 24.6105 26.6062 24.2475C27.0463 23.8846 27.5984 23.7031 28.2626 23.7031C29.9923 23.7031 30.8571 24.8691 30.8571 27.2012V35.4715H36V26.5989C36 24.3132 35.4595 22.5796 34.3784 21.3981C33.2973 20.2166 31.8687 19.6259 30.0927 19.6259C28.1004 19.6259 26.5483 20.4831 25.4363 22.1973V22.2437H25.4131L25.4363 22.1973V19.9966H20.2934C20.3243 20.4908 20.3398 22.0274 20.3398 24.6066C20.3398 27.1857 20.3243 30.8074 20.2934 35.4715Z" fill="#0A66C2"/>
</g>
<defs>
<clipPath id="clip0_5319_26824">
<rect width="24" height="24" fill="white" transform="translate(12 12)"/>
</clipPath>
</defs>
</svg>
