<svg width="48" height="48" viewBox="0 0 48 48" fill="none" xmlns="http://www.w3.org/2000/svg">
<circle cx="24" cy="24" r="24" fill="#F3F5FC"/>
<path d="M33.0586 19.1811C33.0678 19.3923 33.0679 19.5939 33.0679 19.8051C33.0771 26.2084 28.3726 33.6004 19.7694 33.6004C17.2319 33.6004 14.7408 32.842 12.6016 31.4212C12.972 31.4692 13.3424 31.4884 13.7129 31.4884C15.815 31.4884 17.8617 30.7588 19.5194 29.4052C17.519 29.3668 15.7595 28.0132 15.1483 26.0356C15.8521 26.1796 16.5744 26.1508 17.2597 25.9492C15.0834 25.5076 13.5184 23.5204 13.5091 21.2068C13.5091 21.1876 13.5091 21.1684 13.5091 21.1492C14.1574 21.5236 14.889 21.7348 15.6298 21.754C13.5832 20.3331 12.9442 17.5011 14.1852 15.2835C16.5652 18.3171 20.0657 20.1507 23.8256 20.3523C23.4459 18.6723 23.9645 16.9059 25.1777 15.7155C27.0576 13.8819 30.0211 13.9779 31.7991 15.9267C32.8456 15.7155 33.855 15.3123 34.7718 14.7459C34.4199 15.8691 33.6883 16.8195 32.7159 17.4243C33.642 17.3091 34.5496 17.0499 35.4016 16.6659C34.7718 17.6451 33.9754 18.4899 33.0586 19.1811Z" fill="#1D9BF0"/>
</svg>
