<svg width="24" height="24" viewBox="0 0 24 24" fill="none" xmlns="http://www.w3.org/2000/svg">
<g clip-path="url(#clip0_5121_21313)">
<path fill-rule="evenodd" clip-rule="evenodd" d="M12.0005 20.1367C16.7038 20.1367 20.5166 16.3315 20.5166 11.6377C20.5166 6.94381 16.7038 3.13867 12.0005 3.13867C7.29718 3.13867 3.48438 6.94381 3.48438 11.6377C3.48438 13.4409 4.04711 15.113 5.00687 16.4886L4.18792 19.5388L7.27933 18.7122C8.63054 19.6121 10.2541 20.1367 12.0005 20.1367Z" fill="url(#paint0_linear_5121_21313)"/>
<path d="M1.89062 21.8144L3.3223 16.5973C2.43924 15.0704 1.97462 13.3383 1.9753 11.5638C1.97758 6.01249 6.50453 1.49609 12.0673 1.49609C14.7667 1.49725 17.3005 2.54582 19.2059 4.44877C21.1111 6.35187 22.16 8.88153 22.1591 11.5719C22.1566 17.1229 17.6291 21.6402 12.0673 21.6402C12.0669 21.6402 12.0675 21.6402 12.0673 21.6402H12.0629C10.374 21.6395 8.71441 21.2167 7.24045 20.4145L1.89062 21.8144ZM7.48829 18.5918L7.79472 18.7731C9.0823 19.5356 10.5586 19.9389 12.0639 19.9397H12.0672C16.6903 19.9397 20.453 16.1854 20.455 11.5713C20.4557 9.33511 19.5842 7.23248 18.0005 5.65075C16.4167 4.06912 14.3109 3.19753 12.0703 3.19662C7.44358 3.19662 3.68095 6.95037 3.67906 11.5644C3.67848 13.1456 4.12171 14.6854 4.96141 16.0179L5.16111 16.3345L4.31346 19.4224L7.48829 18.5918Z" fill="white"/>
<path fill-rule="evenodd" clip-rule="evenodd" d="M9.48851 7.24148C9.29965 6.82242 9.10078 6.81402 8.92107 6.80668C8.77412 6.8004 8.60578 6.80079 8.43788 6.80079C8.26973 6.80079 7.99654 6.8638 7.76549 7.11564C7.5343 7.36747 6.88281 7.97621 6.88281 9.21431C6.88281 10.4526 7.78649 11.6489 7.91244 11.817C8.03854 11.9848 9.65689 14.6067 12.2199 15.6154C14.35 16.4537 14.7835 16.2869 15.2458 16.2451C15.7081 16.2031 16.7377 15.6364 16.9478 15.0488C17.158 14.4612 17.158 13.9576 17.0949 13.8523C17.0319 13.7475 16.8638 13.6845 16.6116 13.5587C16.3594 13.4329 15.1197 12.824 14.8886 12.7401C14.6574 12.6563 14.4893 12.6143 14.3211 12.8662C14.153 13.1179 13.67 13.6845 13.5229 13.8523C13.3758 14.0205 13.2287 14.0415 12.9765 13.9157C12.7243 13.7895 11.9122 13.524 10.9488 12.6667C10.1992 11.9998 9.69309 11.176 9.54594 10.9241C9.39885 10.6724 9.53022 10.5361 9.6567 10.4106C9.76993 10.2979 9.90889 10.1169 10.0349 9.96995C10.1608 9.823 10.2028 9.71811 10.2869 9.55031C10.3709 9.38231 10.3289 9.23531 10.2658 9.10947C10.2028 8.98358 9.71278 7.73906 9.48851 7.24148Z" fill="white"/>
</g>
<defs>
<linearGradient id="paint0_linear_5121_21313" x1="12.003" y1="20.1462" x2="12.003" y2="3.14841" gradientUnits="userSpaceOnUse">
<stop stop-color="#20B038"/>
<stop offset="1" stop-color="#60D66A"/>
</linearGradient>
<clipPath id="clip0_5121_21313">
<rect width="24" height="24" fill="white"/>
</clipPath>
</defs>
</svg>
