<svg width="88" height="36" viewBox="0 0 88 36" fill="none" xmlns="http://www.w3.org/2000/svg">
<rect width="88" height="36" rx="4" fill="#F9FAFB"/>
<g style="mix-blend-mode:luminosity">
<g style="mix-blend-mode:luminosity">
<g style="mix-blend-mode:luminosity">
<path fill-rule="evenodd" clip-rule="evenodd" d="M25.0459 17.8718C25.0676 17.6689 25.0964 17.4621 25.1314 17.2499C25.3091 16.2313 25.7211 15.268 26.3347 14.4358C26.9603 13.5714 27.9566 13.0928 29.3237 13C29.573 13.0033 29.8215 13.0293 30.0661 13.0777C30.3633 13.1361 30.6526 13.229 30.9282 13.3545C31.3817 13.5721 31.8126 13.9222 32.221 14.4047C32.6293 14.8872 32.9299 15.5731 33.1227 16.4624H31.7926C31.6014 15.7032 31.2772 15.1391 30.8201 14.7701C30.3631 14.4011 29.8731 14.2166 29.3501 14.2166H29.2514C29.2228 14.2165 29.1944 14.2215 29.1675 14.2313C28.4798 14.2873 27.8465 14.6542 27.2676 15.3321C26.6887 16.01 26.3816 16.9819 26.3464 18.248C26.3464 19.7701 26.6382 20.8695 27.2217 21.5464C27.8053 22.2232 28.4448 22.566 29.1403 22.5748H29.1807C29.8596 22.5748 30.4864 22.3123 31.0611 21.7873C31.6359 21.2624 31.9494 20.5648 32.0017 19.6947H33.331C33.3132 19.8183 33.2937 19.9427 33.272 20.0701C33.2502 20.1976 33.2222 20.329 33.1872 20.4588C32.9471 21.326 32.496 22.1203 31.8743 22.7707C31.2259 23.4709 30.4094 23.8209 29.4248 23.8209C27.9359 23.8686 26.8258 23.3504 26.0945 22.2662C25.3633 21.182 24.9985 19.9183 25 18.475C25.0086 18.2752 25.0241 18.0754 25.0459 17.8718Z" fill="#0B509D"/>
<path fill-rule="evenodd" clip-rule="evenodd" d="M38.1578 14.8985L35.3756 23.4977H33.9375L37.3338 13.1113H38.8753L42.3634 23.4977H40.9268L38.1578 14.8985Z" fill="#80807C"/>
<path fill-rule="evenodd" clip-rule="evenodd" d="M43.6094 13.1113H45.5178L48.293 21.8241L51.0674 13.1113H52.9899V23.4977H51.5953V15.2258L48.9289 23.4977H47.6563L44.9908 15.3385V23.4977H43.6094V13.1113Z" fill="#0B509D"/>
<path fill-rule="evenodd" clip-rule="evenodd" d="M55.6646 20.1519C55.6646 20.9935 55.9237 21.6154 56.4419 22.0176C56.9315 22.4092 57.5328 22.6354 58.1591 22.6636H58.2641C58.8043 22.6687 59.3352 22.5236 59.7978 22.2446C60.0175 22.1228 60.205 21.9505 60.3449 21.742C60.4848 21.5334 60.5731 21.2945 60.6024 21.0451C60.61 21.0106 60.6142 20.9755 60.6148 20.9401V20.8336C60.6148 20.1713 60.3601 19.7241 59.8507 19.4919C59.2909 19.2446 58.7068 19.0567 58.1078 18.9314C58.0301 18.9128 57.9523 18.8965 57.8855 18.8817C57.8186 18.8669 57.7456 18.8514 57.6764 18.8327C56.9304 18.6638 56.2169 18.3742 55.5643 17.9753C54.9336 17.5871 54.6571 16.8204 54.7348 15.675C54.7866 14.9495 55.096 14.3206 55.663 13.7884C56.23 13.2561 57.0522 12.9934 58.1296 13.0001C59.2086 13.0001 60.0725 13.2696 60.7213 13.8086C61.3702 14.3476 61.6697 15.1172 61.62 16.1174H60.3917V15.9619C60.3917 15.3752 60.1634 14.9262 59.7069 14.6147C59.2623 14.307 58.7384 14.1342 58.198 14.1172H58.1203C57.6027 14.1135 57.0957 14.2643 56.6642 14.5502C56.2243 14.8383 55.991 15.2897 55.9646 15.9044C55.9872 16.1362 56.0726 16.3574 56.2116 16.5443C56.3507 16.7311 56.5381 16.8765 56.7536 16.9647C57.2654 17.1868 57.7968 17.3604 58.341 17.4832C58.4452 17.512 58.5548 17.5399 58.6675 17.5695L59.008 17.6542C59.6996 17.828 60.3617 18.1028 60.9732 18.4697C61.579 18.8324 61.934 19.4689 62.0382 20.3789C62.09 21.503 61.7156 22.3581 60.9149 22.9442C60.1441 23.52 59.2113 23.838 58.2493 23.8529H58.2112C57.2577 23.854 56.3313 23.5363 55.579 22.9504C54.7825 22.3498 54.3972 21.4169 54.4231 20.1519H55.6646Z" fill="#0B509D"/>
<path fill-rule="evenodd" clip-rule="evenodd" d="M42.2858 16.2347C42.2255 16.2032 42.1552 16.1965 42.0899 16.2161L40.7793 16.3762C40.7316 16.3978 40.6944 16.4374 40.6759 16.4864C40.6573 16.5354 40.659 16.5897 40.6806 16.6374C40.7031 16.6849 40.7425 16.7222 40.791 16.7424C40.8396 16.7625 40.8938 16.7638 40.9433 16.7462L41.5582 16.6864L40.7109 17.648L39.1453 17.7498L39.0854 17.8486L38.5413 18.7884H36.7456L36.6865 18.8661L36.1423 19.6054H34.3272L34.2696 19.694L33.6034 20.7512C33.5891 20.7727 33.5791 20.7968 33.5741 20.8222C33.569 20.8475 33.5691 20.8736 33.5741 20.8989C33.5792 20.9243 33.5892 20.9484 33.6035 20.9698C33.6179 20.9913 33.6364 21.0098 33.6579 21.0241C33.7016 21.053 33.7549 21.0634 33.8062 21.0532C33.8576 21.0431 33.9029 21.013 33.9323 20.9697L34.5394 20.0003H36.3444L36.4035 19.9226L36.9477 19.1841H38.7745L38.8305 19.0846L39.3746 18.1439L40.8967 18.0219L40.9441 17.9737L41.9259 16.911L41.9057 17.711C41.9036 17.7368 41.9065 17.7629 41.9145 17.7876C41.9224 17.8123 41.9351 17.8353 41.9519 17.8551C41.9687 17.8749 41.9892 17.8912 42.0123 17.9031C42.0354 17.915 42.0606 17.9222 42.0864 17.9243C42.1123 17.9265 42.1384 17.9235 42.1631 17.9156C42.1878 17.9077 42.2108 17.895 42.2306 17.8782C42.2504 17.8614 42.2667 17.8409 42.2786 17.8178C42.2905 17.7947 42.2977 17.7695 42.2998 17.7436L42.369 16.4128C42.3719 16.3784 42.3657 16.3439 42.3512 16.3127C42.3366 16.2814 42.314 16.2546 42.2858 16.2347Z" fill="#0B509D"/>
</g>
</g>
</g>
</svg>
