<svg width="64" height="64" viewBox="0 0 64 64" fill="none" xmlns="http://www.w3.org/2000/svg">
<circle cx="32" cy="32" r="32" fill="#F3FAF6"/>
<path d="M31.9974 45.3327C30.153 45.3327 28.4196 44.9827 26.7974 44.2827C25.1752 43.5827 23.7641 42.6327 22.5641 41.4327C21.3641 40.2327 20.4141 38.8216 19.7141 37.1994C19.0141 35.5771 18.6641 33.8438 18.6641 31.9993C18.6641 30.1549 19.0141 28.4216 19.7141 26.7993C20.4141 25.1771 21.3641 23.766 22.5641 22.566C23.7641 21.366 25.1752 20.416 26.7974 19.716C28.4196 19.016 30.153 18.666 31.9974 18.666C33.8418 18.666 35.5752 19.016 37.1974 19.716C38.8196 20.416 40.2307 21.366 41.4307 22.566C42.6307 23.766 43.5807 25.1771 44.2807 26.7993C44.9807 28.4216 45.3307 30.1549 45.3307 31.9993C45.3307 33.8438 44.9807 35.5771 44.2807 37.1994C43.5807 38.8216 42.6307 40.2327 41.4307 41.4327C40.2307 42.6327 38.8196 43.5827 37.1974 44.2827C35.5752 44.9827 33.8418 45.3327 31.9974 45.3327ZM31.9974 43.3327C35.1613 43.3327 37.8412 42.2348 40.037 40.0389C42.2328 37.8431 43.3307 35.1632 43.3307 31.9993C43.3307 30.6513 43.0974 29.3532 42.6307 28.105C42.1641 26.8568 41.5085 25.7216 40.6641 24.6993L24.6974 40.666C25.6974 41.5327 26.8251 42.1938 28.0805 42.6494C29.3359 43.1049 30.6416 43.3327 31.9974 43.3327ZM23.3641 39.2994L39.2974 23.366C38.2752 22.4993 37.14 21.8327 35.8918 21.366C34.6436 20.8993 33.3454 20.666 31.9974 20.666C28.8335 20.666 26.1536 21.7639 23.9578 23.9597C21.762 26.1556 20.6641 28.8355 20.6641 31.9993C20.6641 33.3552 20.9085 34.6608 21.3974 35.9162C21.8863 37.1716 22.5418 38.2994 23.3641 39.2994Z" fill="#109648"/>
</svg>
