<svg width="40" height="40" viewBox="0 0 40 40" fill="none" xmlns="http://www.w3.org/2000/svg">
<path d="M5.83594 33.3327C5.16927 33.3327 4.58594 33.0827 4.08594 32.5827C3.58594 32.0827 3.33594 31.4993 3.33594 30.8327L3.33594 9.16602C3.33594 8.49935 3.58594 7.91602 4.08594 7.41602C4.58594 6.91602 5.16927 6.66602 5.83594 6.66602L34.1693 6.66602C34.8359 6.66602 35.4193 6.91602 35.9193 7.41602C36.4193 7.91602 36.6693 8.49935 36.6693 9.16602L36.6693 30.8327C36.6693 31.4993 36.4193 32.0827 35.9193 32.5827C35.4193 33.0827 34.8359 33.3327 34.1693 33.3327H5.83594ZM34.1693 11.4577L20.6693 20.291C20.5582 20.3466 20.454 20.3952 20.3568 20.4368C20.2595 20.4785 20.1415 20.4993 20.0026 20.4993C19.8637 20.4993 19.7457 20.4785 19.6484 20.4368C19.5512 20.3952 19.4471 20.3466 19.3359 20.291L5.83594 11.4577L5.83594 30.8327L34.1693 30.8327V11.4577ZM20.0026 18.2493L34.0026 9.16602L6.04427 9.16602L20.0026 18.2493ZM5.83594 11.4577V11.7493L5.83594 10.1035V10.1243V9.16602V10.1243V10.0827L5.83594 11.7493V11.4577L5.83594 30.8327L5.83594 11.4577Z" fill="#1434CB"/>
</svg>
