<svg width="32" height="32" viewBox="0 0 32 32" fill="none" xmlns="http://www.w3.org/2000/svg">
<path d="M17.0974 25.9658L26.3641 16.6991C26.4752 16.588 26.553 16.4769 26.5974 16.3658C26.6418 16.2546 26.6641 16.1324 26.6641 15.9991C26.6641 15.8658 26.6418 15.7435 26.5974 15.6324C26.553 15.5213 26.4752 15.4102 26.3641 15.2991L17.0641 5.99909C16.8863 5.82131 16.6641 5.73242 16.3974 5.73242C16.1307 5.73242 15.8974 5.83242 15.6974 6.03242C15.4974 6.23242 15.3974 6.46576 15.3974 6.73242C15.3974 6.99909 15.4974 7.23242 15.6974 7.43242L23.2641 14.9991H6.73073C6.44184 14.9991 6.20295 15.0935 6.01406 15.2824C5.82517 15.4713 5.73073 15.7102 5.73073 15.9991C5.73073 16.288 5.82517 16.5269 6.01406 16.7158C6.20295 16.9046 6.44184 16.9991 6.73073 16.9991H23.2641L15.6641 24.5991C15.4863 24.7769 15.3974 24.9991 15.3974 25.2658C15.3974 25.5324 15.4974 25.7658 15.6974 25.9658C15.8974 26.1658 16.1307 26.2658 16.3974 26.2658C16.6641 26.2658 16.8974 26.1658 17.0974 25.9658Z" fill="#98A2B3"/>
</svg>
