<svg width="32" height="32" viewBox="0 0 32 32" fill="none" xmlns="http://www.w3.org/2000/svg">
<path d="M16.0002 20.0998C15.8669 20.0998 15.7446 20.0775 15.6335 20.0331C15.5224 19.9886 15.4113 19.9109 15.3002 19.7998L8.7002 13.1998C8.52242 13.022 8.43909 12.7831 8.4502 12.4831C8.46131 12.1831 8.55575 11.9442 8.73353 11.7664C8.95575 11.5442 9.19464 11.4498 9.4502 11.4831C9.70575 11.5164 9.93353 11.622 10.1335 11.7998L16.0002 17.6664L21.8669 11.7998C22.0446 11.622 22.2835 11.522 22.5835 11.4998C22.8835 11.4775 23.1224 11.5775 23.3002 11.7998C23.5224 11.9775 23.6169 12.2109 23.5835 12.4998C23.5502 12.7886 23.4446 13.0331 23.2669 13.2331L16.7002 19.7998C16.5891 19.9109 16.478 19.9886 16.3669 20.0331C16.2558 20.0775 16.1335 20.0998 16.0002 20.0998Z" fill="#1D2939"/>
</svg>
