<svg width="52" height="42" viewBox="0 0 53 42" fill="none" xmlns="http://www.w3.org/2000/svg">
<path d="M-12 20.9663C-12 14.4485 -10.8321 9.34347 -8.4962 5.65129C-6.12266 1.95912 -2.20443 0.113028 3.25849 0.113028C8.7214 0.113028 12.6208 1.95912 14.9567 5.65129C17.3302 9.34347 18.517 14.4485 18.517 20.9663C18.517 27.5218 17.3302 32.6645 14.9567 36.3943C12.6208 40.1242 8.7214 41.9891 3.25849 41.9891C-2.20443 41.9891 -6.12266 40.1242 -8.4962 36.3943C-10.8321 32.6645 -12 27.5218 -12 20.9663ZM10.7182 20.9663C10.7182 18.1783 10.5298 15.8425 10.1531 13.9587C9.81399 12.0373 9.09816 10.4737 8.00557 9.26812C6.95066 8.06251 5.3683 7.45971 3.25849 7.45971C1.14867 7.45971 -0.452527 8.06251 -1.54511 9.26812C-2.60002 10.4737 -3.31585 12.0373 -3.6926 13.9587C-4.03168 15.8425 -4.20122 18.1783 -4.20122 20.9663C-4.20122 23.8296 -4.03168 26.2408 -3.6926 28.1999C-3.35352 30.1214 -2.63769 31.6849 -1.54511 32.8905C-0.452527 34.0585 1.14867 34.6424 3.25849 34.6424C5.3683 34.6424 6.9695 34.0585 8.06209 32.8905C9.15467 31.6849 9.8705 30.1214 10.2096 28.1999C10.5487 26.2408 10.7182 23.8296 10.7182 20.9663Z" fill="#98A2B3"/>
<path d="M27.0213 33.1731C30.6381 30.1591 33.5203 27.6537 35.6678 25.6569C37.8153 23.6224 39.6048 21.5126 41.0365 19.3274C42.4682 17.1423 43.184 14.9948 43.184 12.8849C43.184 10.9635 42.7319 9.4565 41.8277 8.36392C40.9235 7.27133 39.5295 6.72504 37.6457 6.72504C35.7619 6.72504 34.3115 7.36552 33.2942 8.64648C32.277 9.88976 31.7495 11.604 31.7119 13.7892H24.0261C24.1768 9.26812 25.5143 5.83967 28.0385 3.5038C30.6004 1.16793 33.8405 0 37.7587 0C42.0537 0 45.3503 1.1491 47.6485 3.44729C49.9467 5.70781 51.0958 8.70299 51.0958 12.4328C51.0958 15.3715 50.3046 18.1783 48.7223 20.8533C47.1399 23.5282 45.3315 25.8641 43.297 27.8609C41.2625 29.82 38.6064 32.1935 35.3287 34.9815H52V41.537H24.0826V35.6597L27.0213 33.1731Z" fill="#98A2B3"/>
</svg>
