<svg width="88" height="36" viewBox="0 0 88 36" fill="none" xmlns="http://www.w3.org/2000/svg">
<rect width="88" height="36" rx="4" fill="#F9FAFB"/>
<g style="mix-blend-mode:luminosity">
<mask id="mask0_5121_20932" style="mask-type:luminance" maskUnits="userSpaceOnUse" x="12" y="9" width="64" height="18">
<path d="M76 9H12V27H76V9Z" fill="white"/>
</mask>
<g mask="url(#mask0_5121_20932)">
<path fill-rule="evenodd" clip-rule="evenodd" d="M26.38 21.8926C27.7983 21.8837 29.8037 21.7015 29.8037 19.7935C29.8037 18.8669 29.2757 18.3075 28.214 17.9592C29.0706 17.7293 29.8056 17.0584 29.8056 16.1467C29.8056 14.3034 27.6925 14.1044 26.3818 14.1044H21.9751V21.8956H23.6163V15.6969H27.9125V17.0823H25.1039V18.8639H27.641V20.1748H25.1039V21.8926H26.38ZM22.0357 12.1797C23.1185 11.4105 24.3915 11 25.6937 11H25.6956C27.4416 11.0005 29.1159 11.7383 30.3502 13.051C31.5846 14.3637 32.2781 16.1438 32.2781 18C32.2781 19.3845 31.892 20.7378 31.1684 21.889C30.4449 23.0401 29.4166 23.9373 28.2135 24.4672C27.0103 24.997 25.6865 25.1356 24.4092 24.8655C23.132 24.5954 21.9587 23.9287 21.0379 22.9497C20.1171 21.9708 19.49 20.7235 19.2359 19.3656C18.9818 18.0077 19.1122 16.6003 19.6106 15.3212C20.1089 14.0421 20.9529 12.9489 22.0357 12.1797ZM34.9407 17.0803V11.7216H39.3998C40.3192 11.7216 41.7984 11.854 41.7984 13.128C41.7984 13.754 41.2816 14.1959 40.6806 14.3562C41.4295 14.595 41.7984 15.035 41.7984 15.6371C41.7984 16.9509 40.3941 17.0764 39.3998 17.0803H36.5781L37.0462 16.2572C37.1055 16.1657 37.1848 16.0907 37.2772 16.0387C37.3696 15.9867 37.4725 15.9592 37.5771 15.9586H39.3755C39.7163 15.9646 39.9859 15.7078 39.9859 15.3943C39.9859 15.0808 39.7219 14.828 39.3755 14.828L36.5781 14.824L37.0462 14.0018C37.1054 13.9102 37.1847 13.8352 37.2771 13.7832C37.3696 13.7312 37.4725 13.7038 37.5771 13.7033H39.3998C39.7256 13.7033 39.9906 13.545 39.9906 13.2763C39.9906 13.0075 39.7275 12.8463 39.3998 12.8463H36.5781V14.824V17.0803H34.9407ZM45.7567 13.0155L43.5463 17.0863H41.6215L44.7035 11.7216H46.81L49.8891 17.0823H47.9662L47.4494 16.1268H44.5958L45.0695 15.3047C45.1292 15.2136 45.2086 15.1389 45.3009 15.087C45.3932 15.035 45.4959 15.0073 45.6004 15.0061H46.8362L45.7567 13.0155ZM59.1445 13.0155L59.1422 13.0198L59.1398 13.0155H59.1445ZM59.1422 13.0198L56.936 17.0863H55.0064L58.0875 11.7216H60.194L63.2725 17.0823H61.3539L60.8362 16.1268H57.9836L58.4517 15.3047C58.5109 15.2135 58.5898 15.1387 58.6819 15.0868C58.774 15.0348 58.8764 15.0071 58.9807 15.0061H60.2183L59.1422 13.0198ZM52.8719 15.9586C53.2464 15.9586 53.545 15.7665 53.545 15.3764V11.7216H55.175V15.5376C55.175 16.6942 54.455 17.0823 53.5123 17.0823H50.7879C50.6836 17.081 50.5811 17.0532 50.489 17.0012C50.3968 16.9493 50.3176 16.8747 50.258 16.7837L49.7843 15.9576L52.8719 15.9586ZM66.253 15.9586C66.6278 15.9586 66.9281 15.7665 66.9281 15.3764V11.7216H68.5628V15.5376C68.5628 16.6942 67.8446 17.0823 66.9009 17.0823H64.1767C64.0722 17.0816 63.9695 17.0541 63.8773 17.0021C63.7852 16.9501 63.7057 16.8752 63.6469 16.7837L63.1728 15.9576L66.253 15.9586ZM34.9313 18.8669H38.9683V20.1698H36.33V21.4477H38.7155V22.6809H36.33V24.2316H34.9313V18.8669ZM41.3237 18.8669H39.9194V24.2316H41.3237V18.8669ZM42.5361 18.8669H43.8412L45.9177 21.7025V18.8669H47.3015V24.2316H46.0759L43.9227 21.2895V24.2316H42.5361V18.8669ZM48.8799 22.446L48.1019 23.4344C48.7217 24.0246 49.5718 24.3232 50.4668 24.3232C51.6914 24.3232 52.5058 23.6713 52.5058 22.5764V22.5615C52.5058 21.5572 51.7859 21.1581 50.625 20.8904C49.9256 20.7212 49.7525 20.6147 49.7525 20.3688V20.3539C49.7525 20.1618 49.9182 20.0085 50.2571 20.0085C50.7046 20.0085 51.2083 20.1927 51.6698 20.538L52.3691 19.488C51.8215 19.0202 51.1512 18.7754 50.2936 18.7754C49.0821 18.7754 48.3397 19.4969 48.3397 20.4922V20.5072C48.3397 21.611 49.1683 21.9325 50.2431 22.1932C50.9274 22.3614 51.0931 22.4848 51.0931 22.7068V22.7217C51.0931 22.9517 50.8909 23.09 50.5164 23.09C49.9174 23.0824 49.3392 22.8549 48.8799 22.446ZM53.472 18.8669H57.5305V20.1319H54.8567V20.9441H57.2787V22.1166H54.8567V22.9685H57.567V24.2326H53.472V18.8669ZM60.9552 18.8669H58.5688V24.2316H59.9675V22.6073H60.5797L61.5964 24.2316H63.2114L62.0074 22.3614C62.6347 22.0778 63.0455 21.5343 63.0455 20.7142V20.6983C63.0455 20.1698 62.894 19.7557 62.5982 19.4491C62.2602 19.0819 61.7266 18.8669 60.9552 18.8669ZM61.6348 20.8058C61.6348 21.1969 61.3624 21.4427 60.8858 21.4427H59.9628V20.1548H60.8784C61.3465 20.1548 61.6348 20.3688 61.6348 20.7908V20.8058ZM63.4924 18.8669H65.0568L66.2025 22.2619L67.3455 18.8669H68.881L66.8337 24.2704H65.5397L63.4924 18.8669Z" fill="#0069B4"/>
</g>
</g>
</svg>
