<svg width="32" height="32" viewBox="0 0 32 32" fill="none" xmlns="http://www.w3.org/2000/svg">
<path d="M17.0685 15.5333L20.9018 19.3C21.1018 19.5 21.2018 19.7389 21.2018 20.0167C21.2018 20.2944 21.1018 20.5333 20.9018 20.7333C20.7018 20.9333 20.4685 21.0333 20.2018 21.0333C19.9352 21.0333 19.7018 20.9333 19.5018 20.7333L15.3685 16.6667C15.2574 16.5556 15.1796 16.4389 15.1352 16.3167C15.0907 16.1944 15.0685 16.0667 15.0685 15.9333V10.2333C15.0685 9.94444 15.1629 9.70556 15.3518 9.51667C15.5407 9.32778 15.7796 9.23333 16.0685 9.23333C16.3574 9.23333 16.5963 9.32778 16.7852 9.51667C16.974 9.70556 17.0685 9.94444 17.0685 10.2333V15.5333ZM16.1352 28C14.4685 28 12.9018 27.6833 11.4352 27.05C9.96849 26.4167 8.68516 25.5556 7.58516 24.4667C6.48516 23.3778 5.61849 22.1 4.98516 20.6333C4.35182 19.1667 4.03516 17.6 4.03516 15.9333C4.03516 14.2667 4.35182 12.7111 4.98516 11.2667C5.61849 9.82222 6.48516 8.56111 7.58516 7.48333C8.68516 6.40556 9.96849 5.55556 11.4352 4.93333C12.9018 4.31111 14.4685 4 16.1352 4C17.9129 4 19.5963 4.38889 21.1852 5.16667C22.774 5.94444 24.1463 7.01111 25.3018 8.36667V5.83333C25.3018 5.54444 25.3963 5.30556 25.5852 5.11667C25.774 4.92778 26.0129 4.83333 26.3018 4.83333C26.5907 4.83333 26.8296 4.92778 27.0185 5.11667C27.2074 5.30556 27.3018 5.54444 27.3018 5.83333V10.7667C27.3018 11.0556 27.2074 11.2944 27.0185 11.4833C26.8296 11.6722 26.5907 11.7667 26.3018 11.7667H21.3352C21.0463 11.7667 20.8074 11.6722 20.6185 11.4833C20.4296 11.2944 20.3352 11.0556 20.3352 10.7667C20.3352 10.4778 20.4296 10.2389 20.6185 10.05C20.8074 9.86111 21.0463 9.76667 21.3352 9.76667H23.8352C22.8574 8.63333 21.7074 7.72222 20.3852 7.03333C19.0629 6.34444 17.6463 6 16.1352 6C13.3574 6 10.9796 6.95 9.00182 8.85C7.02404 10.75 6.03516 13.0778 6.03516 15.8333C6.03516 18.6556 7.01293 21.0556 8.96849 23.0333C10.924 25.0111 13.3129 26 16.1352 26C18.7129 26 20.9018 25.1667 22.7018 23.5C24.5018 21.8333 25.5907 19.7556 25.9685 17.2667C26.0129 17 26.1352 16.7722 26.3352 16.5833C26.5352 16.3944 26.7685 16.3111 27.0352 16.3333C27.3463 16.3556 27.5852 16.4778 27.7518 16.7C27.9185 16.9222 27.9796 17.1889 27.9352 17.5C27.5129 20.5 26.2185 23 24.0518 25C21.8852 27 19.2463 28 16.1352 28Z" fill="#109648"/>
</svg>
