<svg width="167" height="48" viewBox="0 0 167 48" fill="none" xmlns="http://www.w3.org/2000/svg">
<path d="M165.23 42.4649C165.23 45.0229 163.114 47.0949 160.498 47.0949H5.6595C3.04449 47.0949 0.921875 45.0229 0.921875 42.4649V5.54228C0.921875 2.98551 3.04449 0.90625 5.6595 0.90625H160.497C163.114 0.90625 165.228 2.98551 165.228 5.54228L165.23 42.4649Z" fill="black"/>
<path d="M160 0.961502C162.849 0.961502 165.168 3.222 165.168 6V42C165.168 44.778 162.849 47.0385 160 47.0385H6.15385C3.30462 47.0385 0.986153 44.778 0.986153 42V6C0.986153 3.222 3.30462 0.961502 6.15385 0.961502H160ZM160 3.8147e-06H6.15385C2.77077 3.8147e-06 0 2.7015 0 6V42C0 45.2985 2.77077 48 6.15385 48H160C163.383 48 166.154 45.2985 166.154 42V6C166.154 2.7015 163.383 3.8147e-06 160 3.8147e-06Z" fill="#A6A6A6"/>
<path d="M37.0789 23.7413C37.0432 19.8737 40.3269 17.9921 40.4771 17.9045C38.6174 15.2609 35.7349 14.8997 34.722 14.8709C32.3011 14.6225 29.9528 16.2833 28.7195 16.2833C27.4617 16.2833 25.5626 14.8949 23.5158 14.9357C20.882 14.9753 18.418 16.4621 17.0666 18.7709C14.2777 23.4785 16.3577 30.3965 19.0297 34.2017C20.3663 36.0653 21.9282 38.1461 23.9725 38.0729C25.9725 37.9925 26.7195 36.8297 29.1331 36.8297C31.5245 36.8297 32.226 38.0729 34.3109 38.0261C36.4574 37.9925 37.8088 36.1541 39.0986 34.2737C40.6432 32.1377 41.2635 30.0341 41.2882 29.9261C41.2377 29.9093 37.1195 28.3769 37.0789 23.7413Z" fill="white"/>
<path d="M33.1405 12.3677C34.2161 11.0561 34.9521 9.27174 34.7478 7.46094C33.1909 7.52814 31.2438 8.51094 30.1226 9.79374C29.1306 10.9241 28.2445 12.7769 28.4734 14.5193C30.2223 14.6465 32.018 13.6589 33.1405 12.3677Z" fill="white"/>
<path d="M60.372 12.0104C60.372 13.4228 59.9375 14.486 59.0698 15.2C58.2661 15.8588 57.124 16.1888 55.6446 16.1888C54.911 16.1888 54.2834 16.1576 53.7578 16.0952V8.37804C54.4434 8.27004 55.1818 8.21484 55.9794 8.21484C57.3886 8.21484 58.4507 8.51364 59.167 9.11124C59.9695 9.78684 60.372 10.7528 60.372 12.0104ZM59.012 12.0452C59.012 11.1296 58.7634 10.4276 58.2661 9.93804C57.7689 9.44964 57.0427 9.20484 56.0864 9.20484C55.6803 9.20484 55.3344 9.23124 55.0477 9.28644V15.1532C55.2064 15.1772 55.4969 15.188 55.919 15.188C56.9061 15.188 57.668 14.9204 58.2046 14.3852C58.7412 13.85 59.012 13.07 59.012 12.0452Z" fill="white"/>
<path d="M67.5809 13.2445C67.5809 14.1145 67.3261 14.8273 66.8166 15.3865C66.2824 15.9613 65.5747 16.2481 64.6911 16.2481C63.8394 16.2481 63.1612 15.9733 62.6554 15.4213C62.1507 14.8705 61.8984 14.1757 61.8984 13.3381C61.8984 12.4621 62.1581 11.7433 62.68 11.1853C63.2018 10.6273 63.9034 10.3477 64.7871 10.3477C65.6387 10.3477 66.3231 10.6225 66.8412 11.1733C67.3335 11.7085 67.5809 12.3997 67.5809 13.2445ZM66.2431 13.2853C66.2431 12.7633 66.1274 12.3157 65.8972 11.9425C65.6264 11.4913 65.2412 11.2657 64.7403 11.2657C64.2221 11.2657 63.8283 11.4913 63.5575 11.9425C63.3261 12.3157 63.2117 12.7705 63.2117 13.3081C63.2117 13.8301 63.3274 14.2777 63.5575 14.6509C63.8369 15.1021 64.2258 15.3277 64.728 15.3277C65.2203 15.3277 65.6067 15.0985 65.8849 14.6389C66.1237 14.2585 66.2431 13.8073 66.2431 13.2853Z" fill="white"/>
<path d="M77.2499 10.4629L75.4345 16.1197H74.253L73.501 13.6633C73.3102 13.0501 73.1551 12.4405 73.0345 11.8357H73.0111C72.8991 12.4573 72.7441 13.0657 72.5447 13.6633L71.7459 16.1197H70.5508L68.8438 10.4629H70.1693L70.8253 13.1521C70.9841 13.7881 71.1145 14.3941 71.2191 14.9677H71.2425C71.3385 14.4949 71.4973 13.8925 71.7213 13.1641L72.5447 10.4641H73.5957L74.3847 13.1065C74.5754 13.7509 74.7305 14.3713 74.8499 14.9689H74.8856C74.973 14.3869 75.1047 13.7665 75.2794 13.1065L75.9834 10.4641H77.2499V10.4629Z" fill="white"/>
<path d="M83.9371 16.1194H82.6472V12.8794C82.6472 11.881 82.2583 11.3818 81.478 11.3818C81.0952 11.3818 80.7863 11.5186 80.5463 11.7934C80.3088 12.0682 80.1882 12.3922 80.1882 12.763V16.1182H78.8983V12.079C78.8983 11.5822 78.8823 11.0434 78.8516 10.4602H79.9851L80.0454 11.3446H80.0811C80.2313 11.0698 80.4553 10.843 80.7494 10.6618C81.0989 10.4506 81.4903 10.3438 81.9186 10.3438C82.4602 10.3438 82.9106 10.5142 83.2688 10.8562C83.7143 11.275 83.9371 11.9002 83.9371 12.7306V16.1194Z" fill="white"/>
<path d="M87.4995 16.1196H86.2109V7.86719H87.4995V16.1196Z" fill="white"/>
<path d="M95.0887 13.2445C95.0887 14.1145 94.8339 14.8273 94.3244 15.3865C93.7903 15.9613 93.0813 16.2481 92.1989 16.2481C91.3459 16.2481 90.6678 15.9733 90.1632 15.4213C89.6586 14.8705 89.4062 14.1757 89.4062 13.3381C89.4062 12.4621 89.6659 11.7433 90.1878 11.1853C90.7096 10.6273 91.4112 10.3477 92.2936 10.3477C93.1466 10.3477 93.8296 10.6225 94.349 11.1733C94.8413 11.7085 95.0887 12.3997 95.0887 13.2445ZM93.7496 13.2853C93.7496 12.7633 93.6339 12.3157 93.4038 11.9425C93.1343 11.4913 92.7478 11.2657 92.2481 11.2657C91.7287 11.2657 91.3349 11.4913 91.0653 11.9425C90.8339 12.3157 90.7195 12.7705 90.7195 13.3081C90.7195 13.8301 90.8352 14.2777 91.0653 14.6509C91.3447 15.1021 91.7336 15.3277 92.2358 15.3277C92.7281 15.3277 93.1133 15.0985 93.3915 14.6389C93.6315 14.2585 93.7496 13.8073 93.7496 13.2853Z" fill="white"/>
<path d="M101.333 16.1197H100.175L100.079 15.4681H100.044C99.6472 15.9877 99.0823 16.2481 98.3488 16.2481C97.8011 16.2481 97.358 16.0765 97.0245 15.7357C96.7217 15.4261 96.5703 15.0409 96.5703 14.5837C96.5703 13.8925 96.8657 13.3657 97.4602 13.0009C98.0534 12.6361 98.8879 12.4573 99.9623 12.4657V12.3601C99.9623 11.6149 99.5611 11.2429 98.7574 11.2429C98.1851 11.2429 97.6805 11.3833 97.2448 11.6617L96.9826 10.8361C97.5217 10.5109 98.1875 10.3477 98.9728 10.3477C100.489 10.3477 101.25 11.1277 101.25 12.6877V14.7709C101.25 15.3361 101.278 15.7861 101.333 16.1197ZM99.9943 14.1757V13.3033C98.5715 13.2793 97.8602 13.6597 97.8602 14.4433C97.8602 14.7385 97.9414 14.9593 98.1075 15.1069C98.2737 15.2545 98.4854 15.3277 98.7377 15.3277C99.0208 15.3277 99.2854 15.2401 99.5266 15.0661C99.7691 14.8909 99.918 14.6689 99.9734 14.3965C99.9869 14.3353 99.9943 14.2609 99.9943 14.1757Z" fill="white"/>
<path d="M108.663 16.1196H107.519L107.459 15.2112H107.423C107.057 15.9024 106.435 16.248 105.559 16.248C104.86 16.248 104.278 15.9804 103.817 15.4452C103.355 14.91 103.125 14.2152 103.125 13.362C103.125 12.4464 103.375 11.7048 103.877 11.1384C104.363 10.6104 104.959 10.3464 105.668 10.3464C106.447 10.3464 106.992 10.602 107.302 11.1144H107.327V7.86719H108.618V14.5956C108.618 15.1464 108.633 15.654 108.663 16.1196ZM107.327 13.734V12.7908C107.327 12.6276 107.315 12.4956 107.291 12.3948C107.219 12.0924 107.062 11.838 106.825 11.6328C106.585 11.4276 106.295 11.3244 105.962 11.3244C105.481 11.3244 105.104 11.5104 104.827 11.8836C104.553 12.2568 104.414 12.7332 104.414 13.3152C104.414 13.8744 104.545 14.328 104.81 14.6772C105.089 15.0492 105.466 15.2352 105.937 15.2352C106.361 15.2352 106.699 15.0804 106.956 14.7696C107.205 14.4828 107.327 14.1372 107.327 13.734Z" fill="white"/>
<path d="M119.69 13.2445C119.69 14.1145 119.435 14.8273 118.926 15.3865C118.392 15.9613 117.685 16.2481 116.8 16.2481C115.95 16.2481 115.272 15.9733 114.765 15.4213C114.26 14.8705 114.008 14.1757 114.008 13.3381C114.008 12.4621 114.268 11.7433 114.789 11.1853C115.311 10.6273 116.013 10.3477 116.898 10.3477C117.748 10.3477 118.434 10.6225 118.951 11.1733C119.443 11.7085 119.69 12.3997 119.69 13.2445ZM118.354 13.2853C118.354 12.7633 118.238 12.3157 118.008 11.9425C117.736 11.4913 117.352 11.2657 116.85 11.2657C116.333 11.2657 115.939 11.4913 115.667 11.9425C115.436 12.3157 115.321 12.7705 115.321 13.3081C115.321 13.8301 115.437 14.2777 115.667 14.6509C115.946 15.1021 116.335 15.3277 116.837 15.3277C117.33 15.3277 117.717 15.0985 117.996 14.6389C118.233 14.2585 118.354 13.8073 118.354 13.2853Z" fill="white"/>
<path d="M126.631 16.1194H125.343V12.8794C125.343 11.881 124.954 11.3818 124.172 11.3818C123.789 11.3818 123.48 11.5186 123.242 11.7934C123.003 12.0682 122.883 12.3922 122.883 12.763V16.1182H121.592V12.079C121.592 11.5822 121.578 11.0434 121.547 10.4602H122.679L122.739 11.3446H122.775C122.927 11.0698 123.151 10.843 123.443 10.6618C123.794 10.4506 124.184 10.3438 124.614 10.3438C125.154 10.3438 125.605 10.5142 125.963 10.8562C126.41 11.275 126.631 11.9002 126.631 12.7306V16.1194Z" fill="white"/>
<path d="M135.307 11.4055H133.887V14.1535C133.887 14.8519 134.139 15.2011 134.639 15.2011C134.87 15.2011 135.062 15.1819 135.213 15.1423L135.247 16.0963C134.992 16.1899 134.657 16.2367 134.245 16.2367C133.735 16.2367 133.339 16.0855 133.052 15.7831C132.764 15.4807 132.621 14.9719 132.621 14.2579V11.4055H131.773V10.4635H132.621V9.42669L133.885 9.05469V10.4623H135.306V11.4055H135.307Z" fill="white"/>
<path d="M142.14 16.1196H140.849V12.9036C140.849 11.8896 140.46 11.382 139.681 11.382C139.083 11.382 138.674 11.676 138.45 12.264C138.412 12.3876 138.39 12.5388 138.39 12.7164V16.1184H137.102V7.86719H138.39V11.2764H138.415C138.821 10.656 139.403 10.3464 140.158 10.3464C140.692 10.3464 141.134 10.5168 141.484 10.8588C141.921 11.2848 142.14 11.9184 142.14 12.756V16.1196Z" fill="white"/>
<path d="M149.182 13.0227C149.182 13.2483 149.164 13.4379 149.134 13.5927H145.265C145.283 14.1519 145.467 14.5779 145.825 14.8731C146.153 15.1371 146.575 15.2691 147.092 15.2691C147.664 15.2691 148.186 15.1803 148.656 15.0015L148.858 15.8751C148.308 16.1079 147.66 16.2243 146.911 16.2243C146.012 16.2243 145.305 15.9663 144.793 15.4503C144.278 14.9343 144.023 14.2419 144.023 13.3731C144.023 12.5199 144.261 11.8095 144.74 11.2431C145.239 10.6383 145.915 10.3359 146.768 10.3359C147.603 10.3359 148.236 10.6383 148.665 11.2431C149.011 11.7231 149.182 12.3171 149.182 13.0227ZM147.951 12.6975C147.961 12.3243 147.876 12.0027 147.701 11.7315C147.477 11.3823 147.136 11.2071 146.675 11.2071C146.254 11.2071 145.91 11.3775 145.648 11.7195C145.434 11.9919 145.307 12.3171 145.265 12.6975H147.951Z" fill="white"/>
<path d="M66.023 37.8055H63.2279L61.6968 33.1147H56.375L54.9165 37.8055H52.1953L57.4679 21.8359H60.7245L66.023 37.8055ZM61.2353 31.1467L59.8507 26.9767C59.7042 26.5507 59.4298 25.5475 59.0248 23.9683H58.9756C58.8144 24.6475 58.5547 25.6507 58.1978 26.9767L56.8378 31.1467H61.2353Z" fill="white"/>
<path d="M79.5845 31.9051C79.5845 33.8635 79.0417 35.4115 77.9562 36.5479C76.9839 37.5595 75.7765 38.0647 74.3352 38.0647C72.7795 38.0647 71.662 37.5199 70.9814 36.4303H70.9322V42.4963H68.3082V30.0799C68.3082 28.8487 68.2749 27.5851 68.2109 26.2891H70.5186L70.6651 28.1143H70.7143C71.5894 26.7391 72.9174 26.0527 74.6995 26.0527C76.0928 26.0527 77.2559 26.5891 78.1863 27.6631C79.1192 28.7383 79.5845 30.1519 79.5845 31.9051ZM76.9112 31.9987C76.9112 30.8779 76.6528 29.9539 76.1334 29.2267C75.566 28.4683 74.8042 28.0891 73.8491 28.0891C73.2017 28.0891 72.6134 28.3003 72.0879 28.7167C71.5611 29.1367 71.2165 29.6851 71.0552 30.3643C70.974 30.6811 70.9334 30.9403 70.9334 31.1443V33.0643C70.9334 33.9019 71.1968 34.6087 71.7236 35.1859C72.2503 35.7631 72.9346 36.0511 73.7765 36.0511C74.7648 36.0511 75.534 35.6791 76.0842 34.9375C76.6355 34.1947 76.9112 33.2155 76.9112 31.9987Z" fill="white"/>
<path d="M93.1692 31.9051C93.1692 33.8635 92.6264 35.4115 91.5396 36.5479C90.5686 37.5595 89.3612 38.0647 87.9199 38.0647C86.3643 38.0647 85.2467 37.5199 84.5673 36.4303H84.5181V42.4963H81.8941V30.0799C81.8941 28.8487 81.8609 27.5851 81.7969 26.2891H84.1046L84.251 28.1143H84.3003C85.1741 26.7391 86.5021 26.0527 88.2855 26.0527C89.6775 26.0527 90.8406 26.5891 91.7735 27.6631C92.7027 28.7383 93.1692 30.1519 93.1692 31.9051ZM90.496 31.9987C90.496 30.8779 90.2363 29.9539 89.7169 29.2267C89.1495 28.4683 88.3901 28.0891 87.4338 28.0891C86.7852 28.0891 86.1981 28.3003 85.6713 28.7167C85.1446 29.1367 84.8012 29.6851 84.6399 30.3643C84.5599 30.6811 84.5181 30.9403 84.5181 31.1443V33.0643C84.5181 33.9019 84.7815 34.6087 85.3058 35.1859C85.8326 35.7619 86.5169 36.0511 87.3612 36.0511C88.3495 36.0511 89.1187 35.6791 89.6689 34.9375C90.2203 34.1947 90.496 33.2155 90.496 31.9987Z" fill="white"/>
<path d="M108.357 33.3268C108.357 34.6852 107.873 35.7904 106.902 36.6436C105.835 37.576 104.349 38.0416 102.44 38.0416C100.678 38.0416 99.2649 37.7104 98.1953 37.0468L98.8033 34.9144C99.9553 35.5936 101.219 35.9344 102.597 35.9344C103.585 35.9344 104.354 35.716 104.907 35.2816C105.457 34.8472 105.731 34.264 105.731 33.5368C105.731 32.8888 105.505 32.3428 105.051 31.9C104.599 31.4572 103.845 31.0456 102.791 30.6652C99.9233 29.6224 98.4907 28.0948 98.4907 26.086C98.4907 24.7732 98.9929 23.6968 99.9984 22.8592C101 22.0204 102.337 21.6016 104.008 21.6016C105.499 21.6016 106.737 21.8548 107.725 22.36L107.069 24.4456C106.146 23.956 105.102 23.7112 103.934 23.7112C103.011 23.7112 102.29 23.9332 101.773 24.3748C101.336 24.7696 101.117 25.2508 101.117 25.8208C101.117 26.452 101.367 26.974 101.869 27.3844C102.306 27.7636 103.1 28.174 104.252 28.6168C105.661 29.17 106.696 29.8168 107.362 30.5584C108.025 31.2976 108.357 32.2228 108.357 33.3268Z" fill="white"/>
<path d="M117.029 28.2091H114.136V33.7999C114.136 35.2219 114.646 35.9323 115.667 35.9323C116.136 35.9323 116.525 35.8927 116.833 35.8135L116.905 37.7563C116.389 37.9447 115.708 38.0395 114.865 38.0395C113.829 38.0395 113.019 37.7311 112.434 37.1155C111.852 36.4987 111.559 35.4643 111.559 34.0111V28.2067H109.836V26.2867H111.559V24.1783L114.136 23.4199V26.2867H117.029V28.2091Z" fill="white"/>
<path d="M130.076 31.9527C130.076 33.7227 129.556 35.1759 128.52 36.3123C127.433 37.4823 125.991 38.0655 124.193 38.0655C122.46 38.0655 121.08 37.5051 120.051 36.3843C119.022 35.2635 118.508 33.8487 118.508 32.1435C118.508 30.3591 119.037 28.8975 120.099 27.7611C121.159 26.6235 122.589 26.0547 124.387 26.0547C126.12 26.0547 127.515 26.6151 128.567 27.7371C129.574 28.8255 130.076 30.2307 130.076 31.9527ZM127.353 32.0355C127.353 30.9735 127.121 30.0627 126.649 29.3031C126.099 28.3839 125.313 27.9255 124.294 27.9255C123.239 27.9255 122.438 28.3851 121.888 29.3031C121.416 30.0639 121.184 30.9891 121.184 32.0835C121.184 33.1455 121.416 34.0563 121.888 34.8147C122.455 35.7339 123.247 36.1923 124.27 36.1923C125.272 36.1923 126.059 35.7243 126.626 34.7907C127.11 34.0167 127.353 33.0963 127.353 32.0355Z" fill="white"/>
<path d="M138.608 28.5391C138.348 28.4923 138.071 28.4683 137.781 28.4683C136.858 28.4683 136.144 28.8079 135.642 29.4883C135.205 30.0883 134.986 30.8467 134.986 31.7623V37.8043H132.363L132.388 29.9155C132.388 28.5883 132.354 27.3799 132.289 26.2903H134.575L134.671 28.4935H134.743C135.02 27.7363 135.457 27.1267 136.055 26.6695C136.64 26.2579 137.271 26.0527 137.952 26.0527C138.194 26.0527 138.413 26.0695 138.608 26.0995V28.5391Z" fill="white"/>
<path d="M150.348 31.502C150.348 31.9604 150.317 32.3468 150.252 32.6624H142.38C142.41 33.8 142.791 34.67 143.522 35.27C144.185 35.8064 145.043 36.0752 146.096 36.0752C147.262 36.0752 148.325 35.894 149.282 35.5304L149.693 37.3064C148.575 37.7816 147.256 38.018 145.733 38.018C143.902 38.018 142.464 37.4924 141.418 36.4424C140.375 35.3924 139.852 33.9824 139.852 32.2136C139.852 30.4772 140.338 29.0312 141.311 27.878C142.33 26.6468 143.708 26.0312 145.44 26.0312C147.143 26.0312 148.431 26.6468 149.306 27.878C149.999 28.856 150.348 30.0656 150.348 31.502ZM147.845 30.8384C147.863 30.08 147.692 29.4248 147.336 28.8716C146.882 28.16 146.184 27.8048 145.245 27.8048C144.387 27.8048 143.689 28.1516 143.156 28.8477C142.719 29.4009 142.46 30.0644 142.38 30.8372H147.845V30.8384Z" fill="white"/>
</svg>
