<svg width="64" height="64" viewBox="0 0 64 64" fill="none" xmlns="http://www.w3.org/2000/svg">
<circle cx="32" cy="32" r="32" fill="#F3FAF6"/>
<path d="M25.6615 30.0007C24.4615 30.0007 23.4392 29.5784 22.5948 28.734C21.7503 27.8895 21.3281 26.8673 21.3281 25.6673C21.3281 24.4673 21.7503 23.4451 22.5948 22.6007C23.4392 21.7562 24.4615 21.334 25.6615 21.334C26.8615 21.334 27.8837 21.7562 28.7281 22.6007C29.5726 23.4451 29.9948 24.4673 29.9948 25.6673C29.9948 26.8673 29.5726 27.8895 28.7281 28.734C27.8837 29.5784 26.8615 30.0007 25.6615 30.0007ZM25.6615 28.0007C26.3059 28.0007 26.8559 27.7729 27.3115 27.3173C27.767 26.8618 27.9948 26.3118 27.9948 25.6673C27.9948 25.0229 27.767 24.4729 27.3115 24.0173C26.8559 23.5618 26.3059 23.334 25.6615 23.334C25.017 23.334 24.467 23.5618 24.0115 24.0173C23.5559 24.4729 23.3281 25.0229 23.3281 25.6673C23.3281 26.3118 23.5559 26.8618 24.0115 27.3173C24.467 27.7729 25.017 28.0007 25.6615 28.0007ZM38.3281 42.6673C37.1281 42.6673 36.1059 42.2451 35.2615 41.4006C34.417 40.5562 33.9948 39.534 33.9948 38.334C33.9948 37.134 34.417 36.1118 35.2615 35.2673C36.1059 34.4229 37.1281 34.0007 38.3281 34.0007C39.5281 34.0007 40.5503 34.4229 41.3948 35.2673C42.2392 36.1118 42.6615 37.134 42.6615 38.334C42.6615 39.534 42.2392 40.5562 41.3948 41.4006C40.5503 42.2451 39.5281 42.6673 38.3281 42.6673ZM38.3281 40.6673C38.9726 40.6673 39.5226 40.4395 39.9781 39.984C40.4337 39.5284 40.6615 38.9784 40.6615 38.334C40.6615 37.6895 40.4337 37.1395 39.9781 36.684C39.5226 36.2284 38.9726 36.0007 38.3281 36.0007C37.6837 36.0007 37.1337 36.2284 36.6781 36.684C36.2226 37.1395 35.9948 37.6895 35.9948 38.334C35.9948 38.9784 36.2226 39.5284 36.6781 39.984C37.1337 40.4395 37.6837 40.6673 38.3281 40.6673ZM22.0281 41.9673C21.8281 41.7673 21.7281 41.534 21.7281 41.2673C21.7281 41.0007 21.8281 40.7673 22.0281 40.5673L40.5615 22.034C40.7615 21.834 40.9948 21.734 41.2615 21.734C41.5281 21.734 41.7615 21.834 41.9615 22.034C42.1615 22.234 42.2615 22.4673 42.2615 22.734C42.2615 23.0007 42.1615 23.234 41.9615 23.434L23.4281 41.9673C23.2281 42.1673 22.9948 42.2673 22.7281 42.2673C22.4615 42.2673 22.2281 42.1673 22.0281 41.9673Z" fill="#109648"/>
</svg>
