<svg width="644" height="535" viewBox="0 0 644 535" fill="none" xmlns="http://www.w3.org/2000/svg">
<g filter="url(#filter0_d_6288_14807)">
<rect x="50" y="20" width="544" height="440" rx="24" fill="#F9FAFB"/>
</g>
<mask id="mask0_6288_14807" style="mask-type:alpha" maskUnits="userSpaceOnUse" x="50" y="20" width="544" height="440">
<rect x="50" y="20" width="544" height="440" rx="24" fill="#F9FAFB"/>
</mask>
<g mask="url(#mask0_6288_14807)">
<path d="M594 -47H50V497H594V-47Z" fill="#F9FAFB"/>
<path opacity="0.3" d="M594 407.344L332.227 425.731C332.227 425.514 332.118 425.296 332.01 424.97L594 388.195V368.611L331.792 424.317C331.792 424.208 331.683 424.099 331.683 423.99L594 348.592V327.594L331.466 423.446C331.357 423.229 331.248 423.011 331.139 422.794L594 305.29V281.789L330.922 422.358C330.813 422.141 330.704 421.923 330.486 421.814L594 256.547V228.912L330.051 421.27C329.834 421.053 329.725 420.835 329.507 420.726L593.891 198.339V163.85L328.963 420.074C328.746 419.965 328.637 419.747 328.419 419.638L594 124.355V78.3328L327.658 419.094C327.44 418.986 327.331 418.877 327.114 418.768L594 23.1712V-42H592.477L326.461 418.442C326.243 418.333 326.134 418.333 325.917 418.224L550.371 -42H511.094L325.373 418.006C325.264 418.006 325.046 417.898 324.938 417.898L473.885 -42H438.416L324.502 417.789C324.394 417.789 324.176 417.68 323.958 417.68L404.144 -42H370.742L323.306 417.571C322.979 417.571 322.762 417.571 322.435 417.462L337.994 -42H305.462L321.456 417.571C321.238 417.571 320.912 417.571 320.694 417.68L272.605 -42H239.312L320.042 417.68C319.933 417.68 319.715 417.789 319.606 417.789L205.04 -42H169.571L319.171 418.006C319.062 418.006 318.954 418.115 318.736 418.115L132.253 -42H93.0848L318.192 418.333C317.974 418.442 317.866 418.55 317.648 418.55L50.9792 -42H50V23.9328L316.995 418.877C316.778 418.986 316.56 419.094 316.342 419.203L50 78.8768V124.79L315.798 419.747C315.581 419.856 315.363 420.074 315.254 420.291L50 164.176V198.557L314.602 420.835C314.384 421.053 314.275 421.162 314.058 421.379L50 229.13V256.765L313.622 421.814C313.514 422.032 313.405 422.141 313.296 422.358L50 282.224V305.725L312.97 423.011C312.861 423.12 312.861 423.338 312.752 423.446L50 327.811V348.81L312.534 423.882C312.426 423.99 312.426 424.208 312.317 424.426L50 368.938V388.522L312.208 424.97C312.099 425.187 312.099 425.514 311.99 425.731L50 407.67V427.254L311.882 426.384C311.773 426.819 311.773 427.254 311.773 427.798L50 446.512V465.77L311.882 428.669C311.882 428.886 311.882 429.104 311.99 429.322L50 485.245V502H61.968L312.099 429.757C312.099 429.974 312.208 430.083 312.208 430.301L116.694 502H153.795L312.317 430.954C312.426 431.171 312.426 431.389 312.534 431.498L180.886 502H201.776L312.861 432.15C312.97 432.368 313.078 432.586 313.187 432.912L218.531 502H232.458L313.622 433.674C313.84 433.891 313.949 434.109 314.166 434.326L244.317 502H254.653L314.819 435.088C315.037 435.306 315.254 435.523 315.472 435.632L263.683 502H271.734L316.125 436.176C316.342 436.285 316.56 436.502 316.778 436.611L279.024 502H285.661L317.322 436.938C317.539 437.046 317.648 437.155 317.866 437.264L291.862 502H297.629L318.41 437.482C318.627 437.59 318.845 437.59 318.954 437.699L303.178 502H308.509L319.606 437.808C319.824 437.917 320.15 437.917 320.477 438.026L313.949 502H319.28L321.347 438.134C321.565 438.134 321.782 438.134 322.109 438.134C322.218 438.134 322.435 438.134 322.544 438.134L324.829 502H330.378L323.632 438.026C323.85 438.026 324.176 437.917 324.394 437.917L335.709 502H341.149L325.046 437.699C325.264 437.59 325.482 437.59 325.699 437.482L346.698 502H352.355L326.026 437.373C326.243 437.264 326.461 437.155 326.678 437.046L358.557 502H365.302L327.44 436.72C327.658 436.611 327.875 436.502 328.093 436.285L372.701 502H380.861L328.854 435.741C329.072 435.523 329.29 435.306 329.507 435.088L389.891 502H400.227L330.16 434.435C330.378 434.218 330.486 434 330.704 433.782L412.195 502H426.339L331.248 433.021C331.357 432.803 331.466 432.586 331.574 432.368L443.203 502H464.419L331.901 431.606C332.01 431.389 332.01 431.28 332.118 431.062L491.728 502H529.59L332.118 430.41C332.118 430.192 332.227 430.083 332.227 429.866L585.514 502H594V484.266L332.336 429.322C332.336 429.104 332.445 428.886 332.445 428.669L594 464.79V445.533L332.445 427.798C332.445 427.472 332.445 427.146 332.445 426.71L594 426.384V407.344Z" fill="url(#paint0_radial_6288_14807)"/>
</g>
<path d="M470.306 295.667C470.306 292.396 467.607 289.697 464.336 289.697H394.173C390.902 289.697 388.203 292.396 388.203 295.667V323.716C388.203 326.987 390.902 329.686 394.173 329.686H464.336C467.607 329.686 470.306 326.987 470.306 323.716V295.667Z" fill="#406052"/>
<path d="M386.087 329.768C382.816 329.768 380.117 327.069 380.117 323.798V295.749C380.117 292.478 382.816 289.779 386.087 289.779H456.25C459.521 289.779 462.22 292.478 462.22 295.749V323.798C462.22 327.069 459.521 329.768 456.25 329.768H386.087Z" fill="#BDEFDC"/>
<path d="M456.335 327.725H386.171C383.963 327.725 382.164 325.926 382.164 323.718V295.669C382.164 293.461 383.963 291.662 386.171 291.662H456.335C458.543 291.662 460.342 293.461 460.342 295.669V323.718C460.26 325.926 458.461 327.725 456.335 327.725Z" fill="#8ED2BB"/>
<path d="M456.254 291.742H421.172V327.723H456.254C458.462 327.723 460.261 325.924 460.261 323.716V295.667C460.261 293.459 458.462 291.742 456.254 291.742Z" fill="#64A08A"/>
<path d="M437.771 309.731C437.771 318.89 430.33 326.332 421.171 326.332C412.012 326.332 404.57 318.89 404.57 309.731C404.57 300.572 412.012 293.131 421.171 293.131C430.33 293.131 437.771 300.572 437.771 309.731Z" fill="#BDEFDC"/>
<path d="M429.176 299.92C429.176 299.348 428.686 298.857 428.113 298.857H414.212C413.639 298.857 413.148 299.348 413.148 299.92C413.148 300.493 413.639 300.984 414.212 300.984H417.973C420.099 300.984 421.98 302.21 422.634 304.009H414.212C413.639 304.009 413.148 304.5 413.148 305.072C413.148 305.645 413.639 306.135 414.212 306.135H422.962C422.716 308.425 420.59 310.224 417.973 310.224H414.212C413.639 310.224 413.148 310.715 413.148 311.287C413.148 311.86 413.639 312.35 414.212 312.35H416.501L423.452 321.673C423.697 322 424.106 322.163 424.433 322.163C425.497 322.163 426.069 320.937 425.415 320.119L419.609 312.35H428.032C428.604 312.35 429.095 311.86 429.095 311.287C429.095 310.715 428.604 310.224 428.032 310.224H424.27C425.251 309.079 425.905 307.689 425.987 306.135H428.032C428.604 306.135 429.095 305.645 429.095 305.072C429.095 304.5 428.604 304.009 428.032 304.009H425.824C425.578 302.864 425.006 301.883 424.27 300.984H428.032C428.686 300.984 429.176 300.493 429.176 299.92Z" fill="#406052"/>
<path d="M393.854 291.742H386.085C383.877 291.742 382.078 293.541 382.078 295.749V303.518C388.538 303.354 393.69 298.202 393.854 291.742Z" fill="#406052"/>
<path d="M382.078 316.029V323.798C382.078 326.006 383.877 327.805 386.085 327.805H393.854C393.69 321.345 388.538 316.111 382.078 316.029Z" fill="#406052"/>
<path d="M448.57 327.723H456.339C458.547 327.723 460.346 325.924 460.346 323.716V315.947C453.804 316.111 448.652 321.263 448.57 327.723Z" fill="#406052"/>
<path d="M460.26 303.438V295.669C460.26 293.461 458.461 291.662 456.253 291.662H448.484C448.648 298.122 453.882 303.356 460.26 303.438Z" fill="#406052"/>
<path d="M295.376 295.665C295.376 292.394 292.678 289.695 289.407 289.695H219.243C215.972 289.695 213.273 292.394 213.273 295.665V323.714C213.273 326.985 215.972 329.684 219.243 329.684H289.407C292.678 329.684 295.376 326.985 295.376 323.714V295.665Z" fill="#406052"/>
<path d="M211.235 329.764C207.964 329.764 205.266 327.065 205.266 323.794V295.745C205.266 292.474 207.964 289.775 211.235 289.775H281.399C284.67 289.775 287.368 292.474 287.368 295.745V323.794C287.368 327.065 284.67 329.764 281.399 329.764H211.235Z" fill="#BDEFDC"/>
<path d="M281.397 327.719H211.234C209.026 327.719 207.227 325.92 207.227 323.712V295.663C207.227 293.455 209.026 291.656 211.234 291.656H281.397C283.605 291.656 285.404 293.455 285.404 295.663V323.712C285.322 325.92 283.605 327.719 281.397 327.719Z" fill="#8ED2BB"/>
<path d="M281.402 291.738H246.32V327.72H281.402C283.61 327.72 285.409 325.921 285.409 323.713V295.664C285.327 293.456 283.61 291.738 281.402 291.738Z" fill="#64A08A"/>
<path d="M258.05 321.443C264.533 314.96 264.533 304.45 258.05 297.967C251.568 291.484 241.057 291.484 234.574 297.967C228.091 304.45 228.091 314.96 234.574 321.443C241.057 327.926 251.568 327.926 258.05 321.443Z" fill="#BDEFDC"/>
<path d="M254.247 299.913C254.247 299.34 253.756 298.85 253.184 298.85H239.282C238.709 298.85 238.219 299.34 238.219 299.913C238.219 300.485 238.709 300.976 239.282 300.976H243.044C245.17 300.976 247.051 302.202 247.705 304.001H239.282C238.709 304.001 238.219 304.492 238.219 305.065C238.219 305.637 238.709 306.128 239.282 306.128H248.032C247.787 308.417 245.66 310.216 243.044 310.216H239.282C238.709 310.216 238.219 310.707 238.219 311.279C238.219 311.852 238.709 312.343 239.282 312.343H241.572L248.522 321.665C248.768 321.992 249.177 322.156 249.504 322.156C250.567 322.156 251.139 320.929 250.485 320.111L244.679 312.343H253.102C253.674 312.343 254.165 311.852 254.165 311.279C254.165 310.707 253.674 310.216 253.102 310.216H249.34C250.322 309.072 250.976 307.681 251.058 306.128H253.102C253.674 306.128 254.165 305.637 254.165 305.065C254.165 304.492 253.674 304.001 253.102 304.001H250.894C250.649 302.857 250.076 301.875 249.34 300.976H253.102C253.838 300.976 254.247 300.485 254.247 299.913Z" fill="#406052"/>
<path d="M218.924 291.738H211.155C208.947 291.738 207.148 293.537 207.148 295.745V303.514C213.609 303.35 218.842 298.199 218.924 291.738Z" fill="#406052"/>
<path d="M207.227 316.025V323.794C207.227 326.002 209.026 327.801 211.234 327.801H219.002C218.839 321.341 213.605 316.107 207.227 316.025Z" fill="#406052"/>
<path d="M273.633 327.719H281.402C283.609 327.719 285.409 325.92 285.409 323.712V315.943C278.948 316.107 273.796 321.259 273.633 327.719Z" fill="#406052"/>
<path d="M285.409 303.432V295.663C285.409 293.455 283.609 291.656 281.402 291.656H273.633C273.715 298.117 278.948 303.35 285.409 303.432Z" fill="#406052"/>
<path d="M473.485 426.514H170.915C166.908 426.514 163.719 423.243 163.719 419.317C163.719 415.31 166.99 412.121 170.915 412.121H473.485C477.492 412.121 480.681 415.392 480.681 419.317C480.681 423.243 477.41 426.514 473.485 426.514Z" fill="#E4E7EC"/>
<path d="M463.84 418.743H418.128C416.492 418.743 415.266 417.434 415.266 415.881V406.804C415.266 405.168 416.574 403.941 418.128 403.941H463.84C465.476 403.941 466.703 405.25 466.703 406.804V415.881C466.703 417.434 465.476 418.743 463.84 418.743Z" fill="#996B20"/>
<path d="M451.419 418.743H405.706C404.07 418.743 402.844 417.434 402.844 415.881V406.804C402.844 405.168 404.152 403.941 405.706 403.941H451.419C453.054 403.941 454.281 405.25 454.281 406.804V415.881C454.362 417.434 453.054 418.743 451.419 418.743Z" fill="#DBA32C"/>
<path d="M426.64 418.743V403.859H405.706C404.07 403.859 402.844 405.168 402.844 406.722V415.799C402.844 417.434 404.152 418.661 405.706 418.661H426.64V418.743Z" fill="#EDCB3A"/>
<path d="M434.823 403.859H429.508V418.743H434.823V403.859Z" fill="#EDCB3A"/>
<path d="M440.382 403.859H437.602V418.743H440.382V403.859Z" fill="#EDCB3A"/>
<path d="M459.52 403.942H413.807C412.172 403.942 410.945 402.633 410.945 401.08V391.921C410.945 390.285 412.254 389.059 413.807 389.059H459.52C461.156 389.059 462.382 390.367 462.382 391.921V400.998C462.464 402.633 461.156 403.942 459.52 403.942Z" fill="#996B20"/>
<path d="M447.161 403.942H401.448C399.813 403.942 398.586 402.633 398.586 401.08V391.921C398.586 390.285 399.894 389.059 401.448 389.059H447.161C448.796 389.059 450.023 390.367 450.023 391.921V400.998C450.023 402.633 448.714 403.942 447.161 403.942Z" fill="#DBA32C"/>
<path d="M422.383 403.942V389.059H401.448C399.813 389.059 398.586 390.367 398.586 391.921V400.998C398.586 402.633 399.894 403.86 401.448 403.86H422.383V403.942Z" fill="#EDCB3A"/>
<path d="M430.565 389.059H425.25V403.942H430.565V389.059Z" fill="#EDCB3A"/>
<path d="M436.038 389.059H433.258V403.942H436.038V389.059Z" fill="#EDCB3A"/>
<path d="M469.161 389.139H423.448C421.813 389.139 420.586 387.831 420.586 386.277V377.2C420.586 375.565 421.894 374.338 423.448 374.338H469.161C470.796 374.338 472.023 375.646 472.023 377.2V386.195C472.105 387.831 470.796 389.139 469.161 389.139Z" fill="#996B20"/>
<path d="M456.801 389.139H411.089C409.453 389.139 408.227 387.831 408.227 386.277V377.2C408.227 375.565 409.535 374.338 411.089 374.338H456.801C458.437 374.338 459.663 375.646 459.663 377.2V386.195C459.663 387.831 458.437 389.139 456.801 389.139Z" fill="#DBA32C"/>
<path d="M432.023 389.139V374.256H411.089C409.453 374.256 408.227 375.564 408.227 377.118V386.195C408.227 387.831 409.535 389.057 411.089 389.057H432.023V389.139Z" fill="#EDCB3A"/>
<path d="M440.206 374.256H434.891V389.139H440.206V374.256Z" fill="#EDCB3A"/>
<path d="M445.765 374.256H442.984V389.139H445.765V374.256Z" fill="#EDCB3A"/>
<path d="M460.997 374.34H415.284C413.649 374.34 412.422 373.032 412.422 371.478V362.401C412.422 360.766 413.73 359.539 415.284 359.539H460.997C462.632 359.539 463.859 360.847 463.859 362.401V371.478C463.941 373.032 462.632 374.34 460.997 374.34Z" fill="#996B20"/>
<path d="M448.637 374.34H402.925C401.289 374.34 400.062 373.032 400.062 371.478V362.401C400.062 360.766 401.371 359.539 402.925 359.539H448.637C450.273 359.539 451.499 360.847 451.499 362.401V371.478C451.499 373.032 450.191 374.34 448.637 374.34Z" fill="#DBA32C"/>
<path d="M423.859 374.34V359.457H402.925C401.289 359.457 400.062 360.765 400.062 362.319V371.396C400.062 373.032 401.371 374.258 402.925 374.258H423.859V374.34Z" fill="#EDCB3A"/>
<path d="M432.042 359.457H426.727V374.34H432.042V359.457Z" fill="#EDCB3A"/>
<path d="M437.601 359.457H434.82V374.34H437.601V359.457Z" fill="#EDCB3A"/>
<path d="M472.262 359.536H426.55C424.914 359.536 423.688 358.227 423.688 356.674V347.597C423.688 345.961 424.996 344.734 426.55 344.734H472.262C473.898 344.734 475.124 346.043 475.124 347.597V356.674C475.124 358.227 473.816 359.536 472.262 359.536Z" fill="#996B20"/>
<path d="M459.84 359.536H414.128C412.492 359.536 411.266 358.227 411.266 356.674V347.597C411.266 345.961 412.574 344.734 414.128 344.734H459.84C461.476 344.734 462.703 346.043 462.703 347.597V356.674C462.784 358.227 461.476 359.536 459.84 359.536Z" fill="#DBA32C"/>
<path d="M435.062 359.536V344.652H414.128C412.492 344.652 411.266 345.961 411.266 347.514V356.592C411.266 358.227 412.574 359.454 414.128 359.454H435.062V359.536Z" fill="#EDCB3A"/>
<path d="M443.245 344.652H437.93V359.536H443.245V344.652Z" fill="#EDCB3A"/>
<path d="M448.804 344.652H446.023V359.536H448.804V344.652Z" fill="#EDCB3A"/>
<path d="M461.544 344.737H415.831C414.195 344.737 412.969 343.429 412.969 341.875V332.798C412.969 331.162 414.277 329.936 415.831 329.936H461.544C463.179 329.936 464.406 331.244 464.406 332.798V341.875C464.406 343.429 463.097 344.737 461.544 344.737Z" fill="#996B20"/>
<path d="M449.122 344.737H403.409C401.774 344.737 400.547 343.429 400.547 341.875V332.798C400.547 331.162 401.855 329.936 403.409 329.936H449.122C450.757 329.936 451.984 331.244 451.984 332.798V341.875C452.066 343.429 450.757 344.737 449.122 344.737Z" fill="#DBA32C"/>
<path d="M424.344 344.737V329.854H403.409C401.774 329.854 400.547 331.162 400.547 332.716V341.793C400.547 343.428 401.855 344.655 403.409 344.655H424.344V344.737Z" fill="#EDCB3A"/>
<path d="M432.526 329.854H427.211V344.737H432.526V329.854Z" fill="#EDCB3A"/>
<path d="M438.085 329.854H435.305V344.737H438.085V329.854Z" fill="#EDCB3A"/>
<path d="M245.528 418.743H199.815C198.18 418.743 196.953 417.434 196.953 415.881V406.804C196.953 405.168 198.262 403.941 199.815 403.941H245.528C247.163 403.941 248.39 405.25 248.39 406.804V415.881C248.472 417.434 247.163 418.743 245.528 418.743Z" fill="#996B20"/>
<path d="M233.169 418.743H187.456C185.82 418.743 184.594 417.434 184.594 415.881V406.804C184.594 405.168 185.902 403.941 187.456 403.941H233.169C234.804 403.941 236.031 405.25 236.031 406.804V415.881C236.031 417.434 234.722 418.743 233.169 418.743Z" fill="#DBA32C"/>
<path d="M208.39 418.743V403.859H187.456C185.82 403.859 184.594 405.168 184.594 406.722V415.799C184.594 417.434 185.902 418.661 187.456 418.661H208.39V418.743Z" fill="#EDCB3A"/>
<path d="M216.573 403.859H211.258V418.743H216.573V403.859Z" fill="#EDCB3A"/>
<path d="M222.132 403.859H219.352V418.743H222.132V403.859Z" fill="#EDCB3A"/>
<path d="M241.254 403.942H195.542C193.906 403.942 192.68 402.633 192.68 401.08V391.921C192.68 390.285 193.988 389.059 195.542 389.059H241.254C242.89 389.059 244.117 390.367 244.117 391.921V400.998C244.117 402.633 242.808 403.942 241.254 403.942Z" fill="#996B20"/>
<path d="M228.833 403.942H183.12C181.484 403.942 180.258 402.633 180.258 401.08V391.921C180.258 390.285 181.566 389.059 183.12 389.059H228.833C230.468 389.059 231.695 390.367 231.695 391.921V400.998C231.776 402.633 230.468 403.942 228.833 403.942Z" fill="#DBA32C"/>
<path d="M204.055 403.942V389.059H183.12C181.484 389.059 180.258 390.367 180.258 391.921V400.998C180.258 402.633 181.566 403.86 183.12 403.86H204.055V403.942Z" fill="#EDCB3A"/>
<path d="M212.237 389.059H206.922V403.942H212.237V389.059Z" fill="#EDCB3A"/>
<path d="M217.796 389.059H215.016V403.942H217.796V389.059Z" fill="#EDCB3A"/>
<path d="M250.919 389.139H205.206C203.57 389.139 202.344 387.831 202.344 386.277V377.2C202.344 375.565 203.652 374.338 205.206 374.338H250.919C252.554 374.338 253.781 375.646 253.781 377.2V386.195C253.781 387.831 252.472 389.139 250.919 389.139Z" fill="#996B20"/>
<path d="M238.477 389.139H192.847C191.211 389.139 189.984 387.831 189.984 386.277V377.2C189.984 375.565 191.293 374.338 192.847 374.338H238.559C240.195 374.338 241.421 375.646 241.421 377.2V386.195C241.421 387.831 240.113 389.139 238.477 389.139Z" fill="#DBA32C"/>
<path d="M213.699 389.139V374.256H192.847C191.211 374.256 189.984 375.564 189.984 377.118V386.195C189.984 387.831 191.293 389.057 192.847 389.057H213.699V389.139Z" fill="#EDCB3A"/>
<path d="M221.878 374.256H216.562V389.139H221.878V374.256Z" fill="#EDCB3A"/>
<path d="M227.437 374.256H224.656V389.139H227.437V374.256Z" fill="#EDCB3A"/>
<path d="M242.739 374.34H197.026C195.391 374.34 194.164 373.032 194.164 371.478V362.401C194.164 360.766 195.472 359.539 197.026 359.539H242.739C244.374 359.539 245.601 360.847 245.601 362.401V371.478C245.601 373.032 244.293 374.34 242.739 374.34Z" fill="#996B20"/>
<path d="M230.298 374.34H184.667C183.031 374.34 181.805 373.032 181.805 371.478V362.401C181.805 360.766 183.113 359.539 184.667 359.539H230.379C232.015 359.539 233.242 360.847 233.242 362.401V371.478C233.242 373.032 231.933 374.34 230.298 374.34Z" fill="#DBA32C"/>
<path d="M205.52 374.34V359.457H184.667C183.031 359.457 181.805 360.765 181.805 362.319V371.396C181.805 373.032 183.113 374.258 184.667 374.258H205.52V374.34Z" fill="#EDCB3A"/>
<path d="M213.698 359.457H208.383V374.34H213.698V359.457Z" fill="#EDCB3A"/>
<path d="M219.257 359.457H216.477V374.34H219.257V359.457Z" fill="#EDCB3A"/>
<path d="M253.95 359.536H208.237C206.602 359.536 205.375 358.227 205.375 356.674V347.597C205.375 345.961 206.683 344.734 208.237 344.734H253.95C255.585 344.734 256.812 346.043 256.812 347.597V356.674C256.894 358.227 255.585 359.536 253.95 359.536Z" fill="#996B20"/>
<path d="M241.59 359.536H195.878C194.242 359.536 193.016 358.227 193.016 356.674V347.597C193.016 345.961 194.324 344.734 195.878 344.734H241.59C243.226 344.734 244.453 346.043 244.453 347.597V356.674C244.453 358.227 243.144 359.536 241.59 359.536Z" fill="#DBA32C"/>
<path d="M216.812 359.536V344.652H195.878C194.242 344.652 193.016 345.961 193.016 347.514V356.592C193.016 358.227 194.324 359.454 195.878 359.454H216.812V359.536Z" fill="#EDCB3A"/>
<path d="M224.995 344.652H219.68V359.536H224.995V344.652Z" fill="#EDCB3A"/>
<path d="M230.468 344.652H227.688V359.536H230.468V344.652Z" fill="#EDCB3A"/>
<path d="M243.239 344.737H197.526C195.891 344.737 194.664 343.429 194.664 341.875V332.798C194.664 331.162 195.972 329.936 197.526 329.936H243.239C244.874 329.936 246.101 331.244 246.101 332.798V341.875C246.183 343.429 244.874 344.737 243.239 344.737Z" fill="#996B20"/>
<path d="M230.879 344.737H185.167C183.531 344.737 182.305 343.429 182.305 341.875V332.798C182.305 331.162 183.613 329.936 185.167 329.936H230.879C232.515 329.936 233.742 331.244 233.742 332.798V341.875C233.742 343.429 232.433 344.737 230.879 344.737Z" fill="#DBA32C"/>
<path d="M206.101 344.737V329.854H185.167C183.531 329.854 182.305 331.162 182.305 332.716V341.793C182.305 343.428 183.613 344.655 185.167 344.655H206.101V344.737Z" fill="#EDCB3A"/>
<path d="M214.284 329.854H208.969V344.737H214.284V329.854Z" fill="#EDCB3A"/>
<path d="M219.757 329.854H216.977V344.737H219.757V329.854Z" fill="#EDCB3A"/>
<path d="M243.178 416.259C261.996 408.464 270.933 386.889 263.138 368.07C255.343 349.252 233.768 340.315 214.949 348.11C196.131 355.905 187.194 377.48 194.989 396.299C202.784 415.117 224.359 424.054 243.178 416.259Z" fill="#996B20"/>
<path d="M229.297 345.225H223.164V419.068H229.297V345.225Z" fill="#996B20"/>
<path d="M254.562 400.368C264.597 382.643 258.364 360.139 240.639 350.103C222.914 340.067 200.41 346.301 190.374 364.025C180.339 381.75 186.572 404.255 204.297 414.29C222.022 424.326 244.526 418.093 254.562 400.368Z" fill="#DBA32C"/>
<path d="M233.592 407.127C247.363 400.97 253.534 384.815 247.377 371.044C241.219 357.273 225.064 351.101 211.293 357.259C197.523 363.417 191.351 379.572 197.509 393.342C203.666 407.113 219.821 413.285 233.592 407.127Z" fill="#EDCB3A"/>
<path d="M196.831 382.19C196.831 367.389 208.607 355.286 223.326 354.877C223.081 354.877 222.754 354.877 222.508 354.877C207.38 354.877 195.195 367.143 195.195 382.19C195.195 397.237 207.462 409.503 222.508 409.503C222.836 409.503 223.081 409.503 223.326 409.503C208.607 409.012 196.831 396.991 196.831 382.19Z" fill="#C18925"/>
<path d="M235.346 366.489C235.346 365.507 234.61 364.771 233.628 364.771H211.467C210.486 364.771 209.75 365.507 209.75 366.489C209.75 367.47 210.486 368.206 211.467 368.206H217.519C220.953 368.206 223.897 370.169 225.042 373.031H211.549C210.568 373.031 209.832 373.767 209.832 374.748C209.832 375.729 210.568 376.465 211.549 376.465H225.533C225.124 380.145 221.689 383.089 217.6 383.089H211.549C210.568 383.089 209.832 383.825 209.832 384.807C209.832 385.788 210.568 386.524 211.549 386.524H215.229L226.35 401.407C226.759 401.898 227.332 402.225 227.986 402.225C229.621 402.225 230.603 400.344 229.621 398.954L220.381 386.524H233.792C234.773 386.524 235.509 385.788 235.509 384.807C235.509 383.825 234.773 383.089 233.792 383.089H227.822C229.376 381.208 230.357 379 230.521 376.465H233.71C234.692 376.465 235.428 375.729 235.428 374.748C235.428 373.767 234.692 373.031 233.71 373.031H230.194C229.785 371.232 228.886 369.596 227.741 368.206H233.71C234.61 368.206 235.346 367.47 235.346 366.489Z" fill="#AA7921"/>
<path d="M366.926 230.167L383.199 206.37C389.987 196.394 382.872 182.982 370.851 182.982H322.44H274.029C262.008 182.982 254.893 196.475 261.681 206.37L278.117 230.412C282.533 236.873 281.225 245.623 275.174 250.529C246.879 273.345 220.711 310.88 220.711 346.288C220.711 402.305 266.096 419.232 322.195 419.232C378.211 419.232 423.678 402.305 423.678 346.288C423.678 310.716 398.328 273.099 369.952 250.284C363.818 245.377 362.51 236.627 366.926 230.167Z" fill="#D0B170"/>
<path d="M369.951 250.284C363.818 245.377 362.51 236.627 366.926 230.167L383.199 206.37C389.987 196.394 382.872 182.982 370.851 182.982H362.837C374.858 182.982 381.973 196.475 375.185 206.37L358.912 230.167C354.496 236.627 355.804 245.377 361.937 250.284C390.314 273.099 415.664 310.716 415.664 346.288C415.664 400.996 372.405 418.415 318.188 419.232C319.496 419.232 320.886 419.232 322.195 419.232C378.211 419.232 423.678 402.305 423.678 346.288C423.678 310.716 398.328 273.099 369.951 250.284Z" fill="#B79963"/>
<path d="M346.315 250.285C340.182 245.378 338.874 236.628 343.29 230.168L359.563 206.371C366.35 196.395 359.236 182.984 347.215 182.984H336.257C331.105 182.984 326.117 180.694 323.009 176.605C319.575 172.026 314.096 169 307.881 169C301.666 169 296.187 171.944 292.752 176.605C289.645 180.776 284.656 182.984 279.505 182.984H274.271C262.25 182.984 255.135 196.477 261.923 206.371L278.36 230.414C282.776 236.874 281.467 245.624 275.416 250.53C247.121 273.346 220.953 310.881 220.953 346.29C220.953 402.306 255.299 419.234 311.315 419.234C367.332 419.234 400.042 402.306 400.042 346.29C400.042 310.717 374.691 273.1 346.315 250.285Z" fill="#E8C585"/>
<path d="M266.182 295.208C275.789 282.372 280.001 269.29 275.59 265.989C271.179 262.687 259.814 270.416 250.207 283.252C240.601 296.088 236.389 309.171 240.8 312.472C245.211 315.774 256.575 308.044 266.182 295.208Z" fill="#F9DEB2"/>
<path d="M271.498 194.677C267.573 197.294 263.648 198.194 262.667 196.722C261.685 195.25 264.057 191.979 267.982 189.362C271.907 186.745 275.833 185.846 276.814 187.317C277.795 188.789 275.424 192.06 271.498 194.677Z" fill="#F9DEB2"/>
<path d="M349.593 253.475H280.984C278.776 253.475 276.977 251.676 276.977 249.468C276.977 247.26 278.776 245.461 280.984 245.461H349.593C351.801 245.461 353.6 247.26 353.6 249.468C353.6 251.676 351.801 253.475 349.593 253.475Z" fill="#D0B170"/>
<path d="M336.677 309.819V302.377H280.906V309.819H297.752C305.194 309.819 311.572 314.153 314.107 320.286H280.988V327.727H315.17C314.189 335.823 306.829 342.12 297.834 342.12H280.988V349.562H292.682L318.196 383.744H329.236L303.803 349.562H336.759V342.038H320.077C323.511 338.031 325.638 333.043 326.046 327.646H336.759V320.204H325.392C324.493 316.361 322.612 312.762 319.995 309.737H336.677V309.819Z" fill="#554C3D"/>
<path d="M397.6 419.07C417.968 419.07 434.48 402.558 434.48 382.189C434.48 361.821 417.968 345.309 397.6 345.309C377.231 345.309 360.719 361.821 360.719 382.189C360.719 402.558 377.231 419.07 397.6 419.07Z" fill="#996B20"/>
<path d="M397.922 345.23H391.789V419.074H397.922V345.23Z" fill="#996B20"/>
<path d="M417.157 408.264C431.56 393.861 431.56 370.51 417.157 356.107C402.754 341.704 379.403 341.704 365 356.107C350.598 370.51 350.598 393.861 365 408.264C379.403 422.667 402.754 422.667 417.157 408.264Z" fill="#DBA32C"/>
<path d="M391.063 409.503C406.148 409.503 418.376 397.275 418.376 382.19C418.376 367.105 406.148 354.877 391.063 354.877C375.979 354.877 363.75 367.105 363.75 382.19C363.75 397.275 375.979 409.503 391.063 409.503Z" fill="#EDCB3A"/>
<path d="M365.456 382.19C365.456 367.389 377.232 355.286 391.951 354.877C391.706 354.877 391.379 354.877 391.133 354.877C376.005 354.877 363.82 367.143 363.82 382.19C363.82 397.237 376.087 409.503 391.133 409.503C391.46 409.503 391.706 409.503 391.951 409.503C377.232 409.012 365.456 396.991 365.456 382.19Z" fill="#C18925"/>
<path d="M403.986 366.491C403.986 365.509 403.25 364.773 402.269 364.773H380.108C379.127 364.773 378.391 365.509 378.391 366.491C378.391 367.472 379.127 368.208 380.108 368.208H386.159C389.594 368.208 392.538 370.171 393.683 373.033H380.19C379.208 373.033 378.472 373.769 378.472 374.75C378.472 375.731 379.208 376.467 380.19 376.467H394.173C393.764 380.147 390.33 383.091 386.241 383.091H380.19C379.208 383.091 378.472 383.827 378.472 384.808C378.472 385.79 379.208 386.526 380.19 386.526H383.87L394.991 401.409C395.4 401.9 395.972 402.227 396.627 402.227C398.262 402.227 399.243 400.346 398.262 398.956L389.021 386.526H402.433C403.414 386.526 404.15 385.79 404.15 384.808C404.15 383.827 403.414 383.091 402.433 383.091H396.463C398.017 381.21 398.998 379.002 399.162 376.467H402.351C403.332 376.467 404.068 375.731 404.068 374.75C404.068 373.769 403.332 373.033 402.351 373.033H398.835C398.426 371.234 397.526 369.598 396.381 368.208H402.351C403.25 368.208 403.986 367.472 403.986 366.491Z" fill="#AA7921"/>
<path d="M365.709 248.894H338.314C333.816 248.894 330.055 245.214 330.055 240.634C330.055 236.137 333.735 232.375 338.314 232.375H365.709C370.207 232.375 373.968 236.055 373.968 240.634C373.968 245.132 370.288 248.894 365.709 248.894Z" fill="#494136"/>
<path d="M356.632 248.894H338.314C333.816 248.894 330.055 245.214 330.055 240.634C330.055 236.137 333.735 232.375 338.314 232.375H356.632C361.129 232.375 364.891 236.055 364.891 240.634C364.891 245.132 361.211 248.894 356.632 248.894Z" fill="#554C3D"/>
<path d="M336.338 248.894H278.931C274.434 248.894 270.672 245.214 270.672 240.634C270.672 236.137 274.352 232.375 278.931 232.375H336.338C340.835 232.375 344.597 236.055 344.597 240.634C344.597 245.132 340.835 248.894 336.338 248.894Z" fill="#685D4E"/>
<path d="M332.648 268.845L319.973 243.822C317.929 239.815 312.94 238.18 308.933 240.224C304.926 242.268 303.291 247.257 305.335 251.264L318.011 276.287C320.055 280.294 325.043 281.93 329.05 279.885C333.057 277.841 334.693 272.852 332.648 268.845Z" fill="#554C3D"/>
<path d="M330.109 268.845L317.434 243.822C315.39 239.815 310.401 238.18 306.394 240.224C302.387 242.268 300.752 247.257 302.796 251.264L315.471 276.287C317.516 280.294 322.504 281.93 326.511 279.885C330.518 277.841 332.154 272.852 330.109 268.845Z" fill="#685D4E"/>
<path d="M287.671 268.845L300.346 243.822C302.391 239.815 307.379 238.18 311.386 240.224C315.393 242.268 317.029 247.257 314.984 251.264L302.309 276.287C300.265 280.294 295.276 281.93 291.269 279.885C287.262 277.841 285.627 272.852 287.671 268.845Z" fill="#554C3D"/>
<path d="M285.304 268.845L297.979 243.822C300.024 239.815 305.012 238.18 309.019 240.224C313.026 242.268 314.662 247.257 312.617 251.264L299.942 276.287C297.898 280.294 292.909 281.93 288.902 279.885C284.895 277.841 283.26 272.852 285.304 268.845Z" fill="#685D4E"/>
<path d="M308.373 252.983C314.922 252.983 320.231 247.674 320.231 241.125C320.231 234.576 314.922 229.268 308.373 229.268C301.824 229.268 296.516 234.576 296.516 241.125C296.516 247.674 301.824 252.983 308.373 252.983Z" fill="#776C5E"/>
<path d="M313.351 234.5C313.351 236.299 311.061 237.689 308.281 237.689C305.501 237.689 303.211 236.217 303.211 234.5C303.211 232.701 305.501 231.311 308.281 231.311C311.143 231.311 313.351 232.783 313.351 234.5Z" fill="#877B6F"/>
<path d="M308.373 247.914C302.649 247.914 297.906 243.907 296.761 238.592C296.597 239.41 296.516 240.309 296.516 241.127C296.516 247.669 301.831 252.984 308.373 252.984C314.915 252.984 320.231 247.669 320.231 241.127C320.231 240.227 320.149 239.41 319.985 238.592C318.759 243.907 314.016 247.914 308.373 247.914Z" fill="#554C3D"/>
<path d="M311.728 386.52C311.728 383.249 309.029 380.551 305.758 380.551H235.595C232.324 380.551 229.625 383.249 229.625 386.52V414.569C229.625 417.84 232.324 420.539 235.595 420.539H305.758C309.029 420.539 311.728 417.84 311.728 414.569V386.52Z" fill="#406052"/>
<path d="M227.587 420.539C224.316 420.539 221.617 417.84 221.617 414.569V386.52C221.617 383.249 224.316 380.551 227.587 380.551H297.75C301.021 380.551 303.72 383.249 303.72 386.52V414.569C303.72 417.84 301.021 420.539 297.75 420.539H227.587Z" fill="#BDEFDC"/>
<path d="M297.749 418.497H227.585C225.377 418.497 223.578 416.698 223.578 414.49V386.441C223.578 384.233 225.377 382.434 227.585 382.434H297.749C299.957 382.434 301.756 384.233 301.756 386.441V414.49C301.756 416.698 299.957 418.497 297.749 418.497Z" fill="#8ED2BB"/>
<path d="M297.754 382.514H262.672V418.495H297.754C299.962 418.495 301.761 416.696 301.761 414.488V386.439C301.679 384.313 299.962 382.514 297.754 382.514Z" fill="#64A08A"/>
<path d="M274.386 412.234C280.869 405.751 280.869 395.241 274.386 388.758C267.904 382.275 257.393 382.275 250.91 388.758C244.427 395.241 244.427 405.751 250.91 412.234C257.393 418.717 267.904 418.717 274.386 412.234Z" fill="#BDEFDC"/>
<path d="M270.676 390.692C270.676 390.12 270.186 389.629 269.613 389.629H255.712C255.139 389.629 254.648 390.12 254.648 390.692C254.648 391.264 255.139 391.755 255.712 391.755H259.473C261.599 391.755 263.48 392.982 264.134 394.781H255.712C255.139 394.781 254.648 395.271 254.648 395.844C254.648 396.416 255.139 396.907 255.712 396.907H264.462C264.216 399.197 262.09 400.996 259.473 400.996H255.712C255.139 400.996 254.648 401.486 254.648 402.059C254.648 402.631 255.139 403.122 255.712 403.122H258.001L264.952 412.444C265.198 412.771 265.606 412.935 265.933 412.935C266.997 412.935 267.569 411.708 266.915 410.891L261.109 403.122H269.532C270.104 403.122 270.595 402.631 270.595 402.059C270.595 401.486 270.104 400.996 269.532 400.996H265.77C266.751 399.851 267.405 398.461 267.487 396.907H269.532C270.104 396.907 270.595 396.416 270.595 395.844C270.595 395.271 270.104 394.781 269.532 394.781H267.324C267.078 393.636 266.506 392.655 265.77 391.755H269.532C270.186 391.755 270.676 391.264 270.676 390.692Z" fill="#406052"/>
<path d="M235.276 382.514H227.507C225.299 382.514 223.5 384.313 223.5 386.521V394.289C230.042 394.208 235.194 388.974 235.276 382.514Z" fill="#406052"/>
<path d="M223.578 406.803V414.571C223.578 416.779 225.377 418.578 227.585 418.578H235.354C235.19 412.118 229.957 406.966 223.578 406.803Z" fill="#406052"/>
<path d="M289.984 418.496H297.753C299.961 418.496 301.76 416.697 301.76 414.489V406.721C295.3 406.884 290.148 412.118 289.984 418.496Z" fill="#406052"/>
<path d="M301.76 394.209V386.441C301.76 384.233 299.961 382.434 297.753 382.434H289.984C290.148 388.976 295.3 394.128 301.76 394.209Z" fill="#406052"/>
<defs>
<filter id="filter0_d_6288_14807" x="0" y="0" width="644" height="540" filterUnits="userSpaceOnUse" color-interpolation-filters="sRGB">
<feFlood flood-opacity="0" result="BackgroundImageFix"/>
<feColorMatrix in="SourceAlpha" type="matrix" values="0 0 0 0 0 0 0 0 0 0 0 0 0 0 0 0 0 0 127 0" result="hardAlpha"/>
<feMorphology radius="20" operator="erode" in="SourceAlpha" result="effect1_dropShadow_6288_14807"/>
<feOffset dy="30"/>
<feGaussianBlur stdDeviation="35"/>
<feColorMatrix type="matrix" values="0 0 0 0 0 0 0 0 0 0 0 0 0 0 0 0 0 0 0.02 0"/>
<feBlend mode="normal" in2="BackgroundImageFix" result="effect1_dropShadow_6288_14807"/>
<feBlend mode="normal" in="SourceGraphic" in2="effect1_dropShadow_6288_14807" result="shape"/>
</filter>
<radialGradient id="paint0_radial_6288_14807" cx="0" cy="0" r="1" gradientUnits="userSpaceOnUse" gradientTransform="translate(322 230) scale(272)">
<stop stop-color="white" stop-opacity="0.11"/>
<stop offset="0.0001" stop-color="white" stop-opacity="0.2"/>
<stop offset="0.0233216" stop-color="white"/>
<stop offset="0.2338" stop-color="#F9FAFB"/>
<stop offset="0.4409" stop-color="#F9FAFB"/>
<stop offset="0.6409" stop-color="#F1F3F5"/>
<stop offset="0.8309" stop-color="#F1F3F5"/>
<stop offset="1" stop-color="#E4E7EC"/>
</radialGradient>
</defs>
</svg>
