<svg width="24" height="24" viewBox="0 0 24 24" fill="none" xmlns="http://www.w3.org/2000/svg">
<g clip-path="url(#clip0_928_17510)">
<path fill-rule="evenodd" clip-rule="evenodd" d="M0 12C0 5.37258 5.37258 0 12 0C18.6274 0 24 5.37258 24 12C24 18.6274 18.6274 24 12 24C5.37258 24 0 18.6274 0 12ZM12.0006 5.6C10.2624 5.6 10.0443 5.6076 9.36164 5.63867C8.6803 5.66987 8.21523 5.77774 7.80829 5.936C7.38735 6.09947 7.03028 6.31814 6.67454 6.67401C6.31854 7.02975 6.09987 7.38682 5.93587 7.80762C5.7772 8.21469 5.6692 8.6799 5.63853 9.36097C5.608 10.0436 5.6 10.2619 5.6 12.0001C5.6 13.7382 5.60773 13.9557 5.63867 14.6384C5.67 15.3197 5.77787 15.7848 5.936 16.1917C6.09961 16.6126 6.31827 16.9697 6.67414 17.3255C7.02975 17.6815 7.38682 17.9007 7.80749 18.0641C8.21469 18.2224 8.6799 18.3303 9.36111 18.3615C10.0438 18.3925 10.2618 18.4001 11.9998 18.4001C13.7381 18.4001 13.9556 18.3925 14.6382 18.3615C15.3196 18.3303 15.7852 18.2224 16.1924 18.0641C16.6132 17.9007 16.9697 17.6815 17.3253 17.3255C17.6813 16.9697 17.9 16.6126 18.064 16.1918C18.2213 15.7848 18.3293 15.3196 18.3613 14.6385C18.392 13.9558 18.4 13.7382 18.4 12.0001C18.4 10.2619 18.392 10.0438 18.3613 9.36111C18.3293 8.67977 18.2213 8.21469 18.064 7.80776C17.9 7.38682 17.6813 7.02975 17.3253 6.67401C16.9693 6.31801 16.6133 6.09934 16.192 5.936C15.784 5.77774 15.3186 5.66987 14.6373 5.63867C13.9546 5.6076 13.7373 5.6 11.9986 5.6H12.0006Z" fill="#E4E7EC"/>
<path fill-rule="evenodd" clip-rule="evenodd" d="M11.4265 6.75355C11.5969 6.75329 11.787 6.75355 12.0006 6.75355C13.7094 6.75355 13.912 6.75969 14.5868 6.79035C15.2108 6.81889 15.5495 6.92315 15.7751 7.01076C16.0737 7.12676 16.2867 7.26542 16.5105 7.48943C16.7345 7.71343 16.8732 7.92677 16.9895 8.22543C17.0771 8.45077 17.1815 8.78944 17.2099 9.41345C17.2405 10.0881 17.2472 10.2908 17.2472 11.9988C17.2472 13.7068 17.2405 13.9095 17.2099 14.5842C17.1813 15.2082 17.0771 15.5468 16.9895 15.7722C16.8735 16.0709 16.7345 16.2835 16.5105 16.5074C16.2865 16.7314 16.0739 16.8701 15.7751 16.9861C15.5497 17.0741 15.2108 17.1781 14.5868 17.2066C13.9121 17.2373 13.7094 17.2439 12.0006 17.2439C10.2917 17.2439 10.0891 17.2373 9.41447 17.2066C8.79046 17.1778 8.45179 17.0735 8.22606 16.9859C7.92739 16.8699 7.71405 16.7313 7.49005 16.5073C7.26605 16.2833 7.12738 16.0704 7.01111 15.7716C6.92351 15.5463 6.81911 15.2076 6.79071 14.5836C6.76004 13.909 6.75391 13.7063 6.75391 11.9972C6.75391 10.2881 6.76004 10.0865 6.79071 9.41185C6.81924 8.78784 6.92351 8.44917 7.01111 8.22357C7.12711 7.9249 7.26605 7.71156 7.49005 7.48756C7.71405 7.26356 7.92739 7.12489 8.22606 7.00862C8.45166 6.92062 8.79046 6.81662 9.41447 6.78795C10.0049 6.76129 10.2337 6.75329 11.4265 6.75195V6.75355ZM15.4169 7.81623C14.9929 7.81623 14.6489 8.15983 14.6489 8.58397C14.6489 9.00798 14.9929 9.35198 15.4169 9.35198C15.8409 9.35198 16.1849 9.00798 16.1849 8.58397C16.1849 8.15997 15.8409 7.81596 15.4169 7.81596V7.81623ZM12.0006 8.71357C10.1855 8.71357 8.71393 10.1852 8.71393 12.0003C8.71393 13.8154 10.1855 15.2863 12.0006 15.2863C13.8157 15.2863 15.2868 13.8154 15.2868 12.0003C15.2868 10.1852 13.8156 8.71357 12.0005 8.71357H12.0006Z" fill="#E4E7EC"/>
<path fill-rule="evenodd" clip-rule="evenodd" d="M12.0005 9.86719C13.1787 9.86719 14.1339 10.8223 14.1339 12.0006C14.1339 13.1787 13.1787 14.1339 12.0005 14.1339C10.8223 14.1339 9.86719 13.1787 9.86719 12.0006C9.86719 10.8223 10.8223 9.86719 12.0005 9.86719Z" fill="#E4E7EC"/>
</g>
<defs>
<clipPath id="clip0_928_17510">
<rect width="24" height="24" fill="white"/>
</clipPath>
</defs>
</svg>
