<svg width="80" height="80" viewBox="0 0 80 80" fill="none" xmlns="http://www.w3.org/2000/svg">
<circle cx="40" cy="40" r="40" fill="#E7EBFA"/>
<path d="M25.0167 37.5288H56.1436V31.9756H23.8965V37.5288H25.0167ZM40.0193 27.2614C41.4898 23.1245 43.5761 21.0507 45.5455 20.324C47.563 19.5795 49.4686 20.1842 50.6426 21.4618C51.8192 22.7417 52.2532 24.6907 51.3254 26.6291C50.7787 27.771 49.7376 28.9096 48.0584 29.87H57.192C57.7713 29.87 58.2413 30.3414 58.2413 30.9229V38.582C58.2413 39.1633 57.7716 39.6349 57.192 39.6349H56.0734V58.9471C56.0734 59.5283 55.6036 60 55.0241 60H25.0158C24.4366 60 23.9665 59.5286 23.9665 58.9471V39.6349H22.8462C22.2669 39.6349 21.7969 39.1636 21.7969 38.582V30.9229C21.7969 30.3417 22.2666 29.87 22.8462 29.87H31.9783C30.2988 28.9096 29.258 27.7709 28.7113 26.6291C27.7835 24.691 28.2181 22.7418 29.3947 21.4618C30.5687 20.1843 32.4744 19.5796 34.4918 20.324C36.4612 21.0506 38.5481 23.1244 40.0185 27.2614H40.0193ZM41.4134 29.8424C46.2883 29.0438 48.6517 27.3724 49.4403 25.7254C49.9592 24.6416 49.7347 23.5726 49.1022 22.8845C48.4674 22.1931 47.4099 21.8759 46.267 22.2977C44.5454 22.9327 42.6588 25.1159 41.4132 29.8426L41.4134 29.8424ZM30.5969 25.7254C31.3853 27.3724 33.7488 29.0438 38.6246 29.8424C37.3792 25.1157 35.4925 22.9324 33.7707 22.2975C32.6278 21.8758 31.5703 22.193 30.9355 22.8843C30.3027 23.5724 30.0785 24.6424 30.5971 25.7252L30.5969 25.7254ZM53.9749 39.6347H26.0653V57.8943H53.9749V39.6347Z" fill="#1434CB"/>
</svg>
