<svg width="32" height="32" viewBox="0 0 32 32" fill="none" xmlns="http://www.w3.org/2000/svg">
<path d="M19.2333 28C19.1 28 18.9722 27.9778 18.85 27.9333C18.7278 27.8889 18.6111 27.8111 18.5 27.7L10.1333 19.0333C10 18.9 9.88889 18.7167 9.8 18.4833C9.71111 18.25 9.66667 18.0333 9.66667 17.8333C9.66667 17.4111 9.81111 17.0556 10.1 16.7667C10.3889 16.4778 10.7444 16.3333 11.1667 16.3333H14C15.2667 16.3333 16.3778 15.9222 17.3333 15.1C18.2889 14.2778 18.8444 13.1333 19 11.6667H9C8.71111 11.6667 8.47222 11.5722 8.28333 11.3833C8.09444 11.1944 8 10.9556 8 10.6667C8 10.3778 8.09444 10.1389 8.28333 9.95C8.47222 9.76111 8.71111 9.66667 9 9.66667H18.8333C18.5444 8.6 17.95 7.72222 17.05 7.03333C16.15 6.34444 15.1333 6 14 6H9C8.71111 6 8.47222 5.90556 8.28333 5.71667C8.09444 5.52778 8 5.28889 8 5C8 4.71111 8.09444 4.47222 8.28333 4.28333C8.47222 4.09444 8.71111 4 9 4H23C23.2889 4 23.5278 4.09444 23.7167 4.28333C23.9056 4.47222 24 4.71111 24 5C24 5.28889 23.9056 5.52778 23.7167 5.71667C23.5278 5.90556 23.2889 6 23 6H18.8667C19.3778 6.44444 19.8111 7.01111 20.1667 7.7C20.5222 8.38889 20.7778 9.04444 20.9333 9.66667H23C23.2889 9.66667 23.5278 9.76111 23.7167 9.95C23.9056 10.1389 24 10.3778 24 10.6667C24 10.9556 23.9056 11.1944 23.7167 11.3833C23.5278 11.5722 23.2889 11.6667 23 11.6667H21C20.8222 13.6889 20.0722 15.3056 18.75 16.5167C17.4278 17.7278 15.8444 18.3333 14 18.3333H12.2667L19.9667 26.3333C20.2778 26.6444 20.3444 27 20.1667 27.4C19.9889 27.8 19.6778 28 19.2333 28Z" fill="#109648"/>
</svg>
