<svg width="24" height="24" viewBox="0 0 24 24" fill="none" xmlns="http://www.w3.org/2000/svg">
<path opacity="0.1" d="M12 2C6.48 2 2 6.48 2 12C2 17.52 6.48 22 12 22C17.52 22 22 17.52 22 12C22 6.48 17.52 2 12 2Z" fill="#12B76A"/>
<path d="M8.0752 11.8248L10.5252 14.2748L15.8752 8.9248C16.0419 8.75814 16.2377 8.6748 16.4627 8.6748C16.6877 8.6748 16.8752 8.75814 17.0252 8.9248C17.1752 9.0748 17.2544 9.25814 17.2627 9.4748C17.271 9.69147 17.2002 9.8748 17.0502 10.0248L11.0502 16.0248C10.9002 16.1748 10.7252 16.2498 10.5252 16.2498C10.3252 16.2498 10.1502 16.1748 10.0002 16.0248L6.9502 12.9748C6.78353 12.8248 6.7002 12.6415 6.7002 12.4248C6.7002 12.2081 6.78353 12.0165 6.9502 11.8498C7.11686 11.6831 7.30853 11.5998 7.5252 11.5998C7.74186 11.5998 7.9252 11.6748 8.0752 11.8248Z" fill="#12B76A"/>
</svg>
