<svg width="120" height="29" viewBox="0 0 120 29" fill="none" xmlns="http://www.w3.org/2000/svg">
<path fill-rule="evenodd" clip-rule="evenodd" d="M26.2306 1.55902C26.6386 0.867672 26.1334 0 25.3228 0H22.402L13.0943 15.8424L8.02645 7.33074C7.64902 6.69684 6.95981 6.30756 6.21492 6.30756H2.66857L13.0346 23.9201L26.2306 1.55902Z" fill="#1434CB"/>
<path fill-rule="evenodd" clip-rule="evenodd" d="M11.5781 12.8729L18.7786 1.00823C19.1582 0.382792 19.8426 0 20.5812 0H22.201L13.0973 15.4689L11.5781 12.8729Z" fill="#A1AEEA"/>
<path fill-rule="evenodd" clip-rule="evenodd" d="M12.75 23.9199L2.3863 6.33203H1.05221C0.239637 6.33203 -0.265346 7.20357 0.146666 7.8949L9.08779 22.8975C9.46533 23.5309 10.1543 23.9199 10.8989 23.9199H12.75Z" fill="#A1AEEA"/>
<path d="M48.4192 24V0H42.8906V24H48.4192Z" fill="#1434CB"/>
<path d="M63.8708 18.3861C63.2636 18.7645 62.4008 18.9853 61.506 18.9853C60.004 18.9853 59.301 18.2284 59.301 16.5885V11.0368H63.9986V6.24433H59.301V0H53.8363V6.24433H50.6406V11.0368H53.8363V17.85C53.8363 21.729 56.1053 23.9997 59.9721 23.9997C61.506 23.9997 62.6564 23.7474 63.8708 23.0851V18.3861Z" fill="#1434CB"/>
<path d="M31.5658 23.8887C36.647 23.8887 40.5458 19.9466 40.5458 15.0898C40.5458 10.2331 36.647 6.29102 31.5658 6.29102C26.4847 6.29102 22.5859 10.2331 22.5859 15.0898C22.5859 19.9466 26.4847 23.8887 31.5658 23.8887ZM31.5658 19.0635C29.8721 19.0635 28.2743 17.739 28.2743 15.0898C28.2743 12.4407 29.8721 11.1477 31.5658 11.1477C33.2596 11.1477 34.8574 12.4407 34.8574 15.0898C34.8574 17.739 33.2596 19.0635 31.5658 19.0635Z" fill="#1434CB"/>
<path d="M70.8608 24V15.2727H74.1335C74.804 15.2727 75.3665 15.3977 75.821 15.6477C76.2784 15.8977 76.6236 16.2415 76.8565 16.679C77.0923 17.1136 77.2102 17.608 77.2102 18.1619C77.2102 18.7216 77.0923 19.2187 76.8565 19.6534C76.6207 20.0881 76.2727 20.4304 75.8125 20.6804C75.3523 20.9276 74.7855 21.0511 74.1122 21.0511H71.9432V19.7514H73.8991C74.2912 19.7514 74.6122 19.6832 74.8622 19.5469C75.1122 19.4105 75.2969 19.223 75.4162 18.9844C75.5384 18.7457 75.5994 18.4716 75.5994 18.1619C75.5994 17.8523 75.5384 17.5795 75.4162 17.3438C75.2969 17.108 75.1108 16.9247 74.858 16.794C74.608 16.6605 74.2855 16.5938 73.8906 16.5938H72.4418V24H70.8608ZM80.2816 24.1321C79.8668 24.1321 79.4933 24.0582 79.1609 23.9105C78.8313 23.7599 78.57 23.5384 78.3768 23.2457C78.1864 22.9531 78.0913 22.5923 78.0913 22.1634C78.0913 21.794 78.1594 21.4886 78.2958 21.2472C78.4322 21.0057 78.6183 20.8125 78.854 20.6676C79.0898 20.5227 79.3555 20.4134 79.6509 20.3395C79.9492 20.2628 80.2575 20.2074 80.5756 20.1733C80.9592 20.1335 81.2702 20.098 81.5089 20.0668C81.7475 20.0327 81.9208 19.9815 82.0288 19.9134C82.1396 19.8423 82.195 19.733 82.195 19.5852V19.5597C82.195 19.2386 82.0998 18.9901 81.9094 18.8139C81.7191 18.6378 81.445 18.5497 81.087 18.5497C80.7092 18.5497 80.4094 18.6321 80.1879 18.7969C79.9691 18.9616 79.8214 19.1562 79.7447 19.3807L78.3043 19.1761C78.418 18.7784 78.6055 18.446 78.8668 18.179C79.1282 17.9091 79.4478 17.7074 79.8256 17.5739C80.2035 17.4375 80.6211 17.3693 81.0785 17.3693C81.3938 17.3693 81.7077 17.4062 82.0202 17.4801C82.3327 17.554 82.6183 17.6761 82.8768 17.8466C83.1353 18.0142 83.3427 18.2429 83.4989 18.5327C83.658 18.8224 83.7376 19.1847 83.7376 19.6193V24H82.2546V23.1009H82.2035C82.1097 23.2827 81.9776 23.4531 81.8072 23.6122C81.6396 23.7685 81.4279 23.8949 81.1722 23.9915C80.9194 24.0852 80.6225 24.1321 80.2816 24.1321ZM80.6822 22.9986C80.9918 22.9986 81.2603 22.9375 81.4876 22.8153C81.7148 22.6903 81.8896 22.5256 82.0117 22.321C82.1367 22.1165 82.1992 21.8935 82.1992 21.652V20.8807C82.1509 20.9205 82.0685 20.9574 81.9521 20.9915C81.8384 21.0256 81.7106 21.0554 81.5685 21.081C81.4265 21.1065 81.2859 21.1293 81.1467 21.1491C81.0075 21.169 80.8867 21.1861 80.7844 21.2003C80.5543 21.2315 80.3484 21.2827 80.1665 21.3537C79.9847 21.4247 79.8413 21.5241 79.7362 21.652C79.631 21.777 79.5785 21.9389 79.5785 22.1378C79.5785 22.4219 79.6822 22.6364 79.8896 22.7812C80.0969 22.9261 80.3612 22.9986 80.6822 22.9986ZM85.2887 24V17.4545H86.7844V18.5455H86.8526C86.9719 18.1676 87.1765 17.8764 87.4663 17.6719C87.7589 17.4645 88.0927 17.3608 88.4677 17.3608C88.5529 17.3608 88.6481 17.3651 88.7532 17.3736C88.8612 17.3793 88.9506 17.3892 89.0217 17.4034V18.8224C88.9563 18.7997 88.8526 18.7798 88.7106 18.7628C88.5714 18.7429 88.4364 18.733 88.3058 18.733C88.0245 18.733 87.7717 18.794 87.5472 18.9162C87.3256 19.0355 87.1509 19.2017 87.0231 19.4148C86.8952 19.6278 86.8313 19.8736 86.8313 20.152V24H85.2887ZM93.6665 17.4545V18.6477H89.9038V17.4545H93.6665ZM90.8327 15.8864H92.3754V22.0312C92.3754 22.2386 92.4066 22.3977 92.4691 22.5085C92.5344 22.6165 92.6197 22.6903 92.7248 22.7301C92.8299 22.7699 92.9464 22.7898 93.0742 22.7898C93.1708 22.7898 93.2589 22.7827 93.3384 22.7685C93.4208 22.7543 93.4833 22.7415 93.5259 22.7301L93.7859 23.9361C93.7035 23.9645 93.5856 23.9957 93.4322 24.0298C93.2816 24.0639 93.0969 24.0838 92.8782 24.0895C92.4918 24.1009 92.1438 24.0426 91.8342 23.9148C91.5245 23.7841 91.2788 23.5824 91.0969 23.3097C90.918 23.0369 90.8299 22.696 90.8327 22.2869V15.8864ZM96.4993 20.1648V24H94.9567V17.4545H96.4311V18.5668H96.5078C96.6584 18.2003 96.8984 17.9091 97.228 17.6932C97.5604 17.4773 97.9709 17.3693 98.4595 17.3693C98.9112 17.3693 99.3047 17.4659 99.6399 17.6591C99.978 17.8523 100.239 18.1321 100.424 18.4986C100.612 18.8651 100.704 19.3097 100.701 19.8324V24H99.1584V20.071C99.1584 19.6335 99.0447 19.2912 98.8175 19.044C98.593 18.7969 98.282 18.6733 97.8842 18.6733C97.6143 18.6733 97.3743 18.733 97.1641 18.8523C96.9567 18.9687 96.7933 19.1378 96.674 19.3594C96.5575 19.581 96.4993 19.8494 96.4993 20.1648ZM105.167 24.1278C104.511 24.1278 103.944 23.9915 103.467 23.7188C102.992 23.4432 102.627 23.054 102.371 22.5511C102.116 22.0455 101.988 21.4503 101.988 20.7656C101.988 20.0923 102.116 19.5014 102.371 18.9929C102.63 18.4815 102.991 18.0838 103.454 17.7997C103.917 17.5128 104.461 17.3693 105.086 17.3693C105.489 17.3693 105.87 17.4347 106.228 17.5653C106.589 17.6932 106.907 17.892 107.183 18.1619C107.461 18.4318 107.68 18.7756 107.839 19.1932C107.998 19.608 108.077 20.1023 108.077 20.6761V21.1491H102.712V20.1094H106.599C106.596 19.8139 106.532 19.5511 106.407 19.321C106.282 19.0881 106.107 18.9048 105.883 18.7713C105.661 18.6378 105.403 18.571 105.107 18.571C104.792 18.571 104.515 18.6477 104.276 18.8011C104.038 18.9517 103.852 19.1506 103.718 19.3977C103.587 19.642 103.521 19.9105 103.518 20.2031V21.1108C103.518 21.4915 103.587 21.8182 103.727 22.0909C103.866 22.3608 104.06 22.5682 104.31 22.7131C104.56 22.8551 104.853 22.9261 105.188 22.9261C105.413 22.9261 105.616 22.8949 105.798 22.8324C105.979 22.767 106.137 22.6719 106.271 22.5469C106.404 22.4219 106.505 22.267 106.573 22.0824L108.013 22.2443C107.923 22.625 107.749 22.9574 107.494 23.2415C107.241 23.5227 106.917 23.7415 106.522 23.8977C106.127 24.0511 105.675 24.1278 105.167 24.1278ZM109.382 24V17.4545H110.878V18.5455H110.946C111.066 18.1676 111.27 17.8764 111.56 17.6719C111.853 17.4645 112.186 17.3608 112.561 17.3608C112.647 17.3608 112.742 17.3651 112.847 17.3736C112.955 17.3793 113.044 17.3892 113.115 17.4034V18.8224C113.05 18.7997 112.946 18.7798 112.804 18.7628C112.665 18.7429 112.53 18.733 112.4 18.733C112.118 18.733 111.865 18.794 111.641 18.9162C111.419 19.0355 111.245 19.2017 111.117 19.4148C110.989 19.6278 110.925 19.8736 110.925 20.152V24H109.382ZM119.314 19.1847L117.907 19.3381C117.868 19.196 117.798 19.0625 117.699 18.9375C117.602 18.8125 117.471 18.7116 117.306 18.6349C117.142 18.5582 116.94 18.5199 116.701 18.5199C116.38 18.5199 116.11 18.5895 115.892 18.7287C115.676 18.8679 115.569 19.0483 115.572 19.2699C115.569 19.4602 115.639 19.6151 115.781 19.7344C115.926 19.8537 116.164 19.9517 116.497 20.0284L117.613 20.267C118.233 20.4006 118.693 20.6122 118.994 20.902C119.298 21.1918 119.451 21.571 119.454 22.0398C119.451 22.4517 119.331 22.8153 119.092 23.1307C118.856 23.4432 118.528 23.6875 118.108 23.8636C117.687 24.0398 117.204 24.1278 116.659 24.1278C115.858 24.1278 115.213 23.9602 114.724 23.625C114.235 23.2869 113.944 22.8168 113.85 22.2145L115.355 22.0696C115.423 22.3651 115.568 22.5881 115.789 22.7386C116.011 22.8892 116.299 22.9645 116.654 22.9645C117.021 22.9645 117.315 22.8892 117.537 22.7386C117.761 22.5881 117.873 22.402 117.873 22.1804C117.873 21.9929 117.801 21.8381 117.656 21.7159C117.514 21.5937 117.292 21.5 116.991 21.4347L115.875 21.2003C115.247 21.0696 114.782 20.8494 114.481 20.5398C114.18 20.2273 114.031 19.8324 114.034 19.3551C114.031 18.9517 114.14 18.6023 114.362 18.3068C114.586 18.0085 114.897 17.7784 115.295 17.6165C115.696 17.4517 116.157 17.3693 116.68 17.3693C117.447 17.3693 118.051 17.5327 118.491 17.8594C118.934 18.1861 119.208 18.6278 119.314 19.1847Z" fill="#1434CB"/>
</svg>
