<svg  xmlns="http://www.w3.org/2000/svg" xmlns:xlink="http://www.w3.org/1999/xlink" height="128" width="128" viewBox="0 0 29 29"><path fill="#FFFFFF" d="M0,0 h29v29H0z" shape-rendering="crispEdges"></path><path fill="#000000" d="M0 0h7v1H0zM8 0h1v1H8zM12 0h1v1H12zM15 0h4v1H15zM20 0h1v1H20zM22,0 h7v1H22zM0 1h1v1H0zM6 1h1v1H6zM9 1h6v1H9zM16 1h2v1H16zM19 1h1v1H19zM22 1h1v1H22zM28,1 h1v1H28zM0 2h1v1H0zM2 2h3v1H2zM6 2h1v1H6zM9 2h1v1H9zM11 2h2v1H11zM14 2h2v1H14zM17 2h3v1H17zM22 2h1v1H22zM24 2h3v1H24zM28,2 h1v1H28zM0 3h1v1H0zM2 3h3v1H2zM6 3h1v1H6zM8 3h4v1H8zM15 3h2v1H15zM18 3h2v1H18zM22 3h1v1H22zM24 3h3v1H24zM28,3 h1v1H28zM0 4h1v1H0zM2 4h3v1H2zM6 4h1v1H6zM8 4h1v1H8zM10 4h3v1H10zM14 4h3v1H14zM18 4h1v1H18zM22 4h1v1H22zM24 4h3v1H24zM28,4 h1v1H28zM0 5h1v1H0zM6 5h1v1H6zM8 5h2v1H8zM17 5h1v1H17zM19 5h2v1H19zM22 5h1v1H22zM28,5 h1v1H28zM0 6h7v1H0zM8 6h1v1H8zM10 6h1v1H10zM12 6h1v1H12zM14 6h1v1H14zM16 6h1v1H16zM18 6h1v1H18zM20 6h1v1H20zM22,6 h7v1H22zM8 7h1v1H8zM11 7h3v1H11zM17 7h4v1H17zM0 8h1v1H0zM4 8h1v1H4zM6 8h6v1H6zM13 8h1v1H13zM15 8h1v1H15zM17 8h1v1H17zM20 8h6v1H20zM28,8 h1v1H28zM2 9h3v1H2zM7 9h1v1H7zM9 9h1v1H9zM11 9h6v1H11zM18 9h1v1H18zM22,9 h7v1H22zM1 10h9v1H1zM12 10h1v1H12zM15 10h1v1H15zM17 10h2v1H17zM20 10h1v1H20zM23 10h1v1H23zM28,10 h1v1H28zM0 11h1v1H0zM3 11h3v1H3zM7 11h1v1H7zM9 11h1v1H9zM11 11h2v1H11zM14 11h1v1H14zM17 11h2v1H17zM22 11h1v1H22zM25 11h1v1H25zM27,11 h2v1H27zM2 12h2v1H2zM6 12h1v1H6zM8 12h8v1H8zM17 12h1v1H17zM20 12h1v1H20zM23 12h1v1H23zM27 12h1v1H27zM1 13h1v1H1zM3 13h1v1H3zM8 13h1v1H8zM11 13h2v1H11zM15 13h2v1H15zM22,13 h7v1H22zM3 14h7v1H3zM11 14h1v1H11zM13 14h3v1H13zM17 14h2v1H17zM23 14h1v1H23zM25 14h2v1H25zM28,14 h1v1H28zM8 15h6v1H8zM15 15h1v1H15zM17 15h1v1H17zM20 15h2v1H20zM24 15h1v1H24zM27,15 h2v1H27zM3 16h1v1H3zM6 16h1v1H6zM10 16h2v1H10zM13 16h1v1H13zM15 16h1v1H15zM20 16h2v1H20zM27 16h1v1H27zM0 17h1v1H0zM3 17h1v1H3zM9 17h1v1H9zM11 17h1v1H11zM13 17h5v1H13zM22 17h4v1H22zM27,17 h2v1H27zM2 18h1v1H2zM4 18h3v1H4zM11 18h2v1H11zM15 18h1v1H15zM18 18h1v1H18zM21 18h2v1H21zM24 18h1v1H24zM26 18h1v1H26zM28,18 h1v1H28zM2 19h3v1H2zM8 19h3v1H8zM12 19h1v1H12zM14 19h1v1H14zM17 19h4v1H17zM22 19h1v1H22zM24 19h1v1H24zM27,19 h2v1H27zM0 20h2v1H0zM3 20h1v1H3zM6 20h4v1H6zM12 20h6v1H12zM20 20h6v1H20zM28,20 h1v1H28zM8 21h3v1H8zM12 21h1v1H12zM16 21h1v1H16zM19 21h2v1H19zM24 21h1v1H24zM28,21 h1v1H28zM0 22h7v1H0zM8 22h2v1H8zM13 22h4v1H13zM18 22h3v1H18zM22 22h1v1H22zM24 22h3v1H24zM28,22 h1v1H28zM0 23h1v1H0zM6 23h1v1H6zM11 23h1v1H11zM13 23h1v1H13zM15 23h1v1H15zM17 23h1v1H17zM20 23h1v1H20zM24 23h1v1H24zM28,23 h1v1H28zM0 24h1v1H0zM2 24h3v1H2zM6 24h1v1H6zM8 24h1v1H8zM10 24h4v1H10zM16 24h2v1H16zM19 24h7v1H19zM27 24h1v1H27zM0 25h1v1H0zM2 25h3v1H2zM6 25h1v1H6zM10 25h1v1H10zM13 25h9v1H13zM28,25 h1v1H28zM0 26h1v1H0zM2 26h3v1H2zM6 26h1v1H6zM10 26h1v1H10zM12 26h5v1H12zM18 26h1v1H18zM25,26 h4v1H25zM0 27h1v1H0zM6 27h1v1H6zM10 27h1v1H10zM12 27h1v1H12zM15 27h1v1H15zM17 27h9v1H17zM27,27 h2v1H27zM0 28h7v1H0zM8 28h1v1H8zM11 28h2v1H11zM15 28h1v1H15zM17 28h1v1H17zM20 28h1v1H20zM23 28h2v1H23zM27 28h1v1H27z" shape-rendering="crispEdges"></path></svg>