<svg width="64" height="24" viewBox="0 0 64 24" fill="none" xmlns="http://www.w3.org/2000/svg">
<path fill-rule="evenodd" clip-rule="evenodd" d="M26.2306 1.55902C26.6386 0.867672 26.1334 0 25.3228 0H22.402L13.0943 15.8424L8.02645 7.33074C7.64902 6.69684 6.95981 6.30756 6.21492 6.30756H2.66857L13.0346 23.9201L26.2306 1.55902Z" fill="#1434CB"/>
<path fill-rule="evenodd" clip-rule="evenodd" d="M11.5781 12.8729L18.7786 1.00823C19.1582 0.382792 19.8426 0 20.5812 0H22.201L13.0973 15.4689L11.5781 12.8729Z" fill="#A1AEEA"/>
<path fill-rule="evenodd" clip-rule="evenodd" d="M12.75 23.9199L2.3863 6.33203H1.05221C0.239637 6.33203 -0.265346 7.20357 0.146666 7.8949L9.08779 22.8975C9.46533 23.5309 10.1543 23.9199 10.8989 23.9199H12.75Z" fill="#A1AEEA"/>
<path d="M48.4192 24V0H42.8906V24H48.4192Z" fill="#1434CB"/>
<path d="M63.8708 18.3861C63.2636 18.7645 62.4008 18.9853 61.506 18.9853C60.004 18.9853 59.301 18.2284 59.301 16.5885V11.0368H63.9986V6.24433H59.301V0H53.8363V6.24433H50.6406V11.0368H53.8363V17.85C53.8363 21.729 56.1053 23.9997 59.9721 23.9997C61.506 23.9997 62.6564 23.7474 63.8708 23.0851V18.3861Z" fill="#1434CB"/>
<path d="M31.558 23.8887C36.6392 23.8887 40.5379 19.9466 40.5379 15.0898C40.5379 10.2331 36.6392 6.29102 31.558 6.29102C26.4769 6.29102 22.5781 10.2331 22.5781 15.0898C22.5781 19.9466 26.4769 23.8887 31.558 23.8887ZM31.558 19.0635C29.8643 19.0635 28.2665 17.739 28.2665 15.0898C28.2665 12.4407 29.8643 11.1477 31.558 11.1477C33.2518 11.1477 34.8496 12.4407 34.8496 15.0898C34.8496 17.739 33.2518 19.0635 31.558 19.0635Z" fill="#1434CB"/>
</svg>
