<svg width="64" height="64" viewBox="0 0 64 64" fill="none" xmlns="http://www.w3.org/2000/svg">
<path d="M50.596 24.6992H15.6738C14.017 24.6992 12.6738 26.0424 12.6738 27.6992V53.5276C12.6738 55.1844 14.017 56.5276 15.6738 56.5276H50.596C52.2529 56.5276 53.596 55.1844 53.596 53.5276V46.7343V34.4927V27.6992C53.596 26.0424 52.2529 24.6992 50.596 24.6992Z" fill="#CFEADA"/>
<path d="M45 32.8438H53.9142C56.1233 32.8438 57.9142 34.6346 57.9142 36.8437V37.9376C57.9142 40.1467 56.1233 41.9376 53.9142 41.9376H45C43.3431 41.9376 42 40.5944 42 38.9376V35.8438C42 34.1869 43.3431 32.8438 45 32.8438Z" fill="#CFEADA"/>
<path fill-rule="evenodd" clip-rule="evenodd" d="M6 23.043C6 20.9719 7.67893 19.293 9.75 19.293H44.6722C46.7433 19.293 48.4222 20.9719 48.4222 23.043V24.9397V29.8364V30.6605H46.0769H39.8733C37.8023 30.6605 36.1233 32.3395 36.1233 34.4105V39.7778C36.1233 41.8489 37.8023 43.5278 39.8733 43.5278H48.4222V48.8713C48.4222 50.9424 46.7433 52.6213 44.6722 52.6213H9.75C7.67893 52.6213 6 50.9424 6 48.8713V23.043ZM48.4222 42.0278H49.3773V43.5278H48.4222V42.078V42.0278ZM48.4222 41.6401V42.0278H39.8733C38.6307 42.0278 37.6233 41.0204 37.6233 39.7778V34.4105C37.6233 33.1679 38.6307 32.1605 39.8733 32.1605H46.0769H48.4222V32.5463H49.9228C52.1319 32.5463 53.9228 34.3372 53.9228 36.5463V37.6401C53.9228 39.8493 52.1319 41.6401 49.9228 41.6401H48.4222ZM48.4222 32.1605V30.6605H49.3773V32.1605H48.4222ZM22.8797 43.1321C22.9735 43.2259 23.1006 43.2786 23.2332 43.2786C23.3659 43.2786 23.493 43.2259 23.5868 43.1321L30.4072 36.3118C30.6024 36.1165 30.6024 35.7999 30.4072 35.6047C30.2119 35.4094 29.8953 35.4094 29.7001 35.6047L23.7332 41.5715V29.1379C23.7332 28.8617 23.5094 28.6379 23.2332 28.6379C22.9571 28.6379 22.7332 28.8617 22.7332 29.1379V41.5715L16.7664 35.6047C16.5712 35.4094 16.2546 35.4094 16.0593 35.6047C15.8641 35.7999 15.8641 36.1165 16.0593 36.3118L22.8797 43.1321Z" fill="white"/>
<path d="M40.0078 32.5469H49.3751C51.8863 32.5469 53.922 34.5826 53.922 37.0938C53.922 39.605 51.8863 41.6407 49.3751 41.6407H40.0078C38.9032 41.6407 38.0078 40.7453 38.0078 39.6407V34.5469C38.0078 33.4423 38.9032 32.5469 40.0078 32.5469Z" stroke="#DFE2E8"/>
<path d="M23.2324 42.7812V29.1405M23.2324 42.7812L30.0527 35.9609M23.2324 42.7812L16.412 35.9609" stroke="#BFC5D0" stroke-linecap="round" stroke-linejoin="round"/>
<path fill-rule="evenodd" clip-rule="evenodd" d="M27.6895 7.33728L13 17.1308H19.8204L31.1876 10.3101L30.7392 8.51631C30.4038 7.17451 28.8403 6.57005 27.6895 7.33728ZM43.6938 17.1277L41.0975 9.3388C40.6849 8.10082 39.2163 7.58324 38.1187 8.2889L24.3695 17.1277H43.6938Z" fill="#0E8741"/>
<path d="M47.6722 43.8104V48.8713C47.6722 50.5282 46.329 51.8713 44.6722 51.8713H9.75C8.09314 51.8713 6.75 50.5282 6.75 48.8713V23.043C6.75 21.3861 8.09315 20.043 9.75 20.043H44.6722C46.3291 20.043 47.6722 21.3861 47.6722 23.043V30.5" stroke="#DFE2E8"/>
</svg>
