<svg width="160" height="64" viewBox="0 0 160 64" fill="none" xmlns="http://www.w3.org/2000/svg">
<g style="mix-blend-mode:luminosity">
<rect width="160" height="64" rx="8" fill="#F9FAFB"/>
<g clip-path="url(#clip0_3055_21519)">
<g style="mix-blend-mode:luminosity">
<mask id="mask0_3055_21519" style="mask-type:alpha" maskUnits="userSpaceOnUse" x="42" y="22" width="76" height="20">
<path d="M117.6 22H42V42H117.6V22Z" fill="white"/>
</mask>
<g mask="url(#mask0_3055_21519)">
<path fill-rule="evenodd" clip-rule="evenodd" d="M53.0422 37.5609C55.1963 37.5481 58.242 37.2879 58.242 34.5622C58.242 33.2385 57.4401 32.4393 55.8277 31.9417C57.1287 31.6133 58.2449 30.6549 58.2449 29.3525C58.2449 26.7192 55.0357 26.4348 53.0451 26.4348H46.3523V37.5652H48.8449V28.7098H55.3698V30.6891H51.1042V33.2342H54.9575V35.1068H51.1042V37.5609H53.0422ZM46.4443 23.6853C48.0888 22.5865 50.0222 22 52 22H52.0029C54.6545 22.0008 57.1973 23.0547 59.0721 24.9299C60.9468 26.8052 62 29.3483 62 32C62 33.9778 61.4135 35.9112 60.3147 37.5557C59.2159 39.2002 57.6541 40.4819 55.8269 41.2388C53.9996 41.9957 51.9889 42.1937 50.0491 41.8079C48.1093 41.422 46.3275 40.4696 44.9289 39.0711C43.5304 37.6725 42.578 35.8907 42.1922 33.9509C41.8063 32.0111 42.0043 30.0004 42.7612 28.1732C43.5181 26.3459 44.7998 24.7841 46.4443 23.6853ZM66.0438 30.6862V23.0309H72.8161C74.2124 23.0309 76.459 23.22 76.459 25.04C76.459 25.9343 75.6741 26.5656 74.7613 26.7945C75.8987 27.1358 76.459 27.7643 76.459 28.6245C76.459 30.5013 74.3262 30.6805 72.8161 30.6862H68.5307L69.2416 29.5103C69.3316 29.3795 69.452 29.2724 69.5923 29.1981C69.7327 29.1239 69.8889 29.0846 70.0478 29.0837H72.7792C73.2967 29.0923 73.7063 28.7255 73.7063 28.2775C73.7063 27.8297 73.3053 27.4685 72.7792 27.4685L68.5307 27.4628L69.2416 26.2884C69.3315 26.1575 69.4519 26.0503 69.5923 25.976C69.7327 25.9017 69.8889 25.8625 70.0478 25.8618H72.8161C73.3109 25.8618 73.7133 25.6357 73.7133 25.2518C73.7133 24.8679 73.3138 24.6376 72.8161 24.6376H68.5307V27.4628V30.6862H66.0438ZM82.4707 24.8793L79.1136 30.6947H76.1903L80.871 23.0309H84.0703L88.7467 30.6891H85.8263L85.0414 29.3241H80.7075L81.427 28.1496C81.5177 28.0194 81.6381 27.9127 81.7783 27.8385C81.9186 27.7643 82.0745 27.7247 82.2332 27.723H84.1101L82.4707 24.8793ZM102.803 24.8793L102.8 24.8854L102.796 24.8793H102.803ZM102.8 24.8854L99.4491 30.6947H96.5187L101.198 23.0309H104.397L109.073 30.6891H106.159L105.373 29.3241H101.04L101.751 28.1496C101.841 28.0193 101.961 27.9125 102.101 27.8382C102.241 27.764 102.396 27.7245 102.555 27.723H104.434L102.8 24.8854ZM93.2769 29.0837C93.8456 29.0837 94.2991 28.8093 94.2991 28.252V23.0309H96.7746V28.4823C96.7746 30.1345 95.6812 30.6891 94.2494 30.6891H90.1117C89.9533 30.6871 89.7977 30.6474 89.6577 30.5732C89.5177 30.499 89.3975 30.3925 89.307 30.2625L88.5875 29.0823L93.2769 29.0837ZM113.599 29.0837C114.169 29.0837 114.625 28.8093 114.625 28.252V23.0309H117.107V28.4823C117.107 30.1345 116.017 30.6891 114.583 30.6891H110.446C110.287 30.6881 110.131 30.6487 109.991 30.5745C109.851 30.5002 109.731 30.3932 109.641 30.2625L108.921 29.0823L113.599 29.0837ZM66.0296 33.2385H72.1607V35.0997H68.1539V36.9253H71.7767V38.6871H68.1539V40.9023H66.0296V33.2385ZM75.7381 33.2385H73.6053V40.9023H75.7381V33.2385ZM77.5794 33.2385H79.5615L82.7152 37.2893V33.2385H84.8167V40.9023H82.9555L79.6852 36.6993V40.9023H77.5794V33.2385ZM87.214 38.3515L86.0324 39.7634C86.9737 40.6066 88.2647 41.0331 89.6241 41.0331C91.4839 41.0331 92.7209 40.1018 92.7209 38.5377V38.5164C92.7209 37.0817 91.6275 36.5116 89.8643 36.1291C88.8022 35.8874 88.5392 35.7353 88.5392 35.3841V35.3627C88.5392 35.0883 88.7909 34.8693 89.3055 34.8693C89.9852 34.8693 90.7502 35.1324 91.4511 35.6257L92.5133 34.1257C91.6815 33.4574 90.6635 33.1077 89.361 33.1077C87.5211 33.1077 86.3936 34.1385 86.3936 35.5603V35.5817C86.3936 37.1585 87.6519 37.6178 89.2843 37.9903C90.3236 38.2306 90.5753 38.4069 90.5753 38.724V38.7453C90.5753 39.0738 90.2682 39.2715 89.6994 39.2715C88.7897 39.2605 87.9116 38.9355 87.214 38.3515ZM94.1883 33.2385H100.352V35.0456H96.2912V36.2059H99.9696V37.8809H96.2912V39.0979H100.408V40.9037H94.1883V33.2385ZM105.553 33.2385H101.929V40.9023H104.053V38.5818H104.983L106.527 40.9023H108.98L107.151 38.2306C108.104 37.8254 108.728 37.0491 108.728 35.8774V35.8547C108.728 35.0997 108.498 34.5081 108.049 34.0702C107.535 33.5455 106.725 33.2385 105.553 33.2385ZM106.586 36.0083C106.586 36.567 106.172 36.9182 105.448 36.9182H104.046V35.0783H105.437C106.148 35.0783 106.586 35.3841 106.586 35.9869V36.0083ZM109.407 33.2385H111.783L113.523 38.0884L115.259 33.2385H117.591L114.481 40.9577H112.516L109.407 33.2385Z" fill="#667085"/>
</g>
</g>
</g>
</g>
<defs>
<clipPath id="clip0_3055_21519">
<rect width="75.6" height="20" fill="white" transform="translate(42 22)"/>
</clipPath>
</defs>
</svg>
