<svg width="76" height="20" viewBox="0 0 76 20" fill="none" xmlns="http://www.w3.org/2000/svg">
<g clip-path="url(#clip0_714_16108)">
<mask id="mask0_714_16108" style="mask-type:alpha" maskUnits="userSpaceOnUse" x="0" y="0" width="76" height="20">
<path d="M75.6 0H0V20H75.6V0Z" fill="white"/>
</mask>
<g mask="url(#mask0_714_16108)">
<path fill-rule="evenodd" clip-rule="evenodd" d="M11.0422 15.5609C13.1963 15.5481 16.242 15.2879 16.242 12.5622C16.242 11.2385 15.4401 10.4393 13.8277 9.94174C15.1287 9.61327 16.2449 8.65493 16.2449 7.35247C16.2449 4.71918 13.0357 4.43481 11.0451 4.43481H4.35234V15.5652H6.84487V6.7098H13.3698V8.68907H9.1042V11.2342H12.9575V13.1068H9.1042V15.5609H11.0422ZM4.4443 1.68531C6.08879 0.586489 8.0222 0 10 0H10.0029C12.6545 0.000754067 15.1973 1.05465 17.0721 2.92994C18.9468 4.80522 20 7.34833 20 10C20 11.9778 19.4135 13.9112 18.3147 15.5557C17.2159 17.2002 15.6541 18.4819 13.8269 19.2388C11.9996 19.9957 9.98893 20.1937 8.04907 19.8079C6.10929 19.422 4.32746 18.4696 2.92893 17.0711C1.53041 15.6725 0.578004 13.8907 0.192152 11.9509C-0.1937 10.0111 0.00433324 8.0004 0.761207 6.17317C1.51809 4.34591 2.79981 2.78412 4.4443 1.68531ZM24.0438 8.6862V1.03085H30.8161C32.2124 1.03085 34.459 1.21996 34.459 3.03995C34.459 3.93431 33.6741 4.56562 32.7613 4.79454C33.8987 5.13579 34.459 5.76425 34.459 6.62449C34.459 8.50133 32.3262 8.68053 30.8161 8.6862H26.5307L27.2416 7.51033C27.3316 7.37953 27.452 7.2724 27.5923 7.19813C27.7327 7.12387 27.8889 7.0846 28.0478 7.08373H30.7792C31.2967 7.09227 31.7063 6.72547 31.7063 6.27755C31.7063 5.82966 31.3053 5.46851 30.7792 5.46851L26.5307 5.46282L27.2416 4.28835C27.3315 4.15746 27.4519 4.0503 27.5923 3.97601C27.7327 3.90173 27.8889 3.86255 28.0478 3.86179H30.8161C31.3109 3.86179 31.7133 3.63572 31.7133 3.25181C31.7133 2.86791 31.3138 2.63757 30.8161 2.63757H26.5307V5.46282V8.6862H24.0438ZM40.4707 2.87929L37.1136 8.69474H34.1903L38.871 1.03085H42.0703L46.7467 8.68907H43.8263L43.0414 7.32407H38.7075L39.427 6.14958C39.5177 6.01937 39.6381 5.91272 39.7783 5.83851C39.9186 5.76431 40.0745 5.72471 40.2332 5.72302H42.1101L40.4707 2.87929ZM60.8033 2.87929L60.7998 2.88545L60.7963 2.87929H60.8033ZM60.7998 2.88545L57.4491 8.69474H54.5187L59.1981 1.03085H62.3973L67.0727 8.68907H64.1589L63.3727 7.32407H59.0403L59.7512 6.14958C59.8411 6.01925 59.9609 5.91246 60.1008 5.83822C60.2406 5.76397 60.3962 5.72447 60.5545 5.72302H62.4342L60.7998 2.88545ZM51.2769 7.08373C51.8456 7.08373 52.2991 6.80933 52.2991 6.25195V1.03085H54.7746V6.48229C54.7746 8.13453 53.6812 8.68907 52.2494 8.68907H48.1117C47.9533 8.68713 47.7977 8.6474 47.6577 8.5732C47.5177 8.499 47.3975 8.39247 47.307 8.26247L46.5875 7.08233L51.2769 7.08373ZM71.5993 7.08373C72.1687 7.08373 72.6247 6.80933 72.6247 6.25195V1.03085H75.1073V6.48229C75.1073 8.13453 74.0167 8.68907 72.5833 8.68907H68.446C68.2873 8.68807 68.1313 8.64874 67.9913 8.57447C67.8513 8.5002 67.7307 8.3932 67.6413 8.26247L66.9213 7.08233L71.5993 7.08373ZM24.0296 11.2385H30.1607V13.0997H26.1539V14.9253H29.7767V16.6871H26.1539V18.9023H24.0296V11.2385ZM33.7381 11.2385H31.6053V18.9023H33.7381V11.2385ZM35.5794 11.2385H37.5615L40.7152 15.2893V11.2385H42.8167V18.9023H40.9555L37.6852 14.6993V18.9023H35.5794V11.2385ZM45.214 16.3515L44.0324 17.7634C44.9737 18.6066 46.2647 19.0331 47.6241 19.0331C49.4839 19.0331 50.7209 18.1018 50.7209 16.5377V16.5164C50.7209 15.0817 49.6275 14.5116 47.8643 14.1291C46.8022 13.8874 46.5392 13.7353 46.5392 13.3841V13.3627C46.5392 13.0883 46.7909 12.8693 47.3055 12.8693C47.9852 12.8693 48.7502 13.1324 49.4511 13.6257L50.5133 12.1257C49.6815 11.4574 48.6635 11.1077 47.361 11.1077C45.5211 11.1077 44.3936 12.1385 44.3936 13.5603V13.5817C44.3936 15.1585 45.6519 15.6178 47.2843 15.9903C48.3236 16.2306 48.5753 16.4069 48.5753 16.724V16.7453C48.5753 17.0738 48.2682 17.2715 47.6994 17.2715C46.7897 17.2605 45.9116 16.9355 45.214 16.3515ZM52.1883 11.2385H58.3521V13.0456H54.2912V14.2059H57.9696V15.8809H54.2912V17.0979H58.4075V18.9037H52.1883V11.2385ZM63.5533 11.2385H59.9289V18.9023H62.0532V16.5818H62.9831L64.5272 18.9023H66.98L65.1514 16.2306C66.1041 15.8254 66.728 15.0491 66.728 13.8774V13.8547C66.728 13.0997 66.4979 12.5081 66.0486 12.0702C65.5353 11.5455 64.7249 11.2385 63.5533 11.2385ZM64.5855 14.0083C64.5855 14.567 64.1717 14.9182 63.448 14.9182H62.0461V13.0783H63.4367C64.1476 13.0783 64.5855 13.3841 64.5855 13.9869V14.0083ZM67.4067 11.2385H69.7827L71.5227 16.0884L73.2587 11.2385H75.5907L72.4813 18.9577H70.516L67.4067 11.2385Z" fill="#000000"/>
</g>
</g>
<defs>
<clipPath id="clip0_714_16108">
<rect width="75.6" height="20" fill="white"/>
</clipPath>
</defs>
</svg>
