<svg width="160" height="64" viewBox="0 0 160 64" fill="none" xmlns="http://www.w3.org/2000/svg">
<rect width="160" height="64" rx="8" fill="#F9FAFB"/>
<path fill-rule="evenodd" clip-rule="evenodd" d="M49.0761 31.08C49.1122 30.7435 49.1599 30.4005 49.2179 30.0486C49.5127 28.3592 50.196 26.7615 51.2137 25.3813C52.2512 23.9476 53.9036 23.1539 56.171 23C56.5845 23.0054 56.9967 23.0486 57.4023 23.1289C57.8952 23.2257 58.375 23.3797 58.8321 23.5879C59.5842 23.9489 60.2989 24.5295 60.9762 25.3297C61.6535 26.13 62.1521 27.2676 62.4718 28.7425H60.2658C59.9487 27.4833 59.411 26.5477 58.6529 25.9357C57.8948 25.3237 57.0821 25.0177 56.2149 25.0177H56.0511C56.0036 25.0177 55.9565 25.026 55.9119 25.0422C54.7713 25.1351 53.721 25.7436 52.7609 26.8679C51.8008 27.9921 51.2915 29.6042 51.2331 31.704C51.2331 34.2284 51.717 36.0519 52.6848 37.1745C53.6526 38.297 54.7133 38.8656 55.8668 38.8802H55.9338C57.0598 38.8802 58.0994 38.4448 59.0526 37.5741C60.0058 36.7034 60.5258 35.5465 60.6126 34.1034H62.8173C62.7877 34.3084 62.7554 34.5147 62.7193 34.7261C62.6832 34.9375 62.6368 35.1554 62.5788 35.3707C62.1806 36.809 61.4324 38.1263 60.4012 39.2051C59.3259 40.3663 57.9718 40.9469 56.3386 40.9469C53.8692 41.026 52.0281 40.1665 50.8153 38.3683C49.6025 36.5702 48.9974 34.4743 49 32.0805C49.0142 31.7491 49.04 31.4178 49.0761 31.08Z" fill="#667085"/>
<path fill-rule="evenodd" clip-rule="evenodd" d="M70.8238 26.1477L66.2094 40.4098H63.8242L69.4571 23.1836H72.0138L77.7988 40.4098H75.4162L70.8238 26.1477Z" fill="#98A2B3"/>
<path fill-rule="evenodd" clip-rule="evenodd" d="M79.8672 23.1836H83.0324L87.6352 37.634L92.2366 23.1836H95.4251V40.4098H93.1121V26.6905L88.6898 40.4098H86.5792L82.1583 26.8774V40.4098H79.8672V23.1836Z" fill="#667085"/>
<path fill-rule="evenodd" clip-rule="evenodd" d="M99.8579 34.8617C99.8579 36.2576 100.288 37.289 101.147 37.956C101.959 38.6056 102.956 38.9807 103.995 39.0274H104.169C105.065 39.0358 105.946 38.7953 106.713 38.3325C107.077 38.1305 107.388 37.8448 107.62 37.4989C107.852 37.1529 107.999 36.7568 108.047 36.3431C108.06 36.2859 108.067 36.2276 108.068 36.169V35.9924C108.068 34.8939 107.646 34.1521 106.801 33.7671C105.872 33.3569 104.904 33.0453 103.91 32.8375C103.781 32.8066 103.652 32.7795 103.541 32.755C103.431 32.7305 103.309 32.7047 103.195 32.6738C101.957 32.3936 100.774 31.9132 99.6916 31.2517C98.6455 30.6079 98.187 29.3362 98.3159 27.4367C98.4019 26.2333 98.915 25.1903 99.8553 24.3075C100.796 23.4248 102.159 22.989 103.946 23.0002C105.736 23.0002 107.169 23.4472 108.245 24.3411C109.321 25.235 109.818 26.5114 109.735 28.1703H107.698V27.9124C107.698 26.9394 107.319 26.1946 106.562 25.6781C105.825 25.1677 104.956 24.8812 104.06 24.8529H103.931C103.072 24.8468 102.232 25.0969 101.516 25.5711C100.786 26.049 100.399 26.7976 100.356 27.817C100.393 28.2015 100.535 28.5684 100.765 28.8783C100.996 29.1882 101.307 29.4293 101.664 29.5756C102.513 29.944 103.394 30.2319 104.297 30.4355C104.47 30.4833 104.651 30.5297 104.838 30.5787L105.403 30.7192C106.55 31.0075 107.648 31.4632 108.662 32.0717C109.667 32.6733 110.256 33.7288 110.429 35.2382C110.515 37.1025 109.894 38.5207 108.566 39.4928C107.287 40.4478 105.74 40.9752 104.145 41H104.082C102.5 41.0018 100.964 40.4749 99.7161 39.5031C98.395 38.5069 97.7559 36.9598 97.7989 34.8617H99.8579Z" fill="#667085"/>
<path fill-rule="evenodd" clip-rule="evenodd" d="M77.666 28.3656C77.5658 28.3133 77.4493 28.3022 77.3411 28.3347L75.1673 28.6002C75.0882 28.636 75.0264 28.7017 74.9957 28.7829C74.965 28.8642 74.9679 28.9543 75.0036 29.0334C75.041 29.1121 75.1063 29.1742 75.1868 29.2075C75.2673 29.2408 75.3573 29.2431 75.4394 29.214L76.4592 29.1147L75.0539 30.7095L72.4572 30.8784L72.358 31.0422L71.4555 32.6009H68.4772L68.3792 32.7298L67.4767 33.956H64.4662L64.3708 34.1029L63.2659 35.8564C63.2421 35.892 63.2255 35.932 63.2172 35.974C63.2088 36.0161 63.2089 36.0593 63.2172 36.1013C63.2256 36.1434 63.2422 36.1833 63.266 36.2189C63.2899 36.2546 63.3205 36.2851 63.3561 36.3089C63.4286 36.3568 63.517 36.3741 63.6022 36.3573C63.6874 36.3404 63.7625 36.2906 63.8112 36.2187L64.8182 34.6109H67.8119L67.9099 34.482L68.8124 33.2572H71.8422L71.9351 33.0921L72.8376 31.5321L75.362 31.3297L75.4407 31.2497L77.069 29.4873L77.0355 30.814C77.0319 30.8569 77.0369 30.9001 77.05 30.9411C77.0632 30.9821 77.0843 31.0201 77.1121 31.053C77.1399 31.0859 77.174 31.1129 77.2123 31.1326C77.2505 31.1523 77.2923 31.1643 77.3353 31.1679C77.3782 31.1714 77.4214 31.1665 77.4624 31.1534C77.5034 31.1402 77.5414 31.1191 77.5743 31.0913C77.6072 31.0635 77.6342 31.0294 77.6539 30.9911C77.6736 30.9528 77.6856 30.911 77.6892 30.8681L77.8039 28.6608C77.8087 28.6039 77.7985 28.5466 77.7743 28.4948C77.7501 28.443 77.7127 28.3985 77.666 28.3656Z" fill="#667085"/>
</svg>
