<svg width="69" height="24" viewBox="0 0 69 24" fill="none" xmlns="http://www.w3.org/2000/svg">
<path d="M11.3553 10.7848C10.4652 10.7848 9.75 10.0616 9.75 9.17952C9.75 8.2974 10.4732 7.57422 11.3553 7.57422C12.2374 7.57422 12.9606 8.2974 12.9606 9.17952C12.9606 10.0616 12.2374 10.7848 11.3553 10.7848Z" fill="#27275B"/>
<path d="M11.3555 2.77359C10.8152 2.77359 10.3701 2.32856 10.3701 1.78816C10.3701 1.24777 10.8152 0.802734 11.3555 0.802734C11.8959 0.802734 12.341 1.24777 12.341 1.78816C12.333 2.32061 11.8959 2.77359 11.3555 2.77359Z" fill="#959596"/>
<path d="M8.94824 4.67366L10.5059 3.06836H12.2463L13.7562 4.67366V6.77962H12.135V4.66571H10.5535V6.77962H8.94824V4.67366Z" fill="#27275B"/>
<path d="M11.3555 15.584C10.8072 15.584 10.3701 16.029 10.3701 16.5694C10.3701 17.1098 10.8072 17.5548 11.3555 17.5548C11.8959 17.5548 12.341 17.1098 12.341 16.5694C12.333 16.029 11.8959 15.584 11.3555 15.584Z" fill="#959596"/>
<path d="M8.94824 13.6761L10.5059 15.2894H12.2463L13.7562 13.6761V11.5781H12.1271L12.135 13.692L10.5456 13.7V11.5781H8.94824V13.6761Z" fill="#27275B"/>
<path d="M17.7686 9.17098C17.7686 9.71137 18.2136 10.1564 18.746 10.1564C19.2944 10.1564 19.7315 9.71137 19.7315 9.17098C19.7315 8.63058 19.2944 8.18555 18.746 8.18555C18.2056 8.18555 17.7686 8.63058 17.7686 9.17098Z" fill="#959596"/>
<path d="M15.8539 11.5794L17.4592 10.0218V8.27347L15.8539 6.77148H13.7559V8.39268H15.8698L15.8777 9.97413H13.7559V11.5794H15.8539Z" fill="#27275B"/>
<path d="M4.94254 9.17879C4.94254 9.71919 4.49751 10.1642 3.95711 10.1642C3.41671 10.1642 2.97168 9.71919 2.97168 9.17879C2.97168 8.63839 3.41671 8.19336 3.95711 8.19336C4.49751 8.19336 4.94254 8.63839 4.94254 9.17879Z" fill="#959596"/>
<path d="M6.84944 11.5872L5.24414 10.0296V8.28923L6.84944 6.7793H8.94745V8.40049H6.83354L6.8256 9.98195H8.94745V11.5872H6.84944Z" fill="#27275B"/>
<path d="M32.7733 11.1742C32.8289 12.3345 32.3839 13.3119 31.4382 14.1066C30.4925 14.8934 29.3005 15.2907 27.87 15.2907C26.1375 15.2907 24.8263 14.7742 23.9203 13.7331C23.0144 12.7 22.5693 11.1821 22.5693 9.18743C22.5693 7.19273 23.0382 5.67485 23.968 4.64173C24.8899 3.60067 26.2488 3.07617 28.0289 3.07617C29.4038 3.07617 30.5481 3.45763 31.4382 4.22849C32.3044 4.95962 32.7256 5.84968 32.7177 6.89074V7.07352H30.3177C30.2541 6.38213 30.0077 5.84174 29.5707 5.46823C29.1336 5.08677 28.5693 4.89604 27.8621 4.89604C26.9164 4.89604 26.2011 5.2616 25.7005 5.99273C25.2077 6.72385 24.9614 7.7967 24.9614 9.19538C24.9614 10.602 25.2157 11.6669 25.7164 12.398C26.225 13.1292 26.9561 13.4947 27.9177 13.4947C28.6568 13.4947 29.2369 13.2881 29.674 12.8828C30.1031 12.4775 30.3336 11.9133 30.3654 11.1901L32.7733 11.1742ZM34.8236 15.0444V3.31458H36.0395H39.5124C41.2687 3.31458 42.6356 3.83114 43.6289 4.8722C44.6144 5.91326 45.1071 7.35167 45.1071 9.17948C45.1071 11.0947 44.5508 12.557 43.4303 13.5503C42.3177 14.5517 40.6806 15.0444 38.5349 15.0444H36.0475H34.8236ZM37.2634 13.2404H38.9481C40.1799 13.2404 41.1097 12.8987 41.7455 12.1994C42.3813 11.508 42.6991 10.5066 42.6991 9.17948C42.6991 7.88412 42.3654 6.87485 41.7058 6.17551C41.0462 5.47617 40.1005 5.11856 38.8925 5.11856H37.2634V13.2404ZM53.3322 6.60465C53.3164 6.06425 53.1415 5.63511 52.8077 5.33313C52.466 5.03114 52.0051 4.88015 51.417 4.88015C50.8607 4.88015 50.4077 5.02319 50.0422 5.30928C49.6766 5.59538 49.4938 5.95299 49.4938 6.38213C49.4938 6.74769 49.6607 7.04968 49.9945 7.29604C50.3283 7.53445 50.9402 7.78875 51.8144 8.05895L53.3243 8.51193C54.3336 8.81392 55.0488 9.20333 55.4621 9.6722C55.8832 10.1331 56.0899 10.7768 56.0899 11.5874C56.0899 12.6762 55.6528 13.5583 54.7786 14.2497C53.9044 14.9411 52.7839 15.2907 51.4011 15.2907C49.8197 15.2907 48.6356 14.957 47.8568 14.2974C47.1018 13.6537 46.7203 12.6921 46.7203 11.4046V11.3013H49.1203C49.0885 11.9927 49.2713 12.5331 49.6766 12.9066C50.074 13.2881 50.6541 13.4868 51.4011 13.4868C52.0528 13.4868 52.6011 13.3278 53.0382 13.0179C53.4673 12.708 53.6899 12.3106 53.6899 11.8417C53.6899 11.5239 53.5548 11.2695 53.2846 11.0709C53.0223 10.8722 52.5375 10.6576 51.8223 10.4431L50.3124 9.99008C49.1362 9.62452 48.3018 9.21127 47.8091 8.73445C47.3243 8.25763 47.0779 7.62981 47.0779 6.84306C47.0779 5.73842 47.4832 4.84041 48.2859 4.13313C49.0965 3.43379 50.1296 3.07617 51.4011 3.07617C52.8236 3.07617 53.9124 3.39405 54.6753 4.01392C55.3746 4.58611 55.7322 5.37286 55.7322 6.35034L55.7243 6.6126L53.3322 6.60465ZM58.2594 15.0444V3.31458H59.4753H60.6912V13.2404H65.6183V14.1464V15.0523H58.2594V15.0444Z" fill="#27275B"/>
<path d="M4.85518 21.4022L4.86313 21.4101C4.87108 21.6883 4.76777 21.9267 4.56909 22.1094C4.37041 22.3002 4.10022 22.3876 3.76644 22.3876C3.43267 22.3876 3.15452 22.2684 2.93995 22.03C2.72538 21.7916 2.62207 21.4896 2.62207 21.124V20.5995C2.62207 20.234 2.72538 19.932 2.93995 19.6936C3.15452 19.4551 3.42472 19.3359 3.76644 19.3359C4.10022 19.3359 4.37041 19.4234 4.56909 19.6061C4.76777 19.7889 4.86313 20.0194 4.86313 20.3214L4.85518 20.3293H4.46578C4.46578 20.1227 4.4022 19.9558 4.283 19.8366C4.16379 19.7174 3.98896 19.6538 3.76644 19.6538C3.54392 19.6538 3.36114 19.7412 3.22604 19.924C3.09094 20.1068 3.02737 20.3293 3.02737 20.5995V21.132C3.02737 21.4022 3.09094 21.6326 3.22604 21.8075C3.36114 21.9823 3.53598 22.0777 3.76644 22.0777C3.98896 22.0777 4.16379 22.022 4.283 21.8949C4.4022 21.7757 4.46578 21.6088 4.46578 21.3942L4.85518 21.4022Z" fill="#27275B"/>
<path d="M5.23633 21.2261C5.23633 20.9003 5.32375 20.6301 5.50653 20.4155C5.68136 20.201 5.92772 20.0977 6.22971 20.0977C6.53964 20.0977 6.77805 20.201 6.96083 20.4155C7.13567 20.6301 7.23103 20.9003 7.23103 21.2261V21.2738C7.23103 21.6076 7.14361 21.8778 6.96083 22.0844C6.786 22.291 6.53964 22.4023 6.23765 22.4023C5.93567 22.4023 5.68931 22.299 5.51447 22.0844C5.33964 21.8698 5.24428 21.6076 5.24428 21.2738L5.23633 21.2261ZM5.64163 21.2659C5.64163 21.4963 5.68931 21.695 5.79262 21.846C5.88798 21.997 6.03898 22.0765 6.22971 22.0765C6.42043 22.0765 6.57143 21.997 6.66679 21.846C6.76216 21.695 6.81779 21.4963 6.81779 21.2659V21.2182C6.81779 20.9877 6.7701 20.789 6.66679 20.6381C6.56348 20.4871 6.42043 20.4076 6.22176 20.4076C6.03103 20.4076 5.88004 20.4871 5.78467 20.6381C5.68931 20.789 5.63368 20.9877 5.63368 21.2182L5.64163 21.2659Z" fill="#27275B"/>
<path d="M8.07357 20.1374L8.10536 20.4632C8.17688 20.344 8.27225 20.2566 8.3835 20.193C8.49476 20.1294 8.62192 20.0977 8.76496 20.0977C9.00337 20.0977 9.18615 20.1692 9.32125 20.3043C9.44841 20.4473 9.51993 20.6619 9.51993 20.948V22.3467H9.11463V20.9559C9.11463 20.7573 9.07489 20.6222 8.99542 20.5427C8.91595 20.4632 8.8047 20.4235 8.64576 20.4235C8.5186 20.4235 8.41529 20.4473 8.32788 20.495C8.24046 20.5427 8.16893 20.6142 8.12125 20.7016V22.3467H7.70801V20.1374H8.07357V20.1374Z" fill="#27275B"/>
<path d="M10.8313 21.7041L10.8631 21.863H10.871L10.9108 21.7041L11.4194 20.1465H11.8326L11.022 22.3558H10.72L9.89355 20.1465H10.3068L10.8313 21.7041Z" fill="#27275B"/>
<path d="M13.1119 22.3942C12.7941 22.3942 12.5477 22.2909 12.3649 22.0922C12.1901 21.8856 12.0947 21.6233 12.0947 21.2896V21.2022C12.0947 20.8843 12.1901 20.622 12.3729 20.4154C12.5557 20.2088 12.7782 20.1055 13.0404 20.1055C13.3345 20.1055 13.557 20.2008 13.708 20.3836C13.859 20.5664 13.9305 20.8128 13.9305 21.1147V21.3293H12.5159L12.508 21.3373C12.508 21.5598 12.5557 21.7426 12.651 21.8777C12.7464 22.0207 12.8974 22.0843 13.104 22.0843C13.2391 22.0843 13.3583 22.0684 13.4616 22.0286C13.5649 21.9889 13.6523 21.9333 13.7239 21.8697L13.8828 22.132C13.8033 22.2114 13.7 22.275 13.5729 22.3227C13.4537 22.3704 13.2947 22.3942 13.1119 22.3942ZM13.0484 20.4154C12.9053 20.4154 12.7941 20.471 12.6987 20.5823C12.6033 20.6935 12.5477 20.8286 12.5318 20.9955L12.5398 21.0035H13.5411V20.9717C13.5411 20.8128 13.5013 20.6777 13.4219 20.5743C13.3345 20.471 13.2153 20.4154 13.0484 20.4154Z" fill="#27275B"/>
<path d="M14.7492 20.1374L14.781 20.4632C14.8525 20.344 14.9479 20.2566 15.0592 20.193C15.1704 20.1294 15.2976 20.0977 15.4406 20.0977C15.679 20.0977 15.8618 20.1692 15.9969 20.3043C16.1241 20.4473 16.1956 20.6619 16.1956 20.948V22.3467H15.7903V20.9559C15.7903 20.7573 15.7505 20.6222 15.6711 20.5427C15.5916 20.4632 15.4803 20.4235 15.3214 20.4235C15.1943 20.4235 15.0909 20.4473 15.0035 20.495C14.9161 20.5427 14.8446 20.6142 14.7969 20.7016V22.3467H14.3916V20.1374H14.7492V20.1374Z" fill="#27275B"/>
<path d="M17.2051 19.5734H16.7998V19.1602H17.2051V19.5734ZM17.2051 22.3549H16.7998V20.1456H17.2051V22.3549Z" fill="#27275B"/>
<path d="M18.7389 22.3942C18.421 22.3942 18.1747 22.2909 17.9919 22.0922C17.817 21.8856 17.7217 21.6233 17.7217 21.2896V21.2022C17.7217 20.8843 17.817 20.622 17.9998 20.4154C18.1826 20.2088 18.4051 20.1055 18.6674 20.1055C18.9614 20.1055 19.1839 20.2008 19.3349 20.3836C19.4859 20.5664 19.5574 20.8128 19.5574 21.1147V21.3293H18.1429L18.1349 21.3373C18.1349 21.5598 18.1826 21.7426 18.278 21.8777C18.3733 22.0207 18.5243 22.0843 18.731 22.0843C18.8661 22.0843 18.9853 22.0684 19.0886 22.0286C19.1919 21.9889 19.2793 21.9333 19.3508 21.8697L19.5098 22.132C19.4303 22.2114 19.327 22.275 19.1998 22.3227C19.0806 22.3704 18.9217 22.3942 18.7389 22.3942ZM18.6753 20.4154C18.5323 20.4154 18.421 20.471 18.3257 20.5823C18.2303 20.6935 18.1747 20.8286 18.1588 20.9955L18.1667 21.0035H19.168V20.9717C19.168 20.8128 19.1283 20.6777 19.0488 20.5743C18.9614 20.471 18.8422 20.4154 18.6753 20.4154Z" fill="#27275B"/>
<path d="M20.3762 20.1374L20.408 20.4632C20.4795 20.344 20.5748 20.2566 20.6861 20.193C20.7974 20.1294 20.9245 20.0977 21.0676 20.0977C21.306 20.0977 21.4888 20.1692 21.6239 20.3043C21.751 20.4473 21.8225 20.6619 21.8225 20.948V22.3467H21.4172V20.9559C21.4172 20.7573 21.3775 20.6222 21.298 20.5427C21.2186 20.4632 21.1073 20.4235 20.9484 20.4235C20.8212 20.4235 20.7179 20.4473 20.6305 20.495C20.5431 20.5427 20.4715 20.6142 20.4239 20.7016V22.3467H20.0186V20.1374H20.3762V20.1374Z" fill="#27275B"/>
<path d="M22.9581 19.6055V20.1379H23.3793V20.432H22.9581V21.775C22.9581 21.8783 22.9819 21.9498 23.0217 21.9975C23.0614 22.0373 23.117 22.0611 23.1886 22.0611C23.2124 22.0611 23.2362 22.0611 23.268 22.0531C23.2998 22.0452 23.3237 22.0452 23.3396 22.0373L23.3952 22.3154C23.3634 22.3392 23.3237 22.3631 23.2601 22.379C23.2045 22.3949 23.1409 22.4028 23.0852 22.4028C22.9184 22.4028 22.7912 22.3551 22.6958 22.2518C22.6005 22.1565 22.5528 21.9975 22.5528 21.783V20.4399H22.2031V20.1459H22.5528V19.6134L22.9581 19.6055Z" fill="#27275B"/>
<path d="M24.834 20.7334C24.834 20.6142 24.8737 20.5189 24.9452 20.4394C25.0168 20.3599 25.128 20.3281 25.2552 20.3281C25.3823 20.3281 25.4856 20.3679 25.5651 20.4394C25.6446 20.5189 25.6843 20.6142 25.6843 20.7334V20.8526C25.6843 20.9718 25.6446 21.0751 25.5731 21.1467C25.4936 21.2182 25.3903 21.2579 25.2631 21.2579C25.136 21.2579 25.0327 21.2182 24.9532 21.1467C24.8737 21.0751 24.8419 20.9718 24.8419 20.8526L24.834 20.7334Z" fill="#27275B"/>
<path d="M27.3691 22.3551V19.375H28.3069C28.6963 19.375 29.0062 19.4942 29.2446 19.7326C29.483 19.971 29.6023 20.281 29.6023 20.6624V21.0677C29.6023 21.4492 29.483 21.7591 29.2446 21.9975C29.0062 22.2359 28.6963 22.3551 28.3069 22.3551H27.3691ZM27.7665 19.6929V22.0373H28.2989C28.5771 22.0373 28.7917 21.9498 28.9506 21.7671C29.1095 21.5843 29.189 21.3538 29.189 21.0677V20.6545C29.189 20.3763 29.1095 20.1459 28.9506 19.9631C28.7917 19.7803 28.5771 19.6929 28.2989 19.6929H27.7665Z" fill="#27275B"/>
<path d="M31.0641 22.3942C30.7462 22.3942 30.4999 22.2909 30.3171 22.0922C30.1422 21.8856 30.0469 21.6233 30.0469 21.2896V21.2022C30.0469 20.8843 30.1422 20.622 30.325 20.4154C30.5078 20.2088 30.7303 20.1055 30.9926 20.1055C31.2866 20.1055 31.5091 20.2008 31.6601 20.3836C31.8111 20.5664 31.8826 20.8128 31.8826 21.1147V21.3293H30.4681L30.4601 21.3373C30.4601 21.5598 30.5078 21.7426 30.6032 21.8777C30.6985 22.0207 30.8495 22.0843 31.0561 22.0843C31.1912 22.0843 31.3104 22.0684 31.4138 22.0286C31.5171 21.9889 31.6045 21.9333 31.676 21.8697L31.835 22.132C31.7555 22.2114 31.6522 22.275 31.525 22.3227C31.4058 22.3704 31.2469 22.3942 31.0641 22.3942ZM31.0005 20.4154C30.8575 20.4154 30.7462 20.471 30.6508 20.5823C30.5555 20.6935 30.4999 20.8286 30.484 20.9955L30.4919 21.0035H31.4932V20.9717C31.4932 20.8128 31.4535 20.6777 31.374 20.5743C31.2866 20.471 31.1674 20.4154 31.0005 20.4154Z" fill="#27275B"/>
<path d="M34.2272 21.3294C34.2272 21.6473 34.1477 21.9096 33.9967 22.1003C33.8457 22.299 33.6312 22.3943 33.3689 22.3943C33.2338 22.3943 33.1146 22.3705 33.0113 22.3228C32.908 22.2751 32.8206 22.2116 32.749 22.1162V23.2049H32.3438V20.1374H32.6537L32.7173 20.4235C32.7888 20.3202 32.8841 20.2407 32.9875 20.1771C33.0987 20.1215 33.2179 20.0977 33.361 20.0977C33.6391 20.0977 33.8457 20.2089 33.9967 20.4235C34.1477 20.6381 34.2272 20.9321 34.2272 21.2897V21.3294ZM33.8219 21.2897C33.8219 21.0354 33.7742 20.8288 33.6709 20.6698C33.5755 20.5109 33.4245 20.4235 33.2338 20.4235C33.1146 20.4235 33.0192 20.4473 32.9398 20.503C32.8603 20.5586 32.7888 20.6301 32.7411 20.7175V21.7904C32.7888 21.8857 32.8603 21.9573 32.9398 22.0049C33.0192 22.0526 33.1226 22.0844 33.2418 22.0844C33.4325 22.0844 33.5755 22.0129 33.6788 21.8778C33.7742 21.7347 33.8219 21.5599 33.8219 21.3374V21.2897Z" fill="#27275B"/>
<path d="M35.6344 22.3942C35.3165 22.3942 35.0702 22.2909 34.8874 22.0922C34.7126 21.8856 34.6172 21.6233 34.6172 21.2896V21.2022C34.6172 20.8843 34.7126 20.622 34.8953 20.4154C35.0781 20.2088 35.3006 20.1055 35.5629 20.1055C35.8569 20.1055 36.0794 20.2008 36.2304 20.3836C36.3814 20.5664 36.4529 20.8128 36.4529 21.1147V21.3293H35.0463L35.0384 21.3373C35.0384 21.5598 35.0861 21.7426 35.1814 21.8777C35.2768 22.0207 35.4278 22.0843 35.6344 22.0843C35.7695 22.0843 35.8887 22.0684 35.992 22.0286C36.0953 21.9889 36.1828 21.9333 36.2543 21.8697L36.4132 22.132C36.3337 22.2114 36.2304 22.275 36.1033 22.3227C35.9761 22.3704 35.8172 22.3942 35.6344 22.3942ZM35.5708 20.4154C35.4278 20.4154 35.3165 20.471 35.2212 20.5823C35.1258 20.6935 35.0702 20.8286 35.0543 20.9955L35.0622 21.0035H36.0635V20.9717C36.0635 20.8128 36.0238 20.6777 35.9443 20.5743C35.8649 20.471 35.7377 20.4154 35.5708 20.4154Z" fill="#27275B"/>
<path d="M37.2708 20.1374L37.3026 20.4632C37.3741 20.344 37.4695 20.2566 37.5808 20.193C37.692 20.1294 37.8192 20.0977 37.9622 20.0977C38.2006 20.0977 38.3834 20.1692 38.5185 20.3043C38.6457 20.4473 38.7172 20.6619 38.7172 20.948V22.3467H38.3039V20.9559C38.3039 20.7573 38.2642 20.6222 38.1847 20.5427C38.1053 20.4632 37.994 20.4235 37.8351 20.4235C37.7079 20.4235 37.6046 20.4473 37.5172 20.495C37.4298 20.5427 37.3583 20.6142 37.3106 20.7016V22.3467H36.9053V20.1374H37.2708V20.1374Z" fill="#27275B"/>
<path d="M39.2024 21.2898C39.2024 20.9322 39.2819 20.6461 39.4329 20.4315C39.5839 20.217 39.7984 20.1057 40.0686 20.1057C40.1958 20.1057 40.315 20.1296 40.4104 20.1772C40.5057 20.2249 40.5931 20.2964 40.6647 20.3839V19.168H41.07V22.3547H40.76L40.6965 22.0766C40.6249 22.1799 40.5375 22.2594 40.4263 22.315C40.315 22.3706 40.1958 22.3945 40.0527 22.3945C39.7825 22.3945 39.568 22.2991 39.417 22.1004C39.266 21.9017 39.1865 21.6474 39.1865 21.3296L39.2024 21.2898ZM39.6077 21.3296C39.6077 21.5521 39.6554 21.7349 39.7428 21.87C39.8382 22.0051 39.9733 22.0686 40.172 22.0686C40.2912 22.0686 40.3945 22.0448 40.4739 21.9892C40.5534 21.9335 40.6249 21.862 40.6726 21.7587V20.7256C40.617 20.6302 40.5534 20.5587 40.4739 20.511C40.3945 20.4554 40.2912 20.4315 40.1799 20.4315C39.9892 20.4315 39.8461 20.511 39.7508 20.67C39.6554 20.8289 39.6157 21.0355 39.6157 21.2898L39.6077 21.3296Z" fill="#27275B"/>
<path d="M43.0331 22.3543C43.0172 22.2908 43.0093 22.2272 43.0013 22.1795C42.9934 22.1318 42.9934 22.0762 42.9855 22.0285C42.906 22.1318 42.8106 22.2272 42.6914 22.2987C42.5722 22.3702 42.4371 22.402 42.302 22.402C42.0715 22.402 41.8967 22.3464 41.7775 22.2272C41.6583 22.108 41.5947 21.949 41.5947 21.7424C41.5947 21.5279 41.6821 21.3689 41.849 21.2497C42.0159 21.1305 42.2543 21.0669 42.5484 21.0669H42.9855V20.8444C42.9855 20.7173 42.9457 20.6139 42.8663 20.5345C42.7868 20.455 42.6755 20.4232 42.5325 20.4232C42.4053 20.4232 42.2941 20.455 42.2146 20.5186C42.1351 20.5822 42.0954 20.6616 42.0954 20.757L41.7139 20.7649L41.706 20.757C41.698 20.598 41.7696 20.4471 41.9364 20.312C42.0954 20.1769 42.302 20.1133 42.5563 20.1133C42.8106 20.1133 43.0093 20.1769 43.1603 20.304C43.3113 20.4312 43.3908 20.6139 43.3908 20.8524V21.9173C43.3908 21.9967 43.3987 22.0762 43.3987 22.1477C43.4066 22.2192 43.4225 22.2908 43.4464 22.3623L43.0331 22.3543ZM42.3656 22.0603C42.5086 22.0603 42.6437 22.0206 42.7629 21.949C42.8821 21.8696 42.9537 21.7901 42.9934 21.6947V21.3371H42.5404C42.3815 21.3371 42.2464 21.3769 42.151 21.4563C42.0557 21.5358 42.008 21.6312 42.008 21.7424C42.008 21.8378 42.0398 21.9173 42.1033 21.9729C42.159 22.0285 42.2464 22.0603 42.3656 22.0603Z" fill="#27275B"/>
<path d="M45.8699 21.3297C45.8699 21.6476 45.7904 21.9098 45.6394 22.1006C45.4884 22.2992 45.2739 22.3946 45.0037 22.3946C44.8606 22.3946 44.7255 22.3628 44.6222 22.3072C44.511 22.2515 44.4235 22.1641 44.352 22.0529L44.2884 22.3549H43.9785V19.1602H44.3838V20.3999C44.4553 20.3045 44.5428 20.2251 44.6461 20.1774C44.7494 20.1217 44.8686 20.0979 45.0037 20.0979C45.2739 20.0979 45.4884 20.2092 45.6394 20.4237C45.7904 20.6383 45.8699 20.9323 45.8699 21.282V21.3297ZM45.4646 21.29C45.4646 21.0357 45.4169 20.829 45.3216 20.6701C45.2262 20.5111 45.0832 20.4317 44.8924 20.4317C44.7653 20.4317 44.662 20.4635 44.5745 20.5191C44.4871 20.5827 44.4235 20.6621 44.3679 20.7655V21.727C44.4235 21.8383 44.4871 21.9178 44.5745 21.9813C44.654 22.0449 44.7653 22.0767 44.8924 22.0767C45.0832 22.0767 45.2262 22.0131 45.3136 21.8701C45.401 21.727 45.4567 21.5602 45.4567 21.3297L45.4646 21.29Z" fill="#27275B"/>
<path d="M46.792 22.3547H46.3867V19.168H46.792V22.3547Z" fill="#27275B"/>
<path d="M48.3258 22.3942C48.0079 22.3942 47.7616 22.2909 47.5788 22.0922C47.404 21.8856 47.3086 21.6233 47.3086 21.2896V21.2022C47.3086 20.8843 47.404 20.622 47.5867 20.4154C47.7695 20.2088 47.992 20.1055 48.2543 20.1055C48.5483 20.1055 48.7708 20.2008 48.9218 20.3836C49.0728 20.5664 49.1444 20.8128 49.1444 21.1147V21.3293H47.7298L47.7218 21.3373C47.7218 21.5598 47.7695 21.7426 47.8649 21.8777C47.9602 22.0207 48.1112 22.0843 48.3179 22.0843C48.453 22.0843 48.5722 22.0684 48.6755 22.0286C48.7788 21.9889 48.8662 21.9333 48.9377 21.8697L49.0967 22.132C49.0172 22.2114 48.9139 22.275 48.7867 22.3227C48.6675 22.3704 48.5086 22.3942 48.3258 22.3942ZM48.2622 20.4154C48.1192 20.4154 48.0079 20.471 47.9126 20.5823C47.8172 20.6935 47.7616 20.8286 47.7457 20.9955L47.7536 21.0035H48.755V20.9717C48.755 20.8128 48.7152 20.6777 48.6357 20.5743C48.5563 20.471 48.4291 20.4154 48.2622 20.4154Z" fill="#27275B"/>
<path d="M50.6299 20.7334C50.6299 20.6142 50.6696 20.5189 50.7411 20.4394C50.8206 20.3599 50.9239 20.3281 51.0511 20.3281C51.1782 20.3281 51.2815 20.3679 51.361 20.4394C51.4405 20.5189 51.4802 20.6142 51.4802 20.7334V20.8526C51.4802 20.9718 51.4405 21.0751 51.369 21.1467C51.2895 21.2182 51.1862 21.2579 51.059 21.2579C50.9319 21.2579 50.8286 21.2182 50.7491 21.1467C50.6696 21.0751 50.6378 20.9718 50.6378 20.8526L50.6299 20.7334Z" fill="#27275B"/>
<path d="M54.7467 21.6008C54.7467 21.4657 54.699 21.3545 54.6037 21.2591C54.5083 21.1638 54.3335 21.0922 54.0951 21.0287C53.7931 20.9492 53.5547 20.8459 53.3878 20.6949C53.2209 20.5518 53.1335 20.3691 53.1335 20.1465C53.1335 19.9161 53.2288 19.7174 53.4116 19.5664C53.5944 19.4075 53.8328 19.3359 54.1268 19.3359C54.4368 19.3359 54.6911 19.4234 54.8739 19.6061C55.0566 19.781 55.152 19.9876 55.1441 20.226L55.1361 20.234H54.7547C54.7547 20.0671 54.699 19.924 54.5798 19.8128C54.4606 19.7015 54.3096 19.6459 54.1268 19.6459C53.9361 19.6459 53.7931 19.6936 53.6977 19.781C53.5944 19.8763 53.5467 19.9876 53.5467 20.1386C53.5467 20.2657 53.6023 20.377 53.7136 20.4644C53.8249 20.5518 53.9997 20.6313 54.2461 20.6949C54.548 20.7743 54.7785 20.8856 54.9295 21.0366C55.0884 21.1876 55.1679 21.3783 55.1679 21.5929C55.1679 21.8313 55.0725 22.022 54.8818 22.173C54.6911 22.3161 54.4447 22.3955 54.1427 22.3955C53.8566 22.3955 53.6023 22.3161 53.3798 22.1571C53.1573 21.9982 53.054 21.7836 53.0619 21.5134L53.0699 21.5055H53.4513C53.4513 21.6883 53.5229 21.8392 53.6659 21.9346C53.809 22.0379 53.9679 22.0856 54.1427 22.0856C54.3335 22.0856 54.4845 22.0459 54.5957 21.9585C54.6911 21.8631 54.7467 21.7518 54.7467 21.6008Z" fill="#27275B"/>
<path d="M56.5826 22.3942C56.2648 22.3942 56.0184 22.2909 55.8356 22.0922C55.6608 21.8856 55.5654 21.6233 55.5654 21.2896V21.2022C55.5654 20.8843 55.6608 20.622 55.8436 20.4154C56.0264 20.2088 56.2489 20.1055 56.5111 20.1055C56.8052 20.1055 57.0277 20.2008 57.1787 20.3836C57.3297 20.5664 57.4012 20.8128 57.4012 21.1147V21.3293H55.9866L55.9787 21.3373C55.9787 21.5598 56.0264 21.7426 56.1217 21.8777C56.2171 22.0207 56.3681 22.0843 56.5747 22.0843C56.7098 22.0843 56.829 22.0684 56.9323 22.0286C57.0356 21.9889 57.123 21.9333 57.1946 21.8697L57.3535 22.132C57.274 22.2114 57.1707 22.275 57.0436 22.3227C56.9244 22.3704 56.7654 22.3942 56.5826 22.3942ZM56.5191 20.4154C56.376 20.4154 56.2648 20.471 56.1694 20.5823C56.074 20.6935 56.0184 20.8286 56.0025 20.9955L56.0105 21.0035H57.0118V20.9717C57.0118 20.8128 56.9721 20.6777 56.8926 20.5743C56.8052 20.471 56.686 20.4154 56.5191 20.4154Z" fill="#27275B"/>
<path d="M58.7361 22.0765C58.8633 22.0765 58.9666 22.0367 59.062 21.9573C59.1573 21.8778 59.205 21.7745 59.205 21.6553H59.5706L59.5785 21.6632C59.5865 21.8539 59.499 22.0208 59.3322 22.1718C59.1653 22.3228 58.9666 22.3943 58.7441 22.3943C58.4342 22.3943 58.1957 22.291 58.0209 22.0765C57.8461 21.8619 57.7666 21.5996 57.7666 21.2897V21.2023C57.7666 20.8924 57.854 20.6301 58.0209 20.4155C58.1878 20.201 58.4262 20.0977 58.7361 20.0977C58.9825 20.0977 59.1891 20.1771 59.3401 20.3281C59.4991 20.4791 59.5706 20.6698 59.5706 20.8924L59.5626 20.9003H59.205C59.205 20.7652 59.1653 20.646 59.0699 20.5586C58.9825 20.4632 58.8712 20.4155 58.7361 20.4155C58.5375 20.4155 58.3944 20.495 58.307 20.646C58.2196 20.797 58.1719 20.9877 58.1719 21.2023V21.2897C58.1719 21.5122 58.2196 21.695 58.307 21.8539C58.3944 22.0049 58.5375 22.0765 58.7361 22.0765Z" fill="#27275B"/>
<path d="M61.4616 22.0299C61.3901 22.1491 61.3026 22.2366 61.1914 22.3081C61.0801 22.3717 60.953 22.4034 60.8099 22.4034C60.5715 22.4034 60.3808 22.324 60.2457 22.173C60.1106 22.022 60.0391 21.7756 60.0391 21.4498V20.1465H60.4444V21.4577C60.4444 21.6962 60.4762 21.8551 60.5477 21.9425C60.6192 22.0299 60.7225 22.0776 60.8735 22.0776C61.0165 22.0776 61.1358 22.0458 61.2311 21.9902C61.3265 21.9346 61.398 21.8471 61.4457 21.7438V20.1465H61.851V22.3558H61.4854L61.4616 22.0299Z" fill="#27275B"/>
<path d="M63.4806 20.4947L63.274 20.4868C63.1707 20.4868 63.0754 20.5106 63.0038 20.5663C62.9323 20.6139 62.8767 20.6855 62.8369 20.7808V22.3623H62.4316V20.153H62.7893L62.829 20.4788C62.8926 20.3676 62.972 20.2722 63.0595 20.2086C63.1548 20.1451 63.2581 20.1133 63.3773 20.1133C63.4091 20.1133 63.433 20.1133 63.4648 20.1212C63.4886 20.1292 63.5124 20.1292 63.5363 20.1371L63.4806 20.4947Z" fill="#27275B"/>
<path d="M64.8151 22.3942C64.4972 22.3942 64.2508 22.2909 64.0681 22.0922C63.8932 21.8856 63.7979 21.6233 63.7979 21.2896V21.2022C63.7979 20.8843 63.8932 20.622 64.076 20.4154C64.2588 20.2088 64.4813 20.1055 64.7435 20.1055C65.0376 20.1055 65.2601 20.2008 65.4111 20.3836C65.5621 20.5664 65.6336 20.8128 65.6336 21.1147V21.3293H64.219L64.2111 21.3373C64.2111 21.5598 64.2588 21.7426 64.3541 21.8777C64.4495 22.0207 64.6005 22.0843 64.8071 22.0843C64.9422 22.0843 65.0614 22.0684 65.1647 22.0286C65.2681 21.9889 65.3555 21.9333 65.427 21.8697L65.5859 22.132C65.5065 22.2114 65.4032 22.275 65.276 22.3227C65.1568 22.3704 64.9979 22.3942 64.8151 22.3942ZM64.7515 20.4154C64.6084 20.4154 64.4972 20.471 64.4018 20.5823C64.3065 20.6935 64.2508 20.8286 64.2349 20.9955L64.2429 21.0035H65.2442V20.9717C65.2442 20.8128 65.2045 20.6777 65.125 20.5743C65.0376 20.471 64.9184 20.4154 64.7515 20.4154Z" fill="#27275B"/>
</svg>
