<svg width="160" height="64" viewBox="0 0 160 64" fill="none" xmlns="http://www.w3.org/2000/svg">
<rect width="160" height="64" rx="8" fill="#F9FAFB"/>
<path d="M46.1319 28.6806V20H38.0509C37.6389 20.0012 37.2441 20.1645 36.9528 20.4542C36.6615 20.744 36.4973 21.1366 36.4961 21.5463V42.4537C36.4973 42.8634 36.6615 43.256 36.9528 43.5457C37.2441 43.8355 37.6389 43.9988 38.0509 44H55.4511C55.8631 43.9988 56.2578 43.8355 56.5491 43.5457C56.8404 43.256 57.0046 42.8634 57.0059 42.4537V28.6806H46.1319Z" fill="#667085"/>
<path d="M60.8828 38.9256V27.7172H64.5509C65.1973 27.7086 65.8391 27.825 66.4408 28.0598C66.9818 28.2851 67.4606 28.6359 67.8373 29.083C68.2478 29.5851 68.5518 30.1646 68.7311 30.7867C68.9503 31.5575 69.0553 32.3561 69.043 33.1571C69.0552 34.0068 68.9503 34.8542 68.7311 35.6756C68.5555 36.3286 68.2518 36.9407 67.8373 37.4765C67.4668 37.9457 66.9877 38.319 66.4408 38.5645C65.8424 38.8123 65.1991 38.9352 64.5509 38.9256H60.8828ZM62.9869 29.583V37.0691H64.3508C64.72 37.0772 65.0862 37.0012 65.4214 36.8469C65.7399 36.6987 66.0165 36.4744 66.2267 36.1941C66.465 35.8658 66.6373 35.4948 66.7341 35.1015C66.859 34.5988 66.9184 34.0822 66.911 33.5645V32.7497C66.9181 32.2807 66.8586 31.8131 66.7341 31.3608C66.6333 31.0015 66.4607 30.6661 66.2267 30.3747C66.0084 30.1173 65.7327 29.9144 65.4214 29.7821C65.0875 29.647 64.7299 29.5793 64.3694 29.583H62.9869Z" fill="#667085"/>
<path d="M72.4761 28.8845H70.5117V27.1113H72.4761V28.8845ZM72.4761 38.9123H70.5117V30.3336H72.4761V38.9123Z" fill="#667085"/>
<path d="M81.3516 28.8835C81.3793 29.3939 81.2511 29.9007 80.9838 30.3372C80.7372 30.693 80.3733 30.9517 79.9551 31.0687C80.1846 31.3212 80.3603 31.6173 80.4718 31.9391C80.5929 32.297 80.6527 32.6726 80.6487 33.0502C80.6539 33.4593 80.5829 33.8659 80.4392 34.2493C80.3062 34.5984 80.0981 34.9145 79.8294 35.1752C79.5422 35.4429 79.1988 35.6438 78.8239 35.7632C78.3737 35.9112 77.9014 35.9817 77.4274 35.9715H76.6268C76.4695 35.9651 76.3158 36.0199 76.1985 36.1243C76.1463 36.1719 76.1049 36.2299 76.0768 36.2945C76.0487 36.3591 76.0347 36.4289 76.0356 36.4993C76.033 36.5657 76.0441 36.632 76.0681 36.6941C76.0921 36.7562 76.1286 36.8127 76.1752 36.8604C76.2217 36.909 76.2782 36.9471 76.3409 36.9719C76.4036 36.9966 76.471 37.0076 76.5383 37.0039H79.5315C79.7953 37.0017 80.0568 37.0537 80.2995 37.1567C80.5387 37.2643 80.7515 37.4223 80.9233 37.6196C81.1107 37.8252 81.2548 38.0661 81.3469 38.328C81.4567 38.6242 81.5104 38.9382 81.5052 39.2539C81.5092 39.6278 81.4347 39.9983 81.2864 40.3419C81.1453 40.6587 80.941 40.9438 80.6859 41.1798C80.4296 41.414 80.1289 41.595 79.8014 41.7122C79.4527 41.8396 79.0838 41.9039 78.7122 41.9021H75.5375C75.2876 41.9047 75.0396 41.8573 74.8085 41.7627C74.5774 41.668 74.3678 41.5281 74.1922 41.3511C74.0258 41.1683 73.8948 40.9564 73.8059 40.7261C73.7068 40.4708 73.6578 40.1989 73.6616 39.9252C73.6463 39.546 73.7558 39.1722 73.9734 38.8604C74.1724 38.5774 74.4334 38.3431 74.7368 38.1752C74.5255 38.0468 74.3508 37.8667 74.2295 37.6521C74.1015 37.4163 74.0373 37.1514 74.0433 36.8835C74.043 36.7072 74.0778 36.5326 74.1457 36.3696C74.211 36.2125 74.304 36.0683 74.4203 35.9437C74.5357 35.811 74.6726 35.6983 74.8253 35.6104C74.9725 35.5195 75.1284 35.4435 75.2908 35.3835C74.9597 35.1385 74.6969 34.8134 74.5274 34.4391C74.3416 34.0001 74.2542 33.5262 74.2714 33.0502C74.2665 32.64 74.3359 32.2323 74.4762 31.8465C74.6056 31.4955 74.8142 31.1788 75.086 30.9206C75.372 30.6551 75.7116 30.4531 76.0821 30.328C76.5239 30.1781 76.9886 30.106 77.4553 30.115C77.7142 30.1131 77.9727 30.1332 78.2281 30.1752C78.4579 30.2114 78.6828 30.2735 78.8984 30.3604C79.0542 30.2543 79.1924 30.1246 79.308 29.9761C79.4091 29.8458 79.495 29.7045 79.564 29.5548C79.6247 29.4323 79.6715 29.3034 79.7037 29.1706C79.7248 29.0746 79.7372 28.977 79.7409 28.8789L81.3516 28.8835ZM76.4126 38.828C76.3052 38.8275 76.199 38.8496 76.1008 38.8928C76.0097 38.9362 75.9264 38.9941 75.854 39.0641C75.7816 39.1352 75.7246 39.2202 75.6865 39.3141C75.6451 39.4074 75.6244 39.5084 75.6259 39.6104C75.6194 39.7157 75.635 39.8212 75.672 39.9201C75.709 40.019 75.7663 40.1091 75.8405 40.1846C75.9146 40.26 76.0038 40.3192 76.1024 40.3583C76.2009 40.3973 76.3066 40.4154 76.4126 40.4113H78.6237C78.8557 40.4175 79.0822 40.3403 79.2615 40.1937C79.3456 40.122 79.4123 40.0322 79.4566 39.9312C79.501 39.8302 79.5218 39.7205 79.5175 39.6104C79.5226 39.5037 79.5045 39.3971 79.4643 39.298C79.4241 39.1989 79.3629 39.1096 79.2847 39.0363C79.1275 38.897 78.9227 38.8225 78.7122 38.828H76.4126ZM77.446 31.5872C77.2709 31.5733 77.0949 31.6013 76.933 31.669C76.771 31.7367 76.6276 31.842 76.515 31.9761C76.3024 32.2927 76.201 32.6703 76.2264 33.0502C76.2046 33.4324 76.3128 33.8107 76.5337 34.1243C76.6522 34.2522 76.7962 34.3543 76.9564 34.4242C77.1167 34.494 77.2897 34.5301 77.4647 34.5301C77.6396 34.5301 77.8127 34.494 77.9729 34.4242C78.1331 34.3543 78.2771 34.2522 78.3957 34.1243C78.6165 33.8107 78.7247 33.4324 78.7029 33.0502C78.7261 32.6635 78.6178 32.2804 78.3957 31.9622C78.2795 31.8282 78.1325 31.7241 77.9671 31.6588C77.8018 31.5935 77.623 31.569 77.446 31.5872Z" fill="#667085"/>
<path d="M84.4488 28.8845H82.4844V27.1113H84.4488V28.8845ZM84.4488 38.9123H82.4844V30.3336H84.4488V38.9123Z" fill="#667085"/>
<path d="M86.3281 27.7168H88.4322V36.9761H93.1989V38.939H86.3281V27.7168Z" fill="#667085"/>
<path d="M97.6915 30.1351C98.1787 30.0998 98.6674 30.18 99.1173 30.3691C99.5673 30.5583 99.9656 30.8509 100.28 31.223C100.857 31.9499 101.141 33.0749 101.141 34.6258C101.141 36.1767 100.857 37.3064 100.28 38.0332C99.9445 38.3786 99.5428 38.6534 99.0985 38.841C98.6542 39.0286 98.1765 39.1253 97.6938 39.1253C97.2112 39.1253 96.7334 39.0286 96.2892 38.841C95.8449 38.6534 95.4432 38.3786 95.108 38.0332C94.5308 37.3048 94.2422 36.169 94.2422 34.6258C94.2422 33.0826 94.5308 31.9483 95.108 31.223C95.4211 30.851 95.8186 30.5583 96.2678 30.3692C96.717 30.18 97.205 30.0998 97.6915 30.1351ZM97.6915 31.7878C97.4672 31.7741 97.2441 31.8288 97.0519 31.9447C96.8598 32.0605 96.7078 32.2319 96.6162 32.436C96.3738 33.032 96.2658 33.6736 96.2997 34.3156V34.9406C96.2654 35.5842 96.3735 36.2274 96.6162 36.8249C96.7189 37.0209 96.8736 37.1852 97.0636 37.2999C97.2536 37.4146 97.4716 37.4752 97.6938 37.4752C97.9161 37.4752 98.1341 37.4146 98.3241 37.2999C98.5141 37.1852 98.6688 37.0209 98.7715 36.8249C99.0142 36.2274 99.1223 35.5842 99.088 34.9406V34.3156C99.1219 33.6736 99.0138 33.032 98.7715 32.436C98.6796 32.2311 98.5269 32.0592 98.3338 31.9433C98.1407 31.8274 97.9166 31.7731 97.6915 31.7878Z" fill="#667085"/>
<path d="M105.675 30.1344C106.101 30.1279 106.525 30.1953 106.927 30.3335C107.291 30.4598 107.619 30.6728 107.881 30.9539C108.16 31.2597 108.367 31.6235 108.487 32.0187C108.64 32.5195 108.713 33.0415 108.701 33.565H106.68C106.71 33.1036 106.624 32.6422 106.429 32.2224C106.358 32.0863 106.249 31.9731 106.116 31.896C105.982 31.819 105.829 31.7813 105.675 31.7872C105.477 31.7824 105.283 31.8429 105.123 31.9593C104.963 32.0757 104.846 32.2415 104.791 32.4307C104.589 33.0377 104.5 33.6763 104.53 34.315V34.94C104.502 35.5797 104.595 36.2189 104.805 36.8243C104.87 37.0174 104.995 37.1847 105.163 37.3021C105.33 37.4195 105.531 37.4808 105.736 37.477C105.894 37.4838 106.051 37.4434 106.186 37.3609C106.321 37.2784 106.429 37.1576 106.494 37.0141C106.675 36.592 106.755 36.134 106.727 35.6761H108.71C108.72 36.2007 108.65 36.7237 108.501 37.227C108.382 37.6223 108.179 37.9872 107.905 38.2965C107.649 38.5739 107.33 38.7853 106.974 38.9122C106.582 39.0498 106.169 39.1172 105.754 39.1113C105.254 39.1231 104.757 39.0333 104.292 38.8474C103.882 38.6703 103.528 38.3854 103.268 38.0233C102.977 37.6054 102.774 37.1328 102.673 36.6344C102.535 35.9737 102.471 35.2999 102.482 34.6252C102.482 33.082 102.747 31.9477 103.278 31.2224C103.556 30.8589 103.921 30.5694 104.339 30.3796C104.757 30.1898 105.216 30.1056 105.675 30.1344Z" fill="#667085"/>
<path d="M112.152 33.7502L114.568 30.3336H116.677L114.107 33.8289L116.802 38.9215H114.624L112.873 35.366L112.152 36.241V38.9215H110.188V27.1113H112.152V33.7502Z" fill="#667085"/>
<path d="M120.615 30.1346C121.064 30.107 121.512 30.1922 121.919 30.3823C122.325 30.5725 122.678 30.8614 122.942 31.2225C123.464 31.9494 123.72 33.0744 123.72 34.6253V35.1207H119.335C119.336 35.4634 119.364 35.8054 119.419 36.1438C119.458 36.4056 119.536 36.66 119.651 36.8984C119.741 37.0868 119.881 37.247 120.056 37.3614C120.239 37.4738 120.451 37.5302 120.666 37.5234C120.826 37.5266 120.985 37.4887 121.126 37.4133C121.267 37.3378 121.386 37.2275 121.471 37.0929C121.692 36.7313 121.798 36.3116 121.774 35.8892H123.72C123.731 36.3788 123.653 36.8664 123.492 37.329C123.357 37.7081 123.139 38.0528 122.854 38.3383C122.579 38.6047 122.249 38.8071 121.886 38.9309C121.493 39.0627 121.081 39.1285 120.666 39.1253C120.188 39.1564 119.71 39.0735 119.271 38.8834C118.833 38.6933 118.446 38.4017 118.143 38.0327C117.566 37.3043 117.277 36.1685 117.277 34.6253C117.277 33.0821 117.564 31.9478 118.139 31.2225C118.434 30.8572 118.812 30.5677 119.243 30.3784C119.674 30.1891 120.145 30.1054 120.615 30.1346ZM120.615 31.7364C120.426 31.7222 120.238 31.7633 120.072 31.8547C119.907 31.946 119.772 32.0835 119.684 32.2503C119.469 32.7037 119.356 33.1982 119.353 33.6994H121.648C121.674 33.2033 121.587 32.7079 121.392 32.2503C121.329 32.0973 121.221 31.9665 121.083 31.8749C120.944 31.7833 120.781 31.7351 120.615 31.7364Z" fill="#667085"/>
<path d="M128.655 30.1332C128.768 30.1334 128.88 30.1411 128.991 30.1564L129.256 30.2073C129.328 30.2237 129.4 30.2438 129.47 30.2675V32.161H128.767C128.559 32.1609 128.352 32.1921 128.153 32.2536C127.958 32.3189 127.783 32.4301 127.641 32.5777C127.48 32.7521 127.359 32.959 127.287 33.1842C127.189 33.4925 127.144 33.8147 127.152 34.1379V38.9249H125.188V30.3323H126.826L127.059 31.5869H127.152C127.212 31.4059 127.282 31.2281 127.361 31.0545C127.438 30.886 127.54 30.73 127.664 30.5916C127.783 30.4582 127.925 30.3469 128.083 30.2629C128.26 30.1725 128.457 30.1279 128.655 30.1332Z" fill="#667085"/>
<path d="M35.1649 40.7806C34.2276 40.7751 33.3193 40.4572 32.5851 39.8777C31.851 39.2982 31.3334 38.4906 31.1151 37.5841C30.8969 36.6775 30.9906 35.7244 31.3814 34.8771C31.7721 34.0297 32.4372 33.3372 33.2703 32.9102C33.3023 31.7402 33.7113 30.6114 34.4369 29.69C35.1626 28.7686 36.1666 28.1034 37.3011 27.7922C38.4355 27.4811 39.6405 27.5406 40.7384 27.9619C41.8363 28.3832 42.7692 29.1441 43.3995 30.1324C43.8909 29.9412 44.4128 29.8393 44.9403 29.8315C45.868 29.8291 46.772 30.1223 47.5201 30.6679C48.2681 31.2136 48.8208 31.9832 49.0972 32.8639C49.7981 33.2097 50.3876 33.7439 50.799 34.4058C51.2104 35.0678 51.4271 35.8311 51.4247 36.6093C51.4265 37.6105 51.0657 38.5789 50.4083 39.3372C49.751 40.0956 48.841 40.5932 47.845 40.7389V40.7806H35.1649Z" fill="#667085"/>
<path d="M48.567 33.2965C48.434 32.7413 48.1746 32.2237 47.8089 31.7838C47.4431 31.3438 46.9808 30.9932 46.4574 30.7589C45.934 30.5245 45.3636 30.4128 44.79 30.4321C44.2163 30.4515 43.6548 30.6015 43.1486 30.8706C42.6558 29.89 41.8448 29.1034 40.8467 28.6382C39.8486 28.1729 38.7219 28.0561 37.6488 28.3067C36.5757 28.5573 35.619 29.1607 34.9335 30.0191C34.248 30.8776 33.8737 31.941 33.8713 33.0373C33.8713 33.116 33.8713 33.1993 33.8713 33.278C33.0893 33.5789 32.4377 34.1422 32.0293 34.8705C31.6209 35.5988 31.4814 36.4462 31.635 37.266C31.7886 38.0858 32.2256 38.8264 32.8703 39.3596C33.515 39.8927 34.3269 40.1848 35.1654 40.1854H47.2403C48.0732 40.1815 48.8789 39.89 49.5195 39.3607C50.1602 38.8315 50.5962 38.0973 50.7528 37.2837C50.9095 36.4702 50.7772 35.6277 50.3785 34.9005C49.9798 34.1732 49.3395 33.6063 48.567 33.2965Z" fill="white"/>
<path opacity="0.6" d="M47.332 27.6806H57.0051L47.332 20V27.6806Z" fill="#1D2939"/>
<path d="M47.332 27.6806H57.0051L47.332 20V27.6806Z" fill="#667085"/>
<path d="M40.2446 35.1923C40.7356 35.1923 41.1337 34.7965 41.1337 34.3081C41.1337 33.8197 40.7356 33.4238 40.2446 33.4238C39.7535 33.4238 39.3555 33.8197 39.3555 34.3081C39.3555 34.7965 39.7535 35.1923 40.2446 35.1923Z" fill="#667085"/>
<path d="M40.4961 34.6309H39.9794L39.3789 37.0985H41.1012L40.4961 34.6309Z" fill="#667085"/>
</svg>
