<svg width="160" height="64" viewBox="0 0 160 64" fill="none" xmlns="http://www.w3.org/2000/svg">
<rect width="160" height="64" rx="8" fill="#F9FAFB"/>
<path d="M62.8483 38.3413H60.4539L55.5325 32.2152V38.3413H53.7109V26.2363H55.5325V32.1862L60.2041 26.2363H62.4222L57.6625 32.098L62.8483 38.3413Z" fill="#667085"/>
<path d="M63.8594 38.3413V26.2363H71.2192V27.9257H65.6809V31.8627H70.5433V33.5376H65.6809V38.3413H63.8594Z" fill="#667085"/>
<path d="M72.8359 38.3413V26.2363H74.6575V38.3413H72.8359Z" fill="#667085"/>
<path d="M76.9805 38.3412V25.9863L85.3833 34.4923C85.3734 33.8754 85.3636 33.2801 85.3538 32.7073C85.3439 32.1345 85.3392 31.5199 85.3392 30.8637V26.2362H87.1167V38.6496L78.7284 30.1146C78.7383 30.7315 78.7481 31.3366 78.758 31.9287C78.7678 32.5212 78.7725 33.1259 78.7725 33.7427V38.3407H76.9805V38.3412Z" fill="#667085"/>
<path d="M91.9808 38.3413V27.9257H88.4844V26.2363H97.3283V27.9257H93.8173V38.3413H91.9808Z" fill="#667085"/>
<path d="M98.6914 38.3413V26.2363H106.066V27.9112H100.542V31.3485H105.14V32.9938H100.542V36.6665H106.287V38.3413H98.6914Z" fill="#667085"/>
<path d="M113.474 38.5782C112.573 38.5782 111.728 38.4165 110.94 38.0935C110.151 37.7705 109.463 37.3271 108.876 36.7641C108.288 36.2012 107.825 35.5374 107.487 34.7734C107.149 34.0093 106.98 33.182 106.98 32.2909C106.98 31.3998 107.149 30.572 107.487 29.8084C107.825 29.0443 108.288 28.381 108.876 27.8176C109.463 27.2546 110.151 26.814 110.94 26.4952C111.728 26.177 112.577 26.0176 113.488 26.0176C114.35 26.0176 115.114 26.1352 115.78 26.3701C116.446 26.6049 116.989 26.8646 117.411 27.1487V29.2346C117.176 29.0096 116.906 28.801 116.603 28.6102C116.299 28.4195 115.976 28.2554 115.633 28.118C115.29 27.9812 114.935 27.8757 114.568 27.8021C114.201 27.7285 113.836 27.692 113.474 27.692C112.808 27.692 112.193 27.8096 111.63 28.0445C111.067 28.2793 110.582 28.6051 110.175 29.0213C109.769 29.4376 109.451 29.9246 109.221 30.4829C108.99 31.0412 108.876 31.6435 108.876 32.2899C108.876 32.9363 108.99 33.5387 109.221 34.097C109.451 34.6552 109.769 35.1427 110.175 35.5585C110.582 35.9748 111.067 36.3005 111.63 36.5354C112.193 36.7702 112.808 36.8879 113.474 36.8879C114.218 36.8879 114.94 36.7459 115.641 36.4618C116.341 36.1777 116.931 35.8107 117.411 35.3602V37.4462C116.97 37.7302 116.419 37.9899 115.758 38.2248C115.097 38.4605 114.335 38.5782 113.474 38.5782Z" fill="#667085"/>
<path d="M119.434 38.3413V26.2363H121.255V31.334H127.205V26.2363H129.027V38.3413H127.205V33.0088H121.255V38.3413H119.434Z" fill="#667085"/>
<path d="M48.7461 40.6619L52.1661 40.3867L52.3695 40.6127C52.4577 40.7106 52.3831 40.8662 52.2514 40.8592L48.7461 40.6619Z" fill="#667085"/>
<path d="M38.8813 22.4277L41.2362 24.7673L38.0136 36.1823L34.8477 37.0682L38.8813 22.4277Z" fill="#667085"/>
<path d="M30.3477 41.459L31.0794 38.1248L42.8375 34.8262L45.3889 37.348L30.3477 41.459Z" fill="#667085"/>
<path d="M40.3153 28.0801L52.1653 40.388L48.7448 40.6632L39.3633 31.3913L40.3153 28.0801Z" fill="#667085"/>
<path opacity="0.25" d="M31.0781 38.1248L42.8363 34.8262L45.3877 37.348L31.0781 38.1248Z" fill="#667085"/>
<path opacity="0.25" d="M38.8812 22.4277L38.0136 36.1823L34.8477 37.0682L38.8812 22.4277Z" fill="#667085"/>
<path opacity="0.25" d="M40.3153 28.0801L48.7448 40.6632L39.3633 31.3913L40.3153 28.0801Z" fill="#667085"/>
<path d="M41.2383 24.7667L39.2213 22.0442C39.1463 21.9429 38.9869 21.9762 38.9587 22.099L38.8828 22.4272L41.2383 24.7667Z" fill="#667085"/>
<path d="M31.0792 38.125L30.3475 41.4592L30.0503 41.5581C29.9326 41.5975 29.8216 41.4827 29.8651 41.3659L31.0792 38.125Z" fill="#667085"/>
</svg>
