<svg width="101" height="32" viewBox="0 0 101 32" fill="none" xmlns="http://www.w3.org/2000/svg">
<g clip-path="url(#clip0_714_16052)">
<path d="M99.9162 -5.71161C98.2877 1.02872 92.4454 4.70273 89.0092 6.66406L88.8633 6.46561C90.2733 5.3197 95.1056 1.75456 96.6515 -4.15953L99.9162 -5.71161Z" fill="#F58220"/>
<path d="M17.8375 7.23623H15.0484C14.9588 7.85166 13.7102 16.5549 13.5967 17.3672H16.385C16.473 16.7541 17.7201 8.04779 17.8375 7.23623Z" fill="#0D2D4F"/>
<path d="M43.2839 15.1804H39.3211L39.5891 13.3071H43.1851C43.2476 12.8731 43.4013 11.8183 43.4785 11.267H39.8817L40.1466 9.41918H44.0044C44.0677 8.97749 44.2399 7.80301 44.3194 7.23623H37.8849C37.7938 7.85166 36.5475 16.5541 36.4316 17.3672H42.972C43.0353 16.9216 43.2013 15.7479 43.2839 15.1804Z" fill="#0D2D4F"/>
<path d="M9.84377 17.3672H12.3726C12.3657 16.6444 12.8352 7.94586 12.8352 7.23623H9.32332C9.14032 7.70108 6.8068 13.0407 6.8068 13.0407L6.01068 7.23623H2.62932C2.47798 7.75591 0.554487 16.4622 0.288086 17.3672H2.80461C3.32351 15.3325 4.27097 10.5929 4.33815 10.2717L5.23542 17.3672H7.22841C7.41913 16.9147 10.2654 10.2717 10.2654 10.2717L9.84377 17.3672Z" fill="#0D2D4F"/>
<path d="M32.1889 9.46705L32.7094 13.2268H30.5905L32.1889 9.46705ZM28.9906 17.3672C29.1342 17.0282 29.8253 15.3186 29.8253 15.3186L32.9781 15.3163C32.9781 15.3163 33.1565 16.9664 33.2198 17.3672H35.8961C35.7479 16.5317 34.2862 7.82695 34.1811 7.23623H30.7928C30.599 7.66016 26.7327 16.3711 26.2764 17.3672H28.9906Z" fill="#0D2D4F"/>
<path d="M22.3523 9.1381C22.7778 9.1381 23.2519 9.18443 23.5484 9.52496C23.7546 9.76511 23.831 10.1072 23.77 10.5388C23.77 10.5388 23.682 11.3141 23.1731 11.5573C23.1731 11.5573 22.8234 11.7867 22.2427 11.8021H21.3485C21.5593 10.3288 21.7276 9.1381 21.7276 9.1381H22.3523ZM23.36 17.3672H26.0696L24.0218 13.0978C25.2627 12.8677 26.2302 12.4994 26.4765 10.5782C26.5074 10.335 26.5298 10.1056 26.5298 9.88866C26.5298 9.17671 26.3445 8.59912 25.97 8.17443C25.2974 7.39762 24.1445 7.23778 23.2936 7.23778H19.4667C19.3764 7.85243 18.1293 16.5564 18.0127 17.3672H20.5539C20.6003 17.056 20.9508 14.5989 21.2558 12.4492L23.36 17.3672Z" fill="#0D2D4F"/>
<path d="M70.1432 11.4704C69.9949 11.3816 69.8359 11.2974 69.6668 11.2241C69.6498 11.214 68.9293 10.8526 68.9293 10.8526L68.9216 10.848L68.9093 10.8418C68.6714 10.7067 68.1139 10.3824 68.1139 9.84186C68.1162 9.57778 68.2174 9.34844 68.4081 9.19401C68.6344 8.99787 68.9919 8.92452 69.3695 8.9971C69.849 9.07046 70.3996 9.38164 71.0042 9.89978C71.2937 9.34844 71.8397 8.29288 72.0389 7.91683C71.3447 7.34619 70.6752 7.03577 69.6722 6.86203C68.4344 6.6798 67.2398 6.94157 66.4005 7.57861C65.6955 8.11914 65.2553 8.91062 65.1379 9.86734C65.1186 10.031 65.1094 10.1901 65.1094 10.3407C65.1094 10.8696 65.2229 11.3229 65.4445 11.709C66.9533 11.6711 68.5402 11.5978 70.1432 11.4704Z" fill="#0D2D4F"/>
<path d="M80.957 7.23848C80.8937 7.66086 80.7007 8.99209 80.6064 9.64844C82.5732 9.09788 84.953 8.30485 87.1568 7.23848H80.957Z" fill="#0D2D4F"/>
<path d="M81.9907 9.75618C81.7135 9.84807 81.4262 9.93919 81.1328 10.0318C81.0718 10.0496 81.0116 10.0681 80.9498 10.0851C80.8324 10.123 80.7104 10.1593 80.5931 10.1956C80.5282 10.2149 80.4664 10.2326 80.4 10.2535C79.9962 10.3701 79.5815 10.4905 79.1537 10.6063C79.0757 10.6257 78.9923 10.6488 78.9128 10.672C78.7931 10.7029 78.6703 10.7353 78.5468 10.7685C78.4541 10.7917 78.3677 10.8141 78.2781 10.8372C78.1592 10.8681 78.0341 10.899 77.9121 10.9299C77.8009 10.9585 77.6881 10.9855 77.5785 11.0125C77.3847 11.0596 77.1893 11.1052 76.9932 11.1538C76.8797 11.1785 76.7669 11.2071 76.6527 11.2295C76.6418 11.2334 76.631 11.2349 76.6225 11.2372C76.5793 11.248 76.5399 11.2557 76.4967 11.2673H76.499C75.3523 11.526 74.1361 11.7723 72.8481 11.9932C72.818 11.9963 72.7887 12.0024 72.7578 12.0078C72.5246 12.0465 72.286 12.0866 72.052 12.1229C71.9918 12.1314 71.9339 12.1422 71.8775 12.1499C71.6266 12.1885 71.3748 12.2295 71.1223 12.2673C71.1038 12.2681 71.0829 12.2681 71.0652 12.2735H71.0636C69.6799 12.4719 68.2228 12.6488 66.6916 12.7839H66.6676C66.4375 12.8024 66.2012 12.824 65.9642 12.8387C65.9402 12.841 65.9155 12.8441 65.8901 12.8457C65.6522 12.865 65.4159 12.8843 65.175 12.8997C65.1519 12.8997 65.1271 12.902 65.1063 12.902C64.8638 12.919 64.6183 12.936 64.3681 12.9491C64.3511 12.9514 64.3326 12.9538 64.3133 12.9538C64.0615 12.9677 63.809 12.9823 63.555 12.9908C63.545 12.9908 63.5365 12.9939 63.5249 12.9939C62.2377 13.0557 60.9041 13.0881 59.5312 13.0881V13.0904C59.4933 13.0904 59.4563 13.0881 59.4177 13.0881C59.1158 13.0881 58.8077 13.0866 58.5026 13.0866C58.4386 13.0812 58.3745 13.0812 58.3081 13.0804C57.2015 13.0657 56.0649 13.0271 54.9074 12.9653H54.9004C54.8958 12.9653 54.8919 12.9653 54.885 12.9623C53.1268 12.8711 51.3075 12.7229 49.4319 12.5105L51.5924 10.4813C51.5924 10.4813 52.8495 10.8581 54.5823 11.1685C54.2526 9.20948 53.9653 7.48907 53.9182 7.23657H50.5315C50.3353 7.6605 46.4729 16.3714 46.0127 17.3675H48.7323C48.8767 17.0285 49.7886 14.8502 49.7886 14.8502L52.6194 14.8471C52.6194 14.8471 52.8951 16.9668 52.9553 17.3675H55.634C55.5746 17.0417 55.3159 15.512 55.0186 13.7383C56.9243 13.8441 58.8393 13.8672 60.6215 13.8371C60.7095 13.9893 60.7589 14.1506 60.7589 14.3244C60.7589 14.3877 60.752 14.4464 60.7389 14.5112C60.7033 14.739 60.5837 14.9282 60.3983 15.0564C60.0308 15.3151 59.5026 15.2595 59.1381 15.1946C58.2702 15.0417 57.5838 14.3877 57.0316 13.8441C56.6811 14.4109 55.956 15.5977 55.7174 15.9838C56.739 16.9089 57.8417 17.4787 59.0107 17.6416C60.1891 17.8185 61.3597 17.5536 62.2299 16.9166C62.982 16.3544 63.46 15.5406 63.6083 14.5553C63.6546 14.275 63.6778 14.0055 63.6639 13.7499C65.5727 13.6673 67.1603 13.5476 68.1772 13.4603C68.5101 13.7051 68.6853 13.9947 68.6853 14.3244C68.6853 14.3877 68.6753 14.4464 68.666 14.5112C68.6274 14.739 68.5054 14.9282 68.3232 15.0564C67.9564 15.3151 67.4251 15.2595 67.0607 15.1946C66.1966 15.0417 65.5063 14.3877 64.958 13.8441C64.6082 14.4109 63.8816 15.5977 63.6415 15.9838C64.6654 16.9089 65.7657 17.4787 66.9333 17.6416C68.1147 17.8185 69.2869 17.5536 70.1478 16.9166C70.91 16.3544 71.3856 15.5406 71.5347 14.5553C71.6227 14.007 71.6034 13.5136 71.4713 13.075C71.9076 13.0117 72.3223 12.9468 72.7207 12.8843C72.418 15.0085 72.1316 16.9992 72.0752 17.3675H78.6178C78.6812 16.9212 78.851 15.7498 78.9313 15.1799H74.967L75.2357 13.309H78.831C78.8873 12.919 79.0147 12.0326 79.0989 11.4542C79.5877 11.3021 79.834 11.2071 79.834 11.2071C79.834 11.2071 81.0517 10.8411 82.6239 10.2573C82.3984 11.8472 81.705 16.6965 81.6085 17.3675H84.44C84.5258 16.7683 85.5319 9.75618 85.5319 9.75618H87.5844C87.6454 9.32067 87.8415 7.92844 87.9295 7.29835C86.8701 7.88829 84.8601 8.81567 81.9907 9.75618Z" fill="#0D2D4F"/>
<path d="M57.5991 11.5378C58.8685 11.6359 60.6044 11.7138 62.6028 11.7285C62.3541 11.5378 62.0692 11.3702 61.741 11.222C61.7264 11.2142 61.0082 10.8529 61.0082 10.8529L60.9936 10.8475L60.982 10.8405C60.7465 10.7069 60.1913 10.3826 60.1913 9.84132C60.1913 9.57878 60.2947 9.3479 60.4793 9.19192C60.714 8.99733 61.0661 8.92397 61.4445 8.99733C61.924 9.06991 62.4761 9.38187 63.0784 9.89923C63.3649 9.3479 63.917 8.29388 64.1108 7.91705C63.4166 7.34564 62.7487 7.03523 61.7449 6.85994C60.5079 6.68003 59.3125 6.94102 58.4778 7.57652C57.7689 8.11859 57.3296 8.9093 57.2153 9.86834C57.1937 10.0305 57.1875 10.1873 57.1875 10.3394C57.1875 10.788 57.267 11.1849 57.4253 11.5285C57.4817 11.5339 57.5427 11.5355 57.5991 11.5378Z" fill="#0D2D4F"/>
<path d="M75.7941 9.42072H79.6519C79.7152 8.97749 79.8851 7.80378 79.9646 7.23777H73.5332C73.493 7.49877 73.2428 9.22381 72.9648 11.1836C73.8528 11.0709 74.7339 10.9373 75.5995 10.7844L75.7941 9.42072Z" fill="#0D2D4F"/>
<path d="M2.93192 23.5535H4.50485C4.54577 24.4507 3.93961 25.1604 2.92497 25.1604C1.82771 25.1604 1.23545 24.2222 1.23545 23.1944C1.23545 22.1388 1.73196 21.1049 2.92497 21.1049C3.657 21.1049 4.25621 21.4416 4.38748 22.1875H5.04151C4.85619 21.0354 3.99984 20.5536 2.92497 20.5536C1.36672 20.5536 0.579102 21.7945 0.579102 23.2292C0.579102 24.5117 1.45629 25.7109 2.92497 25.7109C3.50488 25.7109 4.12494 25.4994 4.50485 24.9812L4.67704 25.5943H5.0917V23.0021H2.93192V23.5535Z" fill="#0D2D4F"/>
<path d="M5.99316 25.5921H6.58002V20.668H5.99316V25.5921Z" fill="#0D2D4F"/>
<path d="M9.02928 25.1577C8.41617 25.1577 7.91811 24.6743 7.91811 23.8125C7.91811 22.9438 8.41617 22.4597 9.02928 22.4597C9.64316 22.4597 10.1412 22.9438 10.1412 23.8125C10.1412 24.6743 9.64316 25.1577 9.02928 25.1577ZM9.02928 21.9431C7.89958 21.9431 7.29883 22.7639 7.29883 23.8125C7.29883 24.8542 7.89958 25.6758 9.02928 25.6758C10.1605 25.6758 10.7605 24.8542 10.7605 23.8125C10.7605 22.7639 10.1605 21.9431 9.02928 21.9431Z" fill="#0D2D4F"/>
<path d="M13.162 25.1577C12.3543 25.1577 12.0369 24.5098 12.0369 23.8056C12.0369 23.1361 12.3412 22.4597 13.1265 22.4597C13.887 22.4597 14.2307 23.1091 14.2307 23.7793C14.2307 24.4743 13.9635 25.1577 13.162 25.1577ZM13.2106 21.9431C12.7203 21.9431 12.2655 22.116 12.0724 22.5091H12.0578V20.6667H11.4717V25.5916H12.0578V25.116H12.0724C12.3342 25.5368 12.8593 25.6758 13.2237 25.6758C14.3141 25.6758 14.8507 24.8272 14.8507 23.8195C14.8507 22.8126 14.3063 21.9431 13.2106 21.9431" fill="#0D2D4F"/>
<path d="M17.7495 24.3523C17.7495 24.675 17.4322 25.1577 16.6608 25.1577C16.3017 25.1577 15.9704 25.021 15.9704 24.6341C15.9704 24.1994 16.3017 24.0612 16.6878 23.9924C17.0808 23.9245 17.5233 23.9168 17.7495 23.7515V24.3523ZM18.3372 24.76V22.9237C18.3372 22.089 17.6391 21.9446 16.999 21.9446C16.2052 21.9446 15.5218 22.255 15.4863 23.1376H16.0731C16.1017 22.6133 16.4669 22.4612 16.9635 22.4612C17.3364 22.4612 17.7557 22.5454 17.7557 23.055C17.7557 23.4967 17.2051 23.4558 16.5565 23.5793C15.9504 23.6967 15.3496 23.8697 15.3496 24.675C15.3496 25.387 15.8816 25.6758 16.5303 25.6758C17.026 25.6758 17.4615 25.5044 17.7827 25.1237C17.7827 25.5105 17.9773 25.6758 18.2816 25.6758C18.4669 25.6758 18.5989 25.6418 18.7032 25.58V25.1237C18.6267 25.1522 18.5711 25.1577 18.5225 25.1577C18.3372 25.1577 18.3372 25.0356 18.3372 24.76" fill="#0D2D4F"/>
<path d="M19.2822 25.5921H19.8691V20.668H19.2822V25.5921Z" fill="#0D2D4F"/>
<path d="M22.8223 25.5921H23.4763V20.668H22.8223V25.5921Z" fill="#0D2D4F"/>
<path d="M26.2069 21.9452C25.6965 21.9452 25.298 22.1529 25.0471 22.5938H25.0347V22.0278H24.4834V25.5938H25.0679V23.5807C25.0679 22.9382 25.4131 22.4618 26.1243 22.4618C26.5729 22.4618 26.8486 22.746 26.8486 23.1807V25.5938H27.4347V23.2494C27.4347 22.4842 27.1443 21.9452 26.2069 21.9452Z" fill="#0D2D4F"/>
<path d="M29.643 25.001H29.6292L28.6292 22.0273H27.9736L29.2979 25.5933H29.9257L31.2291 22.0273H30.6145L29.643 25.001Z" fill="#0D2D4F"/>
<path d="M32.1941 23.4689C32.235 22.9237 32.5995 22.4612 33.2157 22.4612C33.7925 22.4612 34.2141 22.9106 34.2427 23.4689H32.1941ZM33.2496 21.9446C32.2767 21.9446 31.5732 22.7315 31.5732 23.7994C31.6088 24.8897 32.1462 25.6758 33.2836 25.6758C34.0828 25.6758 34.6496 25.2472 34.8079 24.4619H34.2288C34.1253 24.9245 33.7878 25.1584 33.3045 25.1584C32.5253 25.1584 32.174 24.6079 32.1941 23.987H34.8627C34.8982 23.1245 34.5121 21.9446 33.2496 21.9446Z" fill="#0D2D4F"/>
<path d="M37.1049 23.5384C36.5613 23.4071 35.9389 23.3392 35.9389 22.9176C35.9389 22.5593 36.3474 22.462 36.6979 22.462C37.0863 22.462 37.4848 22.6064 37.5249 23.062H38.1126C38.0647 22.1933 37.4361 21.9454 36.6501 21.9454C36.0292 21.9454 35.3188 22.2427 35.3188 22.9585C35.3188 23.6411 35.9057 23.8349 36.4841 23.9662C37.0717 24.0959 37.65 24.1724 37.65 24.6279C37.65 25.0766 37.1528 25.1577 36.7883 25.1577C36.3049 25.1577 35.8501 24.9939 35.83 24.4681H35.2432C35.2771 25.3522 35.9528 25.6758 36.7535 25.6758C37.4771 25.6758 38.2709 25.4001 38.2709 24.553C38.2709 23.8627 37.691 23.6697 37.1049 23.5384Z" fill="#0D2D4F"/>
<path d="M39.7344 20.9591H39.1468V22.0278H38.5391V22.5467H39.1468V24.8146C39.1468 25.4702 39.3892 25.5938 39.9962 25.5938H40.444V25.0779H40.1738C39.8085 25.0779 39.7344 25.0301 39.7344 24.7606V22.5467H40.444V22.0278H39.7344V20.9591Z" fill="#0D2D4F"/>
<path d="M44.9052 21.9452C44.4519 21.9452 44.0303 22.1722 43.7879 22.5521C43.6435 22.1182 43.2443 21.9452 42.8088 21.9452C42.3192 21.9452 41.9208 22.1529 41.6574 22.5521H41.6435V22.0278H41.0938V25.5938H41.6783V23.373C41.6783 23.105 41.9331 22.4618 42.6304 22.4618C43.1547 22.4618 43.2999 22.7946 43.2999 23.2571V25.5938H43.8852V23.373C43.8852 22.8216 44.2512 22.4618 44.8164 22.4618C45.3886 22.4618 45.5067 22.8131 45.5067 23.2571V25.5938H46.0928V22.9799C46.0928 22.2425 45.6164 21.9452 44.9052 21.9452Z" fill="#0D2D4F"/>
<path d="M47.4046 23.4689C47.4463 22.9237 47.8123 22.4612 48.4254 22.4612C49.0053 22.4612 49.4246 22.9106 49.4532 23.4689H47.4046ZM48.4586 21.9446C47.4872 21.9446 46.7822 22.7315 46.7822 23.7994C46.817 24.8897 47.356 25.6758 48.4949 25.6758C49.2949 25.6758 49.8601 25.2472 50.0176 24.4619H49.4393C49.3343 24.9245 48.9976 25.1584 48.5142 25.1584C47.7359 25.1584 47.383 24.6079 47.4046 23.987H50.0725C50.1072 23.1245 49.7227 21.9446 48.4586 21.9446Z" fill="#0D2D4F"/>
<path d="M52.4049 21.9452C51.8945 21.9452 51.4953 22.1529 51.2467 22.5938H51.2335V22.0278H50.6807V25.5938H51.2675V23.5807C51.2675 22.9382 51.6127 22.4618 52.3223 22.4618C52.7702 22.4618 53.0458 22.746 53.0458 23.1807V25.5938H53.6342V23.2494C53.6342 22.4842 53.3424 21.9452 52.4049 21.9452Z" fill="#0D2D4F"/>
<path d="M55.3305 20.9591H54.7436V22.0278H54.1367V22.5467H54.7436V24.8146C54.7436 25.4702 54.9853 25.5938 55.5923 25.5938H56.0401V25.0779H55.773C55.4069 25.0779 55.3305 25.0301 55.3305 24.7606V22.5467H56.0401V22.0278H55.3305V20.9591Z" fill="#0D2D4F"/>
<path d="M58.3246 23.5384C57.7795 23.4071 57.1586 23.3392 57.1586 22.9176C57.1586 22.5593 57.5656 22.462 57.9177 22.462C58.3038 22.462 58.7037 22.6064 58.7439 23.062H59.3323C59.2829 22.1933 58.6559 21.9454 57.8698 21.9454C57.249 21.9454 56.5378 22.2427 56.5378 22.9585C56.5378 23.6411 57.1239 23.8349 57.7022 23.9662C58.2899 24.0959 58.8674 24.1724 58.8674 24.6279C58.8674 25.0766 58.3717 25.1577 58.0065 25.1577C57.5231 25.1577 57.0683 24.9939 57.0474 24.4681H56.4629C56.4953 25.3522 57.1725 25.6758 57.9725 25.6758C58.6953 25.6758 59.4883 25.4001 59.4883 24.553C59.4883 23.8627 58.9091 23.6697 58.3246 23.5384Z" fill="#0D2D4F"/>
</g>
<defs>
<clipPath id="clip0_714_16052">
<rect width="100.207" height="32" fill="white"/>
</clipPath>
</defs>
</svg>
