<svg width="160" height="64" viewBox="0 0 160 64" fill="none" xmlns="http://www.w3.org/2000/svg">
<rect width="160" height="64" rx="8" fill="#F9FAFB"/>
<g style="mix-blend-mode:luminosity">
<path d="M114.996 35.5292C114.833 36.2415 114.769 36.9727 114.806 37.7024C114.806 38.1791 114.659 38.2991 114.193 38.2957C111.313 38.2757 108.43 38.2957 105.55 38.2957C105.313 38.2957 104.95 38.3924 105.056 37.9624C105.133 37.6524 104.696 37.0958 105.486 37.0791C106.153 37.0791 106.323 36.8658 106.433 36.2192C106.475 35.9647 106.495 35.7071 106.493 35.4492C106.493 33.3782 106.493 31.3094 106.493 29.2428C106.495 29.0356 106.484 28.8286 106.46 28.6228C106.346 27.8229 106.193 27.6662 105.373 27.5962C105.103 27.5729 105.04 27.4962 105.04 27.2329C105.04 26.3463 105.016 26.3496 105.89 26.3496C107.32 26.3496 108.753 26.3496 110.183 26.3496C110.553 26.3496 110.743 26.4129 110.679 26.8229C110.659 26.9778 110.659 27.1347 110.679 27.2896C110.696 27.4996 110.629 27.5729 110.4 27.6062C109.45 27.7462 109.353 27.8395 109.26 28.8095C109.21 29.3395 109.223 29.8761 109.223 30.4094C109.223 32.186 109.223 33.9626 109.223 35.7425C109.223 36.7858 109.493 37.0558 110.533 37.0991C111.188 37.1136 111.842 37.0509 112.483 36.9125C112.791 36.8637 113.078 36.7232 113.306 36.5092C113.534 36.2951 113.692 36.0176 113.759 35.7125C113.819 35.4992 113.873 35.2792 113.919 35.0625C114.076 34.2992 114.073 34.2959 114.899 34.3692C114.929 34.5626 114.813 34.7826 115.003 34.9426L114.996 35.5292Z" fill="#8C2620"/>
<path d="M97.2274 38.2851C96.0308 38.2851 95.0141 38.2851 93.9942 38.2851C93.6409 38.2851 93.4842 38.1984 93.5375 37.8284C93.5542 37.6745 93.5542 37.5191 93.5375 37.3651C93.5175 37.1418 93.6042 37.0851 93.8242 37.0651C94.7775 36.9718 94.9508 36.8052 94.9741 35.7819C95.0108 34.2319 95.0008 32.6787 94.9908 31.1154C95.0342 30.2374 95.0141 29.3573 94.9308 28.4822C94.8275 27.7956 94.6608 27.6122 93.9708 27.5689C93.6075 27.5456 93.5209 27.4389 93.5309 27.0889C93.5542 26.3123 93.5309 26.299 94.3342 26.3123C96.2474 26.349 98.174 26.139 100.074 26.4123C103.02 26.8323 105.13 28.5855 105.17 31.892C105.19 33.5586 104.874 35.1386 103.837 36.5052C102.96 37.6451 101.724 38.0518 100.371 38.2051C99.2606 38.3484 98.154 38.2584 97.2274 38.2851ZM97.724 31.9054C97.724 33.132 97.724 34.3553 97.724 35.5719C97.7363 35.8297 97.7619 36.0867 97.8007 36.3418C97.8128 36.5176 97.8861 36.6835 98.0079 36.8108C98.1297 36.9381 98.2923 37.0186 98.4673 37.0385C99.6239 37.2218 100.941 37.0385 101.587 35.6785C102.072 34.7219 102.345 33.6719 102.387 32.6002C102.429 31.5286 102.239 30.4605 101.83 29.4688C101.317 28.1889 100.434 27.4456 98.984 27.5289C98.709 27.5539 98.4323 27.5539 98.1573 27.5289C97.794 27.4889 97.7273 27.6522 97.7307 27.9756C97.734 29.2822 97.724 30.5954 97.724 31.9054Z" fill="#8C2620"/>
<path d="M82.2613 34.6149C82.2613 32.6683 82.2613 30.7384 82.2613 28.8085C82.2613 27.9885 81.998 27.6285 81.2347 27.6052C80.6047 27.5819 80.6547 27.2452 80.698 26.8519C80.718 26.6519 80.5314 26.3252 80.968 26.3252C82.2446 26.3252 83.5212 26.3252 84.7979 26.3252C84.9978 26.3252 85.0812 26.3919 85.0678 26.5919C85.0528 26.7293 85.0528 26.8678 85.0678 27.0052C85.1212 27.3919 85.0378 27.5652 84.5745 27.5918C83.7612 27.6385 83.5112 27.9918 83.5112 28.9251C83.5112 31.8383 83.5112 34.7549 83.5112 37.6681C83.5112 38.1614 83.3879 38.2447 82.9013 38.308C81.7347 38.458 81.098 38.008 80.5247 36.9748C79.1381 34.5182 77.6015 32.145 76.1316 29.7384C75.9749 29.4784 75.8449 29.2018 75.7349 28.9918C75.7349 31.2217 75.7349 33.5049 75.7349 35.7881C75.7349 36.5581 76.0682 36.8981 76.8282 36.9514C77.6548 37.0081 77.2082 37.6014 77.2782 37.9514C77.3749 38.408 76.9782 38.258 76.7615 38.2614C75.6549 38.2614 74.5516 38.2614 73.4484 38.2614C73.115 38.2614 72.9584 38.1814 73.0151 37.8314C73.0267 37.7451 73.0267 37.6577 73.0151 37.5714C72.9651 37.1681 73.0151 36.9248 73.5484 36.9048C74.215 36.8781 74.465 36.5714 74.4683 35.9048C74.4683 33.5249 74.4917 31.145 74.4683 28.7651C74.4683 27.8085 74.2717 27.6585 73.3084 27.5419C73.1184 27.5185 73.0517 27.4785 73.0351 27.2752C72.9551 26.2986 72.9484 26.3019 73.8983 26.3019C74.935 26.3019 75.9683 26.3019 77.0049 26.3019C77.1129 26.287 77.2228 26.3055 77.32 26.3549C77.4171 26.4044 77.4967 26.4824 77.5482 26.5786C79.0214 29.0673 80.5003 31.5517 81.9846 34.0316C82.088 34.2282 82.1646 34.4149 82.2613 34.6149Z" fill="#8C2620"/>
<path d="M91.5921 26.8418C91.6288 26.2951 91.8454 26.0485 92.3821 26.1185C92.662 26.1585 92.7154 26.2518 92.7154 26.5018C92.7154 27.3817 92.7154 28.2617 92.7154 29.1417C92.7154 29.3083 92.802 29.585 92.4887 29.5416C92.1754 29.4983 91.8221 29.7783 91.6888 29.245C91.5949 28.8223 91.4043 28.4271 91.1319 28.0904C90.8595 27.7538 90.5127 27.485 90.1188 27.3051C89.8401 27.1463 89.5269 27.0578 89.2063 27.0474C88.8857 27.0369 88.5674 27.1048 88.2789 27.2451C88.1071 27.3257 87.9569 27.4461 87.8408 27.5963C87.7247 27.7464 87.6459 27.922 87.6111 28.1086C87.5763 28.2952 87.5863 28.4874 87.6404 28.6694C87.6945 28.8513 87.7911 29.0178 87.9223 29.155C88.2386 29.4739 88.6087 29.7346 89.0155 29.925C90.0609 30.4134 91.0585 30.9981 91.9954 31.6715C92.3753 31.9554 92.6907 32.3168 92.9205 32.7316C93.1503 33.1465 93.2895 33.6055 93.3287 34.0781C93.562 36.1647 92.5054 37.9779 90.7121 38.4846C89.4255 38.8479 88.2256 38.5512 87.069 37.9746C86.8256 37.8513 86.5923 37.7079 86.359 37.5779C86.3083 37.6307 86.2696 37.6937 86.2455 37.7627C86.2213 37.8317 86.2123 37.9051 86.219 37.9779C86.219 38.3512 86.0357 38.4079 85.7057 38.4279C85.2624 38.4546 85.1557 38.3012 85.169 37.8779C85.2024 36.878 85.169 35.878 85.1857 34.8781C85.1857 34.7147 85.0824 34.4281 85.399 34.4648C85.7157 34.5014 86.0657 34.2281 86.229 34.7181C86.4567 35.4454 86.8676 36.102 87.4223 36.6247C87.6972 36.8995 88.0235 37.1175 88.3827 37.2662C88.7419 37.4149 89.1268 37.4914 89.5155 37.4913C89.8453 37.4914 90.1679 37.3949 90.4433 37.2136C90.7188 37.0323 90.9351 36.7742 91.0654 36.4713C91.1948 36.1497 91.2206 35.7959 91.1393 35.4589C91.0581 35.122 90.8738 34.8187 90.6121 34.5914C89.9088 33.9248 88.9922 33.6215 88.1789 33.1415C87.6587 32.8395 87.1578 32.5056 86.679 32.1415C85.439 31.1882 85.4057 29.8783 85.6557 28.5284C85.9057 27.1784 86.8556 26.4484 88.1322 26.1118C89.4089 25.7751 90.4621 26.2051 91.5921 26.8418Z" fill="#8C2620"/>
<path fill-rule="evenodd" clip-rule="evenodd" d="M51.781 31.267L56.3941 34.2302C55.9602 33.3988 55.7981 32.4521 55.9308 31.5237C56.2748 30.4866 56.844 29.5384 57.5974 28.7471C58.5974 27.7805 60.194 27.2339 61.5239 27.8005C63.1105 28.4671 63.2905 30.647 63.0405 32.1336C62.9602 32.654 62.797 33.1582 62.5572 33.6269L57.9441 30.6637C58.378 31.494 58.54 32.4396 58.4074 33.3669C58.0663 34.4053 57.4968 35.3541 56.7408 36.1435C55.7408 37.1101 54.1442 37.6601 52.8143 37.0901C51.231 36.4234 51.051 34.2469 51.2977 32.7569C51.3775 32.2375 51.5407 31.7344 51.781 31.267ZM48.4112 24.584V24.6073C48.2311 24.914 48.0719 25.2325 47.9345 25.5606C45.9713 29.5937 44.9347 33.0436 44.9947 35.8401C45.0075 37.4356 45.4846 38.9928 46.3678 40.3216C47.2509 41.6504 48.5018 42.6934 49.9678 43.3231C52.0443 44.2031 54.5542 44.1031 57.6008 42.8032C59.6965 41.7362 61.5591 40.2633 63.0805 38.47L65.917 40.3299V40.3099C66.0978 40.0024 66.257 39.6828 66.3937 39.3533C68.3603 35.3202 69.3769 31.8736 69.3336 29.0738C69.3205 27.4788 68.8432 25.9221 67.9601 24.5939C67.077 23.2656 65.8262 22.2233 64.3604 21.5941C62.2839 20.7108 59.774 20.8108 56.7275 22.1141C54.6342 23.1804 52.7747 24.6535 51.2577 26.4472L48.4212 24.584" fill="url(#paint0_linear_3055_21692)"/>
<path fill-rule="evenodd" clip-rule="evenodd" d="M65.9065 40.3107L59.7734 36.2842C61.3234 35.221 62.6666 34.261 63.0233 32.1244C63.27 30.6445 63.09 28.4746 61.5067 27.7913C60.1734 27.2247 58.5668 27.7746 57.5802 28.7379C56.1036 30.1845 55.6936 32.4044 55.3203 33.3044C55.5203 29.7145 57.6035 27.3246 59.3501 26.5813C61.2267 25.7814 64.3666 26.3347 65.8732 27.7513C66.9098 28.7212 67.5398 30.9311 67.5398 33.0177C67.4331 35.4776 67.0364 38.3975 65.8932 40.3041" fill="#63363C"/>
<path fill-rule="evenodd" clip-rule="evenodd" d="M48.4184 24.5723L51.255 26.4355C50.43 27.3928 49.6578 28.3942 48.9417 29.4354L51.7849 31.262C51.5451 31.7307 51.3819 32.2349 51.3016 32.7552C51.055 34.2352 51.235 36.4051 52.8182 37.0884C54.1515 37.6583 55.7581 37.1084 56.7447 36.1417C58.2213 34.6951 58.6313 32.4752 59.0046 31.5786C58.8046 35.1651 56.7214 37.555 54.9748 38.3016C53.0982 39.1016 49.9583 38.545 48.4517 37.1317C47.4151 36.1584 46.7852 33.9518 46.7852 31.8653C46.8918 29.402 47.2885 26.4822 48.4317 24.5789" fill="#63363C"/>
<path d="M65.3971 35.6257L57.9374 30.8493C59.534 33.9591 57.1308 37.439 54.1009 38.2856C53.3001 38.5474 52.4482 38.6135 51.6166 38.4784C50.785 38.3433 49.9978 38.0108 49.3211 37.509C47.3412 36.0024 46.8612 33.6825 46.9879 31.3359C47.165 29.0912 47.6506 26.8816 48.4312 24.7695C46.1479 29.2227 44.9547 33.0025 45.0013 36.0224C45.0144 37.6182 45.4915 39.1758 46.3746 40.5051C47.2576 41.8344 48.5084 42.878 49.9744 43.5087C52.0477 44.3853 54.5609 44.2887 57.6074 42.9854C61.1073 41.2455 63.3772 38.5356 65.4004 35.6524" fill="url(#paint1_linear_3055_21692)"/>
<path d="M48.8276 29.4532L56.4508 34.1161C54.786 31.0277 57.162 27.5045 60.2139 26.6081C61.02 26.333 61.8808 26.2531 62.7243 26.375C63.5679 26.497 64.3695 26.8172 65.0622 27.3089C67.0893 28.7857 67.6118 31.101 67.521 33.4528C67.3776 35.7034 66.9214 37.9238 66.1653 40.0513C68.4045 35.5554 69.5516 31.7512 69.4563 28.728C69.4177 27.1302 68.9102 25.5783 67.9956 24.2613C67.081 22.9444 65.7989 21.9195 64.3057 21.3115C62.1942 20.467 59.653 20.6042 56.5915 21.9583C53.0783 23.7568 50.8249 26.5069 48.8238 29.4265" fill="url(#paint2_linear_3055_21692)"/>
</g>
<defs>
<linearGradient id="paint0_linear_3055_21692" x1="79.7564" y1="32.6182" x2="82.6791" y2="32.6182" gradientUnits="userSpaceOnUse">
<stop stop-color="#A04636"/>
<stop offset="1" stop-color="#FBC707"/>
</linearGradient>
<linearGradient id="paint1_linear_3055_21692" x1="44.9913" y1="34.4091" x2="65.3971" y2="34.4091" gradientUnits="userSpaceOnUse">
<stop stop-color="#ECB20F"/>
<stop offset="1" stop-color="#A04636"/>
</linearGradient>
<linearGradient id="paint2_linear_3055_21692" x1="69.4921" y1="30.3433" x2="48.847" y2="30.6714" gradientUnits="userSpaceOnUse">
<stop stop-color="#ECB20F"/>
<stop offset="1" stop-color="#A04636"/>
</linearGradient>
</defs>
</svg>
