<svg width="64" height="64" viewBox="0 0 64 64" fill="none" xmlns="http://www.w3.org/2000/svg">
<circle cx="32" cy="32" r="32" fill="#F3FAF6"/>
<path d="M30.6359 33.5676L28.0026 30.9342C27.8026 30.7342 27.5582 30.6342 27.2693 30.6342C26.9804 30.6342 26.7359 30.7342 26.5359 30.9342C26.3359 31.1342 26.2359 31.3787 26.2359 31.6676C26.2359 31.9565 26.3359 32.2009 26.5359 32.4009L29.8359 35.7009C30.0359 35.9009 30.2748 36.0009 30.5526 36.0009C30.8304 36.0009 31.0693 35.9009 31.2693 35.7009L37.4359 29.5342C37.6137 29.3565 37.7026 29.1231 37.7026 28.8342C37.7026 28.5454 37.6137 28.312 37.4359 28.1342C37.2582 27.9565 37.0304 27.8676 36.7526 27.8676C36.4748 27.8676 36.247 27.9565 36.0693 28.1342L30.6359 33.5676ZM32.0026 45.2342C31.9137 45.2342 31.8304 45.2287 31.7526 45.2176C31.6748 45.2065 31.6026 45.1898 31.5359 45.1676C28.5582 44.2787 26.1137 42.4509 24.2026 39.6842C22.2915 36.9176 21.3359 33.8787 21.3359 30.5676V24.0342C21.3359 23.612 21.4582 23.2287 21.7026 22.8842C21.947 22.5398 22.2582 22.2898 22.6359 22.1342L31.3026 18.9009C31.547 18.812 31.7804 18.7676 32.0026 18.7676C32.2248 18.7676 32.4582 18.812 32.7026 18.9009L41.3693 22.1342C41.747 22.2898 42.0582 22.5398 42.3026 22.8842C42.5471 23.2287 42.6693 23.612 42.6693 24.0342V30.5676C42.6693 33.8787 41.7137 36.9176 39.8026 39.6842C37.8915 42.4509 35.447 44.2787 32.4693 45.1676L32.0026 45.2342ZM32.0026 43.2342C34.5582 42.3898 36.6415 40.7954 38.2526 38.4509C39.8637 36.1065 40.6693 33.4787 40.6693 30.5676V24.0342L32.0026 20.7676L23.3359 24.0342V30.5676C23.3359 33.4787 24.1415 36.1065 25.7526 38.4509C27.3637 40.7954 29.447 42.3898 32.0026 43.2342Z" fill="#109648"/>
</svg>
