<svg width="48" height="48" viewBox="0 0 48 48" fill="none" xmlns="http://www.w3.org/2000/svg">
<circle cx="24" cy="24" r="24" fill="#F3F5FC"/>
<path d="M35.934 19.052C35.8764 17.7742 35.67 16.8999 35.3771 16.1361C35.0698 15.3483 34.6618 14.6757 33.9944 14.0128C33.3271 13.3499 32.6598 12.9319 31.8724 12.6293C31.109 12.3315 30.2353 12.1297 28.9582 12.0721C27.6764 12.0144 27.2683 12 24.0132 12C20.7534 12 20.3453 12.0144 19.0682 12.0721C17.7912 12.1297 16.9174 12.3363 16.1541 12.6293C15.3619 12.9367 14.6898 13.3451 14.0272 14.0128C13.3647 14.6805 12.947 15.3483 12.6446 16.1361C12.3517 16.8999 12.1453 17.7742 12.0876 19.052C12.03 20.3347 12.0156 20.743 12.0156 24C12.0156 27.2618 12.03 27.6701 12.0876 28.948C12.1453 30.2258 12.3517 31.1001 12.6446 31.8639C12.9518 32.6517 13.3599 33.3243 14.0272 33.9872C14.6898 34.6549 15.3619 35.0681 16.1493 35.3707C16.9126 35.6685 17.7864 35.8703 19.0634 35.9279C20.3453 35.9856 20.7534 36 24.0084 36C27.2683 36 27.6764 35.9856 28.9534 35.9279C30.2305 35.8703 31.1042 35.6637 31.8676 35.3707C32.655 35.0633 33.3271 34.6549 33.9896 33.9872C34.6522 33.3195 35.0698 32.6517 35.3723 31.8639C35.67 31.1001 35.8716 30.2258 35.9292 28.948C35.9868 27.6653 36.0012 27.257 36.0012 24C36.0012 20.743 35.9916 20.3299 35.934 19.052ZM33.7784 28.8519C33.7256 30.024 33.5287 30.6629 33.3655 31.0809C33.1495 31.6381 32.8854 32.0416 32.4629 32.4644C32.0404 32.8871 31.642 33.1417 31.0802 33.3675C30.6578 33.5308 30.0192 33.7278 28.8526 33.7806C27.5899 33.8383 27.2107 33.8527 24.0036 33.8527C20.7966 33.8527 20.4173 33.8383 19.1547 33.7806C17.9832 33.7278 17.3447 33.5308 16.927 33.3675C16.3701 33.1513 15.9668 32.8871 15.5443 32.4644C15.1218 32.0416 14.8674 31.6429 14.6418 31.0809C14.4785 30.6581 14.2817 30.0192 14.2289 28.8519C14.1713 27.5885 14.1569 27.209 14.1569 24C14.1569 20.791 14.1713 20.4115 14.2289 19.1481C14.2817 17.976 14.4785 17.3371 14.6418 16.9191C14.8578 16.3619 15.1218 15.9584 15.5443 15.5356C15.9668 15.1129 16.3653 14.8583 16.927 14.6325C17.3495 14.4692 17.988 14.2722 19.1547 14.2194C20.4173 14.1617 20.7966 14.1473 24.0036 14.1473C27.2107 14.1473 27.5899 14.1617 28.8526 14.2194C30.024 14.2722 30.6626 14.4692 31.0802 14.6325C31.6371 14.8487 32.0404 15.1129 32.4629 15.5356C32.8854 15.9584 33.1399 16.3571 33.3655 16.9191C33.5287 17.3419 33.7256 17.9808 33.7784 19.1481C33.836 20.4115 33.8504 20.791 33.8504 24C33.8504 27.209 33.8312 27.5885 33.7784 28.8519Z" fill="url(#paint0_linear_5319_26816)"/>
<path d="M24.0004 17.832C20.5917 17.832 17.8359 20.5942 17.8359 24.0002C17.8359 27.4109 20.5965 30.1683 24.0004 30.1683C27.4043 30.1683 30.1648 27.4013 30.1648 24.0002C30.1648 20.5894 27.4091 17.832 24.0004 17.832ZM24.0004 28.0018C21.7919 28.0018 20.0012 26.2099 20.0012 24.0002C20.0012 21.7904 21.7919 19.9986 24.0004 19.9986C26.2088 19.9986 27.9996 21.7904 27.9996 24.0002C27.9996 26.2099 26.2088 28.0018 24.0004 28.0018Z" fill="url(#paint1_linear_5319_26816)"/>
<path d="M30.409 19.0327C31.2045 19.0327 31.8493 18.3875 31.8493 17.5915C31.8493 16.7956 31.2045 16.1504 30.409 16.1504C29.6136 16.1504 28.9688 16.7956 28.9688 17.5915C28.9688 18.3875 29.6136 19.0327 30.409 19.0327Z" fill="#BC30A0"/>
<path d="M12 24C12 27.2618 12.0144 27.6701 12.072 28.948C12.1296 30.2258 12.3361 31.1001 12.6289 31.8639C12.9362 32.6517 13.3443 33.3243 14.0116 33.9872C14.6741 34.6501 15.3463 35.0681 16.1336 35.3707C16.897 35.6685 17.7708 35.8703 19.0478 35.9279C20.3297 35.9856 20.7377 36 23.9928 36C27.2527 36 27.6607 35.9856 28.9378 35.9279C30.2148 35.8703 31.0886 35.6637 31.852 35.3707C32.6393 35.0633 33.3115 34.6549 33.974 33.9872C34.6365 33.3243 35.0542 32.6517 35.3567 31.8639C35.6543 31.1001 35.856 30.2258 35.9136 28.948C35.9712 27.6653 35.9856 27.257 35.9856 24C35.9856 20.7382 35.9712 20.3299 35.9136 19.052C35.856 17.7742 35.6495 16.8999 35.3567 16.1361C35.0494 15.3483 34.6413 14.6757 33.974 14.0128C33.3163 13.3451 32.6441 12.9319 31.8568 12.6293C31.0934 12.3315 30.2196 12.1297 28.9426 12.0721C27.6607 12.0144 27.2527 12 23.9976 12C20.7377 12 20.3297 12.0144 19.0526 12.0721C17.7756 12.1297 16.9018 12.3363 16.1384 12.6293C15.3511 12.9367 14.6789 13.3451 14.0164 14.0128C13.3539 14.6805 12.9362 15.3483 12.6337 16.1361C12.3361 16.8999 12.1296 17.7742 12.072 19.052C12.0144 20.3299 12 20.7382 12 24ZM14.1652 24C14.1652 20.7958 14.1796 20.4115 14.2372 19.1481C14.2901 17.976 14.4869 17.3371 14.6501 16.9191C14.8662 16.3619 15.1302 15.9584 15.5527 15.5356C15.9752 15.1129 16.3737 14.8583 16.9354 14.6325C17.3579 14.4692 17.9964 14.2722 19.163 14.2194C20.4257 14.1617 20.805 14.1473 24.012 14.1473C27.219 14.1473 27.5983 14.1617 28.861 14.2194C30.0324 14.2722 30.6709 14.4692 31.0886 14.6325C31.6455 14.8487 32.0488 15.1129 32.4713 15.5356C32.8938 15.9584 33.1482 16.3571 33.3739 16.9191C33.5371 17.3419 33.7339 17.9808 33.7868 19.1481C33.8444 20.4115 33.8588 20.791 33.8588 24C33.8588 27.209 33.8444 27.5885 33.7868 28.8519C33.7339 30.024 33.5371 30.6629 33.3739 31.0809C33.1578 31.6381 32.8938 32.0416 32.4713 32.4644C32.0488 32.8871 31.6503 33.1417 31.0886 33.3675C30.6661 33.5308 30.0276 33.7278 28.861 33.7806C27.5983 33.8383 27.219 33.8527 24.012 33.8527C20.805 33.8527 20.4257 33.8383 19.163 33.7806C17.9916 33.7278 17.3531 33.5308 16.9354 33.3675C16.3785 33.1513 15.9752 32.8871 15.5527 32.4644C15.1302 32.0416 14.8758 31.6429 14.6501 31.0809C14.4869 30.6581 14.2901 30.0192 14.2372 28.8519C14.1748 27.5885 14.1652 27.2042 14.1652 24Z" fill="url(#paint2_linear_5319_26816)"/>
<defs>
<linearGradient id="paint0_linear_5319_26816" x1="32.2967" y1="13.8352" x2="14.9343" y2="35.1076" gradientUnits="userSpaceOnUse">
<stop stop-color="#AE3DAE"/>
<stop offset="0.0468721" stop-color="#B23BA6"/>
<stop offset="0.1216" stop-color="#BD368E"/>
<stop offset="0.2148" stop-color="#CE2E69"/>
<stop offset="0.3216" stop-color="#E62335"/>
<stop offset="0.418" stop-color="#FF1800"/>
</linearGradient>
<linearGradient id="paint1_linear_5319_26816" x1="26.9402" y1="19.053" x2="20.6329" y2="29.6516" gradientUnits="userSpaceOnUse">
<stop stop-color="#E12F6A"/>
<stop offset="0.1705" stop-color="#EA3751"/>
<stop offset="0.3563" stop-color="#F13D3E"/>
<stop offset="0.5467" stop-color="#F64133"/>
<stop offset="0.7469" stop-color="#F7422F"/>
<stop offset="0.7946" stop-color="#F74C2F"/>
<stop offset="0.8743" stop-color="#F7652F"/>
<stop offset="0.9757" stop-color="#F78F2E"/>
<stop offset="1" stop-color="#F79A2E"/>
</linearGradient>
<linearGradient id="paint2_linear_5319_26816" x1="29.4381" y1="11.012" x2="18.8139" y2="36.3363" gradientUnits="userSpaceOnUse">
<stop offset="0.2341" stop-color="#9E35A5" stop-opacity="0"/>
<stop offset="0.4512" stop-color="#D42F7F" stop-opacity="0.5"/>
<stop offset="0.7524" stop-color="#F7772E"/>
<stop offset="0.9624" stop-color="#FEF780"/>
</linearGradient>
</defs>
</svg>
