<svg width="72" height="72" viewBox="0 0 72 72" fill="none" xmlns="http://www.w3.org/2000/svg">
<circle cx="36" cy="36" r="36" fill="#00A884"/>
<g clip-path="url(#clip0_5258_22213)">
<path fill-rule="evenodd" clip-rule="evenodd" d="M36.0008 48.204C43.0557 48.204 48.775 42.4963 48.775 35.4555C48.775 28.4147 43.0557 22.707 36.0008 22.707C28.9458 22.707 23.2266 28.4147 23.2266 35.4555C23.2266 38.1604 24.0707 40.6686 25.5103 42.7319L24.2819 47.3072L28.919 46.0673C30.9458 47.4172 33.3812 48.204 36.0008 48.204Z" fill="url(#paint0_linear_5258_22213)"/>
<path d="M20.8359 50.7217L22.9835 42.896C21.6589 40.6057 20.9619 38.0074 20.963 35.3457C20.9664 27.0187 27.7568 20.2441 36.1009 20.2441C40.1501 20.2459 43.9507 21.8187 46.8089 24.6732C49.6667 27.5278 51.24 31.3223 51.2386 35.3579C51.235 43.6844 44.4437 50.4602 36.1009 50.4602C36.1003 50.4602 36.1012 50.4602 36.1009 50.4602H36.0943C33.5611 50.4592 31.0716 49.825 28.8607 48.6218L20.8359 50.7217ZM29.2324 45.8877L29.6921 46.1596C31.6235 47.3034 33.8379 47.9084 36.0959 47.9096H36.1008C43.0355 47.9096 48.6795 42.2782 48.6825 35.3569C48.6836 32.0027 47.3763 28.8487 45.0007 26.4761C42.625 24.1037 39.4664 22.7963 36.1055 22.7949C29.1654 22.7949 23.5214 28.4256 23.5186 35.3466C23.5177 37.7183 24.1826 40.0281 25.4421 42.0269L25.7417 42.5017L24.4702 47.1336L29.2324 45.8877Z" fill="white"/>
<path fill-rule="evenodd" clip-rule="evenodd" d="M32.2367 28.8622C31.9534 28.2336 31.6551 28.221 31.3855 28.21C31.1651 28.2006 30.9126 28.2012 30.6607 28.2012C30.4085 28.2012 29.9987 28.2957 29.6521 28.6735C29.3054 29.0512 28.3281 29.9643 28.3281 31.8215C28.3281 33.6788 29.6836 35.4734 29.8726 35.7255C30.0617 35.9772 32.4892 39.9101 36.3338 41.4232C39.5289 42.6805 40.1791 42.4304 40.8726 42.3676C41.5661 42.3046 43.1104 41.4546 43.4256 40.5732C43.7408 39.6918 43.7408 38.9364 43.6463 38.7785C43.5517 38.6212 43.2996 38.5268 42.9213 38.338C42.543 38.1493 40.6835 37.2359 40.3367 37.1102C39.99 36.9844 39.7378 36.9214 39.4856 37.2993C39.2334 37.6768 38.5089 38.5268 38.2882 38.7785C38.0676 39.0308 37.847 39.0622 37.4687 38.8735C37.0904 38.6842 35.8722 38.286 34.4271 37.0001C33.3027 35.9996 32.5435 34.764 32.3228 34.3862C32.1022 34.0086 32.2992 33.8041 32.489 33.616C32.6588 33.4468 32.8672 33.1753 33.0563 32.9549C33.2451 32.7345 33.3082 32.5772 33.4342 32.3255C33.5602 32.0735 33.4973 31.853 33.4027 31.6642C33.3082 31.4754 32.5731 29.6086 32.2367 28.8622Z" fill="white"/>
</g>
<defs>
<linearGradient id="paint0_linear_5258_22213" x1="36.0045" y1="48.2183" x2="36.0045" y2="22.7216" gradientUnits="userSpaceOnUse">
<stop stop-color="#20B038"/>
<stop offset="1" stop-color="#60D66A"/>
</linearGradient>
<clipPath id="clip0_5258_22213">
<rect width="36" height="36" fill="white" transform="translate(18 18)"/>
</clipPath>
</defs>
</svg>
