<svg width="64" height="64" viewBox="0 0 64 64" fill="none" xmlns="http://www.w3.org/2000/svg">
<circle cx="32" cy="32" r="32" fill="#F3FAF6"/>
<path d="M33.0646 31.5333L36.8979 35.3C37.0979 35.5 37.1979 35.7389 37.1979 36.0167C37.1979 36.2944 37.0979 36.5333 36.8979 36.7333C36.6979 36.9333 36.4646 37.0333 36.1979 37.0333C35.9312 37.0333 35.6979 36.9333 35.4979 36.7333L31.3646 32.6667C31.2535 32.5556 31.1757 32.4389 31.1313 32.3167C31.0868 32.1944 31.0646 32.0667 31.0646 31.9333V26.2333C31.0646 25.9444 31.159 25.7056 31.3479 25.5167C31.5368 25.3278 31.7757 25.2333 32.0646 25.2333C32.3535 25.2333 32.5924 25.3278 32.7812 25.5167C32.9701 25.7056 33.0646 25.9444 33.0646 26.2333V31.5333ZM32.1313 44C30.4646 44 28.8979 43.6833 27.4312 43.05C25.9646 42.4167 24.6812 41.5556 23.5812 40.4667C22.4812 39.3778 21.6146 38.1 20.9812 36.6333C20.3479 35.1667 20.0312 33.6 20.0312 31.9333C20.0312 30.2667 20.3479 28.7111 20.9812 27.2667C21.6146 25.8222 22.4812 24.5611 23.5812 23.4833C24.6812 22.4056 25.9646 21.5556 27.4312 20.9333C28.8979 20.3111 30.4646 20 32.1313 20C33.909 20 35.5924 20.3889 37.1812 21.1667C38.7701 21.9444 40.1424 23.0111 41.2979 24.3667V21.8333C41.2979 21.5444 41.3924 21.3056 41.5812 21.1167C41.7701 20.9278 42.009 20.8333 42.2979 20.8333C42.5868 20.8333 42.8257 20.9278 43.0146 21.1167C43.2035 21.3056 43.2979 21.5444 43.2979 21.8333V26.7667C43.2979 27.0556 43.2035 27.2944 43.0146 27.4833C42.8257 27.6722 42.5868 27.7667 42.2979 27.7667H37.3312C37.0424 27.7667 36.8035 27.6722 36.6146 27.4833C36.4257 27.2944 36.3312 27.0556 36.3312 26.7667C36.3312 26.4778 36.4257 26.2389 36.6146 26.05C36.8035 25.8611 37.0424 25.7667 37.3312 25.7667H39.8312C38.8535 24.6333 37.7035 23.7222 36.3813 23.0333C35.059 22.3444 33.6424 22 32.1313 22C29.3535 22 26.9757 22.95 24.9979 24.85C23.0201 26.75 22.0312 29.0778 22.0312 31.8333C22.0312 34.6556 23.009 37.0556 24.9646 39.0333C26.9201 41.0111 29.309 42 32.1313 42C34.709 42 36.8979 41.1667 38.6979 39.5C40.4979 37.8333 41.5868 35.7556 41.9646 33.2667C42.009 33 42.1312 32.7722 42.3312 32.5833C42.5312 32.3944 42.7646 32.3111 43.0312 32.3333C43.3424 32.3556 43.5812 32.4778 43.7479 32.7C43.9146 32.9222 43.9757 33.1889 43.9312 33.5C43.509 36.5 42.2146 39 40.0479 41C37.8813 43 35.2424 44 32.1313 44Z" fill="#109648"/>
</svg>
