<svg width="64" height="64" viewBox="0 0 64 64" fill="none" xmlns="http://www.w3.org/2000/svg">
<circle cx="32" cy="32" r="32" fill="#F3FAF6"/>
<path d="M35.2333 44C35.1 44 34.9722 43.9778 34.85 43.9333C34.7278 43.8889 34.6111 43.8111 34.5 43.7L26.1333 35.0333C26 34.9 25.8889 34.7167 25.8 34.4833C25.7111 34.25 25.6667 34.0333 25.6667 33.8333C25.6667 33.4111 25.8111 33.0556 26.1 32.7667C26.3889 32.4778 26.7444 32.3333 27.1667 32.3333H30C31.2667 32.3333 32.3778 31.9222 33.3333 31.1C34.2889 30.2778 34.8444 29.1333 35 27.6667H25C24.7111 27.6667 24.4722 27.5722 24.2833 27.3833C24.0944 27.1944 24 26.9556 24 26.6667C24 26.3778 24.0944 26.1389 24.2833 25.95C24.4722 25.7611 24.7111 25.6667 25 25.6667H34.8333C34.5444 24.6 33.95 23.7222 33.05 23.0333C32.15 22.3444 31.1333 22 30 22H25C24.7111 22 24.4722 21.9056 24.2833 21.7167C24.0944 21.5278 24 21.2889 24 21C24 20.7111 24.0944 20.4722 24.2833 20.2833C24.4722 20.0944 24.7111 20 25 20H39C39.2889 20 39.5278 20.0944 39.7167 20.2833C39.9056 20.4722 40 20.7111 40 21C40 21.2889 39.9056 21.5278 39.7167 21.7167C39.5278 21.9056 39.2889 22 39 22H34.8667C35.3778 22.4444 35.8111 23.0111 36.1667 23.7C36.5222 24.3889 36.7778 25.0444 36.9333 25.6667H39C39.2889 25.6667 39.5278 25.7611 39.7167 25.95C39.9056 26.1389 40 26.3778 40 26.6667C40 26.9556 39.9056 27.1944 39.7167 27.3833C39.5278 27.5722 39.2889 27.6667 39 27.6667H37C36.8222 29.6889 36.0722 31.3056 34.75 32.5167C33.4278 33.7278 31.8444 34.3333 30 34.3333H28.2667L35.9667 42.3333C36.2778 42.6444 36.3444 43 36.1667 43.4C35.9889 43.8 35.6778 44 35.2333 44Z" fill="#109648"/>
</svg>
